<svg xmlns="http://www.w3.org/2000/svg" xmlns:xlink="http://www.w3.org/1999/xlink" width="241.854" height="241.854" viewBox="0 0 241.854 241.854">
  <defs>
    <filter id="شريط_سفلي" x="0" y="0" width="241.854" height="241.854" filterUnits="userSpaceOnUse">
      <feOffset dy="3" input="SourceAlpha"/>
      <feGaussianBlur stdDeviation="3" result="blur"/>
      <feFlood flood-opacity="0.09"/>
      <feComposite operator="in" in2="blur"/>
      <feComposite in="SourceGraphic"/>
    </filter>
    <clipPath id="clip-path">
      <rect id="Rectangle_20909" data-name="Rectangle 20909" width="52.319" height="52.935" fill="#151327"/>
    </clipPath>
    <clipPath id="clip-path-2">
      <rect id="Rectangle_20910" data-name="Rectangle 20910" width="65.66" height="68.57" transform="translate(0 0)" fill="#00ac9d"/>
    </clipPath>
  </defs>
  <g id="Component_382_1" data-name="Component 382 – 1" transform="translate(9 6)">
    <g transform="matrix(1, 0, 0, 1, -9, -6)" filter="url(#شريط_سفلي)">
      <g id="شريط_سفلي-2" data-name="شريط سفلي" transform="translate(9 6)" fill="#fff" stroke="rgba(219,219,219,0.69)" stroke-width="0.8">
        <rect width="223.854" height="223.854" rx="29" stroke="none"/>
        <rect x="0.4" y="0.4" width="223.054" height="223.054" rx="28.6" fill="none"/>
      </g>
    </g>
    <g id="Group_28236" data-name="Group 28236" transform="translate(-593.653 -2364.159)">
      <g id="Group_28231" data-name="Group 28231" transform="translate(711 2444.261)">
        <g id="Group_28230" data-name="Group 28230" transform="translate(0 0.001)" clip-path="url(#clip-path)">
          <path id="Path_35679" data-name="Path 35679" d="M13.359,43.039h0A2.432,2.432,0,0,1,11.8,44.224,5.229,5.229,0,0,0,8.4,46.388c-1.161,2.065-.32,4.436,2.02,5.752s4.8.8,5.963-1.264a5.229,5.229,0,0,0,.078-4.036,2.437,2.437,0,0,1,.2-1.944h0a2.467,2.467,0,0,1,3.36-.942L32.308,52.51l.962.425,5.865-13.276a2.469,2.469,0,0,1,3.361-.942,2.435,2.435,0,0,1,1.185,1.555,5.229,5.229,0,0,0,2.164,3.407C47.909,44.84,50.281,44,51.6,41.66s.8-4.8-1.264-5.963a5.235,5.235,0,0,0-4.036-.078,2.432,2.432,0,0,1-1.943-.2,2.467,2.467,0,0,1-.942-3.361l8.5-12.2-.891-.62L37.322,13.184a2.469,2.469,0,0,1-.942-3.361,2.432,2.432,0,0,1,1.555-1.185,5.229,5.229,0,0,0,3.407-2.164c1.161-2.065.32-4.436-2.019-5.752s-4.8-.8-5.963,1.264a5.231,5.231,0,0,0-.078,4.036,2.432,2.432,0,0,1-.2,1.943,2.467,2.467,0,0,1-3.361.942L18.6,1.17,10.128,13.342a2.468,2.468,0,0,0,.941,3.361,2.434,2.434,0,0,0,1.944.2,5.228,5.228,0,0,1,4.036.078c2.065,1.16,2.579,3.623,1.264,5.963s-3.687,3.18-5.752,2.019A5.229,5.229,0,0,1,10.4,21.56a2.435,2.435,0,0,0-1.185-1.555,2.468,2.468,0,0,0-3.361.942L0,34.194l12.417,5.486a2.467,2.467,0,0,1,.942,3.36" transform="translate(0 0)" fill="#151327"/>
        </g>
      </g>
      <g id="Group_28233" data-name="Group 28233" transform="matrix(0.966, 0.259, -0.259, 0.966, 654.156, 2404.583)">
        <g id="Group_28232" data-name="Group 28232" clip-path="url(#clip-path-2)">
          <path id="Path_35680" data-name="Path 35680" d="M39.012,59.036a3.17,3.17,0,0,0-1.8-1.8c-1.31-.5-3.285-1.542-4.017-3.392-1.135-2.869.366-5.781,3.617-7.068s6.339-.189,7.474,2.679c.732,1.85,0,3.959-.609,5.222A3.171,3.171,0,0,0,43.6,57.22a3.213,3.213,0,0,0,4.17,1.806l17.359-8.882.529-.271-.624-1.219-5.4-18.736a3.213,3.213,0,0,0-4.171-1.8,3.168,3.168,0,0,0-1.8,1.8c-.5,1.31-1.541,3.286-3.392,4.018-2.868,1.135-5.781-.367-7.067-3.617s-.19-6.339,2.678-7.475c1.851-.732,3.959,0,5.223.609a3.168,3.168,0,0,0,2.544.078,3.214,3.214,0,0,0,1.806-4.171L47.4,3.613l-.568.29L29.475,12.785A3.214,3.214,0,0,1,25.3,10.979a3.167,3.167,0,0,1,.078-2.545c.61-1.263,1.34-3.372.608-5.222C24.855.344,21.767-.753,18.516.533S13.764,4.732,14.9,7.6c.732,1.85,2.707,2.888,4.017,3.392a3.17,3.17,0,0,1,1.8,1.8,3.214,3.214,0,0,1-1.806,4.171L.173,22.367,0,22.417,4.885,39.363a3.214,3.214,0,0,0,4.171,1.805,3.165,3.165,0,0,0,1.8-1.8c.5-1.31,1.542-3.286,3.392-4.018,2.869-1.135,5.782.367,7.068,3.617s.19,6.339-2.679,7.474c-1.85.733-3.959,0-5.222-.608a3.171,3.171,0,0,0-2.545-.078,3.215,3.215,0,0,0-1.806,4.171l8.882,17.358.656,1.282,18.6-5.362a3.214,3.214,0,0,0,1.806-4.171" fill="#00ac9d"/>
        </g>
      </g>
    </g>
  </g>
</svg>
