<svg xmlns="http://www.w3.org/2000/svg" xmlns:xlink="http://www.w3.org/1999/xlink" width="1188" height="1224" viewBox="0 0 1188 1224">
  <defs>
    <filter id="Union_1" x="0" y="0" width="1188" height="1224" filterUnits="userSpaceOnUse">
      <feOffset dx="3" dy="3" input="SourceAlpha"/>
      <feGaussianBlur stdDeviation="6" result="blur"/>
      <feFlood flood-opacity="0.161"/>
      <feComposite operator="in" in2="blur"/>
      <feComposite in="SourceGraphic"/>
    </filter>
  </defs>
  <g transform="matrix(1, 0, 0, 1, 0, 0)" filter="url(#Union_1)">
    <g id="Union_1-2" data-name="Union 1" transform="translate(60 39)" fill="#fff">
      <path d="M 1054.999877929688 1163.499755859375 L 7.0001540184021 1163.499755859375 C 0.04738461598753929 1163.499755859375 -6.697076797485352 1162.13818359375 -13.0458459854126 1159.452880859375 C -19.1784610748291 1156.859008789062 -24.68615341186523 1153.145629882812 -29.41600036621094 1148.415771484375 C -34.14584732055664 1143.685913085938 -37.85923004150391 1138.17822265625 -40.45307540893555 1132.045654296875 C -43.13846206665039 1125.69677734375 -44.5 1118.952392578125 -44.5 1111.999633789062 L -44.5 88.80390930175781 C -44.5 81.85114288330078 -43.13846206665039 75.10668182373047 -40.45307540893555 68.75791168212891 C -37.85923004150391 62.62529373168945 -34.14584732055664 57.11760330200195 -29.41600036621094 52.38775634765625 C -24.68615341186523 47.65790939331055 -19.1784610748291 43.94452667236328 -13.0458459854126 41.35067749023438 C -6.697076797485352 38.6652946472168 0.04738461598753929 37.30375671386719 7.0001540184021 37.30375671386719 L 347.0004577636719 37.30375671386719 L 347.5004577636719 37.30375671386719 L 347.5004577636719 36.80375671386719 L 347.5004577636719 33.00037002563477 C 347.5004577636719 25.37267875671387 348.994140625 17.97344779968262 351.9403076171875 11.00806331634521 C 353.3561401367188 7.66021728515625 355.1087646484375 4.431294441223145 357.1493835449219 1.410832762718201 C 359.1706237792969 -1.581167221069336 361.4918518066406 -4.394551753997803 364.0487670898438 -6.951475143432617 C 366.6055297851562 -9.508398056030273 369.4190673828125 -11.82978248596191 372.4109191894531 -13.85101318359375 C 375.431396484375 -15.89162921905518 378.6603088378906 -17.64424324035645 382.0079956054688 -19.06024360656738 C 388.9732360839844 -22.00639724731445 396.3724670410156 -23.500244140625 404.0001525878906 -23.500244140625 L 658 -23.500244140625 C 665.627685546875 -23.500244140625 673.0269165039062 -22.00639724731445 679.9921264648438 -19.06024360656738 C 683.33984375 -17.64424324035645 686.5687866210938 -15.89162921905518 689.5892333984375 -13.85101318359375 C 692.5810546875 -11.82978248596191 695.3944702148438 -9.508398056030273 697.9513549804688 -6.951475143432617 C 700.5081787109375 -4.394551753997803 702.8295288085938 -1.581167221069336 704.8507690429688 1.410832762718201 C 706.891357421875 4.431294441223145 708.6438598632812 7.66021728515625 710.0598754882812 11.00806331634521 C 713.0059814453125 17.97344779968262 714.4996948242188 25.37267875671387 714.4996948242188 33.00037002563477 L 714.4996948242188 36.80375671386719 L 714.4996948242188 37.30375671386719 L 714.9996948242188 37.30375671386719 L 1054.999877929688 37.30375671386719 C 1061.95263671875 37.30375671386719 1068.697021484375 38.6652946472168 1075.046020507812 41.35067749023438 C 1081.178466796875 43.94452667236328 1086.686157226562 47.65790939331055 1091.416015625 52.38775634765625 C 1096.145874023438 57.11760330200195 1099.859252929688 62.62529373168945 1102.453125 68.75791168212891 C 1105.138427734375 75.10668182373047 1106.5 81.85114288330078 1106.5 88.80390930175781 L 1106.5 1111.999633789062 C 1106.5 1118.952392578125 1105.138427734375 1125.69677734375 1102.453125 1132.045654296875 C 1099.859252929688 1138.17822265625 1096.145874023438 1143.685913085938 1091.416015625 1148.415771484375 C 1086.686157226562 1153.145629882812 1081.178466796875 1156.859008789062 1075.046020507812 1159.452880859375 C 1068.697021484375 1162.13818359375 1061.95263671875 1163.499755859375 1054.999877929688 1163.499755859375 Z" stroke="none"/>
      <path d="M 1054.999877929688 1162.999755859375 C 1061.885375976562 1162.999755859375 1068.564331054688 1161.651489257812 1074.851196289062 1158.992431640625 C 1080.924194335938 1156.423706054688 1086.37841796875 1152.746215820312 1091.0625 1148.062255859375 C 1095.74658203125 1143.378051757812 1099.423950195312 1137.923706054688 1101.99267578125 1131.850830078125 C 1104.651733398438 1125.56396484375 1106 1118.885009765625 1106 1111.999633789062 L 1106 88.80390930175781 C 1106 81.91852569580078 1104.651733398438 75.23960113525391 1101.99267578125 68.95268249511719 C 1099.423950195312 62.87975692749023 1095.74658203125 57.42544937133789 1091.0625 52.74129486083984 C 1086.37841796875 48.05729293823242 1080.924194335938 44.37975692749023 1074.851196289062 41.81114196777344 C 1068.564331054688 39.15206527709961 1061.885375976562 37.80375671386719 1054.999877929688 37.80375671386719 L 713.9996948242188 37.80375671386719 L 713.9996948242188 33.00037002563477 C 713.9996948242188 25.43990898132324 712.5192260742188 18.1062183380127 709.599365234375 11.20283317565918 C 708.1959838867188 7.884832859039307 706.4589233398438 4.684371471405029 704.4364624023438 1.690678954124451 C 702.4329223632812 -1.274859547615051 700.1321411132812 -4.063628673553467 697.5978393554688 -6.597936630249023 C 695.0633544921875 -9.132397651672363 692.2747802734375 -11.43332099914551 689.3092041015625 -13.43670558929443 C 686.3155517578125 -15.45932102203369 683.1153564453125 -17.19639778137207 679.79736328125 -18.59978294372559 C 672.8939819335938 -21.51978302001953 665.560302734375 -23.000244140625 658 -23.000244140625 L 404.0001525878906 -23.000244140625 C 396.439697265625 -23.000244140625 389.1059875488281 -21.51978302001953 382.2027587890625 -18.59978294372559 C 378.884765625 -17.19639778137207 375.6844482421875 -15.45932102203369 372.6907653808594 -13.43670558929443 C 369.7252197265625 -11.43332099914551 366.9366149902344 -9.132397651672363 364.4023132324219 -6.597936630249023 C 361.8680114746094 -4.063628673553467 359.5670776367188 -1.274859547615051 357.5636901855469 1.690678954124451 C 355.5412292480469 4.684371471405029 353.8041687011719 7.884832859039307 352.4007568359375 11.20283317565918 C 349.4809265136719 18.1062183380127 348.0004577636719 25.43990898132324 348.0004577636719 33.00037002563477 L 348.0004577636719 37.80375671386719 L 7.0001540184021 37.80375671386719 C 0.1147692278027534 37.80375671386719 -6.564153671264648 39.15206527709961 -12.85107707977295 41.81114196777344 C -18.92399978637695 44.37975692749023 -24.3783073425293 48.05729293823242 -29.06246185302734 52.74129486083984 C -33.7464599609375 57.42544937133789 -37.42399978637695 62.87975692749023 -39.99261474609375 68.95268249511719 C -42.65169143676758 75.23960113525391 -44 81.91852569580078 -44 88.80390930175781 L -44 1111.999633789062 C -44 1118.885009765625 -42.65169143676758 1125.56396484375 -39.99261474609375 1131.850830078125 C -37.42399978637695 1137.923706054688 -33.7464599609375 1143.378051757812 -29.06246185302734 1148.062255859375 C -24.3783073425293 1152.746215820312 -18.92399978637695 1156.423706054688 -12.85107707977295 1158.992431640625 C -6.564153671264648 1161.651489257812 0.1147692278027534 1162.999755859375 7.0001540184021 1162.999755859375 L 1054.999877929688 1162.999755859375 M 1054.999877929688 1163.999755859375 L 7.0001540184021 1163.999755859375 C -21.71876907348633 1163.999755859375 -45 1140.718505859375 -45 1111.999633789062 L -45 88.80390930175781 C -45 60.08498764038086 -21.71876907348633 36.80375671386719 7.0001540184021 36.80375671386719 L 347.0004577636719 36.80375671386719 L 347.0004577636719 33.00037002563477 C 347.0004577636719 1.520063519477844 372.5198364257812 -24.000244140625 404.0001525878906 -24.000244140625 L 658 -24.000244140625 C 689.4801635742188 -24.000244140625 714.9996948242188 1.520063519477844 714.9996948242188 33.00037002563477 L 714.9996948242188 36.80375671386719 L 1054.999877929688 36.80375671386719 C 1083.718872070312 36.80375671386719 1107 60.08498764038086 1107 88.80390930175781 L 1107 1111.999633789062 C 1107 1140.718505859375 1083.718872070312 1163.999755859375 1054.999877929688 1163.999755859375 Z" stroke="none" fill="#00ac9d"/>
    </g>
  </g>
</svg>
