<svg id="Component_153_2" data-name="Component 153 – 2" xmlns="http://www.w3.org/2000/svg" xmlns:xlink="http://www.w3.org/1999/xlink" width="221.461" height="1462" viewBox="0 0 221.461 1462">
  <defs>
    <linearGradient id="linear-gradient" x1="0.5" x2="0.5" y2="1" gradientUnits="objectBoundingBox">
      <stop offset="0" stop-color="#01454f"/>
      <stop offset="0.184" stop-color="#13574f"/>
      <stop offset="0.435" stop-color="#35764f"/>
      <stop offset="0.611" stop-color="#51914f"/>
      <stop offset="0.837" stop-color="#6fad4f"/>
      <stop offset="1" stop-color="#94cc52"/>
    </linearGradient>
    <clipPath id="clip-path">
      <rect id="Rectangle_21027" data-name="Rectangle 21027" width="218" height="458" transform="translate(0 -0.611)" stroke="#707070" stroke-width="5" fill="url(#linear-gradient)"/>
    </clipPath>
  </defs>
  <path id="Path_36044" data-name="Path 36044" d="M0,0H221.461V1462H0Z" fill="#151327"/>
  <g id="Mask_Group_11" data-name="Mask Group 11" transform="translate(3 1004.611)" clip-path="url(#clip-path)">
    <path id="Union_3" data-name="Union 3" d="M21.562.3,37.041,15.751l7.243,7.233,9.042,9.023.019.02h-33.5L0,52.268H44.947L21.686,75.484l.3,28.324,15.478-15.45L60.995,64.873,73.62,52.268,86.672,65.3l23.167,23.127,15.478,15.449.3-28.328L102.3,52.268h44.949l-19.853-20.24H93.9l9.063-9.043,7.243-7.233L125.68.3,97.3,0,73.62,23.643,49.939,0ZM156.737,29.361l15.478,15.448,7.243,7.234,9.043,9.023.018.02H155.025l-19.851,20.24h44.947l-23.258,23.217.3,28.323,15.478-15.448,23.53-23.488,12.627-12.6,13.051,13.028,23.167,23.127,15.478,15.45.3-28.327-23.32-23.278h44.948l-19.853-20.24h-33.5l9.063-9.042,7.243-7.234,15.476-15.448-28.376-.3L208.8,52.7,185.115,29.057Zm-18.669,131.9,23.32,23.279H116.436l19.857,20.242h33.5l-9.063,9.042-7.243,7.234L138,236.5l28.377.3,23.684-23.638,23.682,23.642,28.378-.3-15.48-15.451L219.4,213.82l-9.04-9.023-.02-.019h33.495l19.85-20.242H218.741L242,161.322l-.3-28.328-15.48,15.452-23.528,23.487-12.626,12.6-13.054-13.027-23.163-23.127L138.37,132.931ZM21.562,224.748,37.041,240.2l7.243,7.234,9.042,9.023.019.019h-33.5L0,276.714H44.947L21.686,299.931l.3,28.323,15.478-15.449L60.995,289.32,73.62,276.714l13.051,13.031,23.167,23.126,15.478,15.449.3-28.328L102.3,276.714h44.949l-19.853-20.24H93.9l9.063-9.042L110.2,240.2l15.476-15.449-28.376-.3L73.62,248.09,49.939,224.446Zm135.175,29.06,15.478,15.448,7.243,7.234,9.043,9.023.018.021H155.025l-19.851,20.24h44.947L156.863,328.99l.3,28.323,15.478-15.448,23.53-23.489,12.627-12.6L221.849,318.8l23.167,23.127,15.478,15.451.3-28.327-23.32-23.279h44.948l-19.853-20.24h-33.5l9.063-9.043,7.243-7.234,15.476-15.448-28.376-.3L208.8,277.146,185.115,253.5Zm-18.669,131.9,23.32,23.276H116.436l19.857,20.243h33.5l-9.063,9.042-7.243,7.233L138,460.951l28.377.3,23.684-23.639,23.682,23.641,28.378-.3L226.645,445.5l-7.243-7.233-9.04-9.023-.02-.019h33.495l19.85-20.243H218.741L242,385.768l-.3-28.327-15.48,15.451-23.528,23.487-12.626,12.6-13.054-13.026-23.163-23.127L138.37,357.378ZM21.562,449.195l15.478,15.449,7.243,7.234,9.042,9.024.019.018h-33.5L0,501.16H44.947L21.686,524.377l.3,28.324,15.478-15.449,23.528-23.487L73.62,501.16l13.051,13.03,23.167,23.127,15.478,15.449.3-28.328L102.3,501.16h44.949l-19.853-20.24H93.9l9.063-9.042,7.243-7.234,15.476-15.449-28.376-.3L73.62,472.536,49.939,448.892Zm135.175,29.059L172.215,493.7l7.243,7.234,9.043,9.023.018.02H155.025l-19.851,20.242h44.947l-23.258,23.215.3,28.323,15.478-15.448,23.53-23.488,12.627-12.6,13.051,13.027,23.167,23.127,15.478,15.451.3-28.327-23.32-23.276h44.948l-19.853-20.242h-33.5l9.063-9.043,7.243-7.234,15.476-15.448-28.376-.3L208.8,501.593l-23.683-23.642Zm-18.669,131.9,23.32,23.276H116.436l19.857,20.243h33.5l-9.063,9.042-7.243,7.234L138,685.4l28.377.3,23.684-23.64L213.748,685.7l28.378-.3-15.48-15.451-7.243-7.234-9.04-9.023-.02-.019h33.495l19.85-20.243H218.741L242,610.214l-.3-28.325L226.22,597.34l-23.528,23.487-12.626,12.6L177.011,620.4l-23.163-23.127L138.37,581.825ZM21.562,673.642,37.041,689.09l7.243,7.235,9.042,9.023.019.018h-33.5L0,725.607H44.947L21.686,748.824l.3,28.324L37.466,761.7l23.528-23.487L73.62,725.607l13.051,13.03,23.167,23.126,15.478,15.449.3-28.328L102.3,725.607h44.949l-19.853-20.241H93.9l9.063-9.041,7.243-7.235,15.476-15.448-28.376-.3L73.62,696.983,49.939,673.341ZM156.737,702.7l15.478,15.449,7.243,7.234,9.043,9.023.018.019H155.025l-19.851,20.243h44.947l-23.258,23.215.3,28.323,15.478-15.449,23.53-23.488,12.627-12.6,13.051,13.026,23.167,23.128,15.478,15.451.3-28.329-23.32-23.276h44.948l-19.853-20.243h-33.5l9.063-9.043,7.243-7.234L260.855,702.7l-28.376-.3L208.8,726.039,185.115,702.4ZM138.068,834.6l23.32,23.276H116.436l19.857,20.242h33.5l-9.063,9.043-7.243,7.234L138,909.844l28.377.3L190.065,886.5l23.682,23.642,28.378-.3-15.48-15.451L219.4,887.16l-9.04-9.023-.02-.02h33.495l19.85-20.242H218.741L242,834.661l-.3-28.325-15.48,15.451-23.528,23.486-12.626,12.6-13.054-13.027-23.163-23.126L138.37,806.273ZM21.562,898.088l15.478,15.448,7.243,7.236,9.042,9.023.019.018h-33.5L0,950.055H44.947L21.686,973.271l.3,28.323,15.478-15.448,23.528-23.487,12.626-12.6,13.051,13.028,23.167,23.127,15.478,15.45.3-28.329L102.3,950.055h44.949l-19.853-20.242H93.9l9.063-9.041,7.243-7.236,15.476-15.448-28.376-.3L73.62,921.429,49.939,897.787Zm135.175,29.059L172.215,942.6l7.243,7.234,9.043,9.022.018.019H155.025l-19.851,20.243h44.947l-23.258,23.215.3,28.324,15.478-15.449,23.53-23.489,12.627-12.6,13.051,13.028,23.167,23.127,15.478,15.451.3-28.329-23.32-23.276h44.948l-19.853-20.243h-33.5l9.063-9.042,7.243-7.234,15.476-15.449-28.376-.3L208.8,950.485l-23.683-23.641Zm-18.669,131.9,23.32,23.279H116.436l19.857,20.241h33.5l-9.063,9.044-7.243,7.232L138,1134.292l28.377.3,23.684-23.64,23.682,23.644,28.378-.3-15.48-15.452-7.243-7.232-9.04-9.024-.02-.02h33.495l19.85-20.241H218.741L242,1059.108l-.3-28.326-15.48,15.451-23.528,23.487-12.626,12.6-13.054-13.028-23.163-23.127-15.478-15.449Z" transform="translate(282.398 1146.574) rotate(180)" fill="none" stroke="#00ac9d" stroke-width="2" style="mix-blend-mode: color-dodge;isolation: isolate"/>
  </g>
</svg>
