<svg xmlns="http://www.w3.org/2000/svg" xmlns:xlink="http://www.w3.org/1999/xlink" width="241.854" height="241.854" viewBox="0 0 241.854 241.854">
  <defs>
    <filter id="شريط_سفلي" x="0" y="0" width="241.854" height="241.854" filterUnits="userSpaceOnUse">
      <feOffset dy="3" input="SourceAlpha"/>
      <feGaussianBlur stdDeviation="3" result="blur"/>
      <feFlood flood-opacity="0.09"/>
      <feComposite operator="in" in2="blur"/>
      <feComposite in="SourceGraphic"/>
    </filter>
    <clipPath id="clip-path">
      <rect id="Rectangle_20920" data-name="Rectangle 20920" width="185.546" height="90.383" fill="none"/>
    </clipPath>
    <linearGradient id="linear-gradient" x1="0.5" x2="0.5" y2="1" gradientUnits="objectBoundingBox">
      <stop offset="0" stop-color="#2a9c89"/>
      <stop offset="0.55" stop-color="#60ae65"/>
      <stop offset="1" stop-color="#7fc042"/>
    </linearGradient>
    <linearGradient id="linear-gradient-2" x2="1.14" y2="0.848" xlink:href="#linear-gradient"/>
    <clipPath id="clip-path-4">
      <rect id="Rectangle_20928" data-name="Rectangle 20928" width="1.503" height="0.087" fill="none"/>
    </clipPath>
  </defs>
  <g id="Component_386_1" data-name="Component 386 – 1" transform="translate(9 6)">
    <g transform="matrix(1, 0, 0, 1, -9, -6)" filter="url(#شريط_سفلي)">
      <g id="شريط_سفلي-2" data-name="شريط سفلي" transform="translate(9 6)" fill="#fff" stroke="rgba(219,219,219,0.69)" stroke-width="0.8">
        <rect width="223.854" height="223.854" rx="29" stroke="none"/>
        <rect x="0.4" y="0.4" width="223.054" height="223.054" rx="28.6" fill="none"/>
      </g>
    </g>
    <g id="Group_28271" data-name="Group 28271" transform="translate(19.227 42.714)">
      <g id="Group_28272" data-name="Group 28272">
        <g id="Group_28257" data-name="Group 28257">
          <g id="Group_28256" data-name="Group 28256" clip-path="url(#clip-path)">
            <path id="Path_35690" data-name="Path 35690" d="M185.546,335.049c0,.039-41.539.07-92.769.07-51.247,0-92.778-.031-92.778-.07s41.531-.07,92.778-.07c51.23,0,92.769.031,92.769.07" transform="translate(0 -245.131)" fill="#263238"/>
          </g>
        </g>
        <g id="Group_28262" data-name="Group 28262">
          <g id="Group_28273" data-name="Group 28273">
            <path id="Path_35691" data-name="Path 35691" d="M227.994,88.358h-125.8a3.907,3.907,0,0,1-3.907-3.907V3.907A3.907,3.907,0,0,1,102.194,0h125.8A3.907,3.907,0,0,1,231.9,3.907V84.451a3.907,3.907,0,0,1-3.907,3.907" transform="translate(-71.925)" fill="#151327"/>
            <path id="Path_35692" data-name="Path 35692" d="M218.8,315.88H83.591a4.774,4.774,0,0,1-4.774-4.774v-2.957H223.578v2.957a4.774,4.774,0,0,1-4.774,4.774" transform="translate(-57.677 -225.497)" fill="#151327"/>
            <rect id="Rectangle_20921" data-name="Rectangle 20921" width="126.068" height="74.617" rx="4" transform="translate(29.949 3.51)" fill="#00ac9d"/>
            <path id="Path_35693" data-name="Path 35693" d="M298.255,305.059l1.8,2.857h25.277L327,305.059Z" transform="translate(-218.258 -223.237)" fill="#263238"/>
            <path id="Path_35694" data-name="Path 35694" d="M241.595,94.358H122.217a.878.878,0,0,1-.878-.878v-70.1a.878.878,0,0,1,.878-.878H241.595a.878.878,0,0,1,.878.878v70.1a.878.878,0,0,1-.878.878" transform="translate(-88.794 -16.469)" fill="#ebebeb"/>
            <path id="Path_35695" data-name="Path 35695" d="M242.328,110.083H121.141l.224-66.588H242.328Z" transform="translate(-88.649 -31.829)" fill="#fff"/>
            <path id="Path_35696" data-name="Path 35696" d="M153.9,30.213a.967.967,0,1,1-.967-.967.968.968,0,0,1,.967.967" transform="translate(-111.204 -21.402)" fill="#263238"/>
            <path id="Path_35697" data-name="Path 35697" d="M132.038,30.213a.967.967,0,1,1-.967-.967.967.967,0,0,1,.967.967" transform="translate(-95.207 -21.402)" fill="#263238"/>
            <path id="Path_35698" data-name="Path 35698" d="M142.968,30.213a.967.967,0,1,1-.967-.967.967.967,0,0,1,.967.967" transform="translate(-103.205 -21.402)" fill="#263238"/>
            <path id="Path_35699" data-name="Path 35699" d="M239.329,304.9c0,.048-27.628.087-61.7.087s-61.706-.039-61.706-.087,27.622-.087,61.706-.087,61.7.039,61.7.087" transform="translate(-84.83 -223.056)" fill="#263238"/>
            <rect id="Rectangle_20922" data-name="Rectangle 20922" width="121.154" height="12.051" transform="translate(32.545 66.164)" fill="#00ac9d"/>
            <path id="Path_35700" data-name="Path 35700" d="M387.45,257.124a4.475,4.475,0,1,1-4.475-4.475,4.475,4.475,0,0,1,4.475,4.475" transform="translate(-276.979 -184.884)" fill="#151327"/>
            <path id="Path_35701" data-name="Path 35701" d="M392.983,263.883a.807.807,0,0,1-.807-.806v-1.758a.807.807,0,1,1,1.613,0v1.758a.807.807,0,0,1-.807.806m0-3.2a.639.639,0,0,0-.638.638v1.758a.638.638,0,0,0,1.275,0v-1.758a.639.639,0,0,0-.638-.638" transform="translate(-286.987 -190.637)" fill="#fff"/>
            <path id="Path_35702" data-name="Path 35702" d="M390.909,269.674a1.456,1.456,0,0,1-1.133-.448,2.148,2.148,0,0,1-.427-1.5.084.084,0,0,1,.168.016,2.014,2.014,0,0,0,.385,1.368,1.294,1.294,0,0,0,1.007.392,1.354,1.354,0,0,0,1.02-.391,2.113,2.113,0,0,0,.465-1.374.084.084,0,0,1,.081-.088.088.088,0,0,1,.088.081,2.253,2.253,0,0,1-.512,1.5,1.516,1.516,0,0,1-1.142.443" transform="translate(-284.913 -195.862)" fill="#fff"/>
            <path id="Path_35703" data-name="Path 35703" d="M394.953,275.966a.084.084,0,0,1-.084-.084v-1.237a.084.084,0,1,1,.169,0v1.237a.085.085,0,0,1-.084.084" transform="translate(-288.958 -200.918)" fill="#fff"/>
            <path id="Path_35704" data-name="Path 35704" d="M298.86,257.124a4.475,4.475,0,1,1-4.475-4.475,4.475,4.475,0,0,1,4.475,4.475" transform="translate(-212.151 -184.884)" fill="#151327"/>
            <path id="Path_35705" data-name="Path 35705" d="M300.093,268.57a.441.441,0,1,1,.441-.441.441.441,0,0,1-.441.441" transform="translate(-219.28 -195.889)" fill="#fff"/>
            <path id="Path_35706" data-name="Path 35706" d="M305.211,268.57a.441.441,0,1,1,.441-.441.441.441,0,0,1-.441.441" transform="translate(-223.025 -195.889)" fill="#fff"/>
            <path id="Path_35707" data-name="Path 35707" d="M310.686,268.57a.441.441,0,1,1,.441-.441.441.441,0,0,1-.441.441" transform="translate(-227.031 -195.889)" fill="#fff"/>
            <path id="Path_35708" data-name="Path 35708" d="M343.288,257.335a4.4,4.4,0,1,1-4.4-4.4,4.4,4.4,0,0,1,4.4,4.4" transform="translate(-244.776 -185.094)" fill="#151327"/>
            <path id="Path_35709" data-name="Path 35709" d="M346.167,264.357a.76.76,0,0,0-1.137.231.456.456,0,0,0,.106.572c.4.4,1.252,1.192,1.621,1.537a.914.914,0,0,0,.753.244.789.789,0,0,0,.534-.331c.416-.571-.581-1.017-.581-1.017l-.436.458-1.017-.981.446-.491Z" transform="translate(-252.444 -193.334)" fill="#fff"/>
            <path id="Path_35710" data-name="Path 35710" d="M529.081,61.963h0a4.558,4.558,0,1,1,4.558-4.558,4.558,4.558,0,0,1-4.558,4.558" transform="translate(-383.836 -38.672)" fill="#ebebeb"/>
            <path id="Path_35711" data-name="Path 35711" d="M536.822,66.089a.727.727,0,1,0-.441,0,1.267,1.267,0,0,0-1.062,1.25h2.536a1.268,1.268,0,0,0-1.032-1.245" transform="translate(-391.735 -47.323)" fill="#263238"/>
            <path id="Path_35712" data-name="Path 35712" d="M545.94,67.018a.1.1,0,0,1-.1-.1V65.747a.1.1,0,0,1,.209,0v1.167a.1.1,0,0,1-.1.1" transform="translate(-399.432 -48.036)" fill="#263238"/>
            <path id="Path_35713" data-name="Path 35713" d="M544.931,68.026h-1.167a.1.1,0,1,1,0-.209h1.167a.1.1,0,0,1,0,.209" transform="translate(-397.839 -49.627)" fill="#263238"/>
            <path id="Path_35714" data-name="Path 35714" d="M150.54,110.018l-29.2-.139V43.431h29.2Z" transform="translate(-88.792 -31.782)" fill="#fafafa"/>
            <path id="Path_35715" data-name="Path 35715" d="M230.021,109.479c-.039,0-.07-14.786-.07-33.022s.031-33.026.07-33.026.07,14.783.07,33.026-.031,33.022-.07,33.022" transform="translate(-168.274 -31.782)" fill="#263238"/>
            <path id="Path_35716" data-name="Path 35716" d="M151.119,243.855c0,.039-6.215.07-13.88.07s-13.881-.031-13.881-.07,6.214-.07,13.881-.07,13.88.031,13.88.07" transform="translate(-90.272 -178.397)" fill="#e0e0e0"/>
            <path id="Path_35717" data-name="Path 35717" d="M202.3,107.8v.651h-.067v-.592h-.154v-.06Z" transform="translate(-147.88 -78.883)" fill="#e0e0e0"/>
            <path id="Path_35718" data-name="Path 35718" d="M203.554,107.8v.651h-.067v-.592h-.154v-.06Z" transform="translate(-148.796 -78.883)" fill="#e0e0e0"/>
            <path id="Path_35719" data-name="Path 35719" d="M204.738,108.436a.049.049,0,0,1,.049-.05.05.05,0,0,1,.05.05.051.051,0,0,1-.05.051.05.05,0,0,1-.049-.051m0,.4a.049.049,0,0,1,.049-.05.05.05,0,0,1,.05.05.051.051,0,0,1-.05.051.05.05,0,0,1-.049-.051" transform="translate(-149.823 -79.315)" fill="#e0e0e0"/>
            <path id="Path_35720" data-name="Path 35720" d="M205.829,108.372v.06h-.457v-.047l.271-.265c.073-.072.087-.116.087-.161,0-.075-.053-.122-.153-.122a.221.221,0,0,0-.178.072l-.047-.041a.292.292,0,0,1,.231-.093c.132,0,.216.067.216.176a.268.268,0,0,1-.107.2l-.222.218Z" transform="translate(-150.273 -78.868)" fill="#e0e0e0"/>
            <path id="Path_35721" data-name="Path 35721" d="M207.8,108.255c0,.111-.077.2-.237.2a.335.335,0,0,1-.233-.084l.032-.053a.282.282,0,0,0,.2.076c.111,0,.169-.054.169-.133s-.052-.136-.218-.136h-.139l.034-.327h.356v.06h-.3l-.022.208h.084c.2,0,.271.077.271.192" transform="translate(-151.724 -78.883)" fill="#e0e0e0"/>
            <path id="Path_35722" data-name="Path 35722" d="M204.775,220.919v.651h-.067v-.592h-.154v-.06Z" transform="translate(-149.689 -161.664)" fill="#e0e0e0"/>
            <path id="Path_35723" data-name="Path 35723" d="M206.027,220.919v.651h-.067v-.592h-.154v-.06Z" transform="translate(-150.605 -161.664)" fill="#e0e0e0"/>
            <path id="Path_35724" data-name="Path 35724" d="M207.211,221.559a.049.049,0,0,1,.049-.05.05.05,0,0,1,.05.05.051.051,0,0,1-.05.051.05.05,0,0,1-.049-.051m0,.4a.049.049,0,0,1,.049-.05.05.05,0,0,1,.05.05.051.051,0,0,1-.05.051.05.05,0,0,1-.049-.051" transform="translate(-151.633 -162.096)" fill="#e0e0e0"/>
            <path id="Path_35725" data-name="Path 35725" d="M208.466,221.4h-.13v.171h-.067V221.4H207.9v-.049l.345-.432h.075l-.333.421h.283v-.151h.065v.151h.13Z" transform="translate(-152.138 -161.665)" fill="#e0e0e0"/>
            <path id="Path_35726" data-name="Path 35726" d="M210.586,221.379c0,.111-.077.2-.236.2a.337.337,0,0,1-.234-.083l.032-.053a.284.284,0,0,0,.2.075c.111,0,.169-.054.169-.133s-.052-.136-.218-.136h-.139l.034-.327h.356v.06h-.3l-.022.208h.084c.2,0,.271.077.271.193" transform="translate(-153.759 -161.664)" fill="#e0e0e0"/>
            <path id="Path_35727" data-name="Path 35727" d="M154.325,71.54H141.3l-.038-5.666a5.7,5.7,0,0,1,5.7-5.742h7.359a5.7,5.7,0,1,1,0,11.408" transform="translate(-103.372 -44.003)" fill="#ebebeb"/>
            <path id="Path_35728" data-name="Path 35728" d="M149.432,266.542H128.775a2.53,2.53,0,0,1-2.527-2.527V263.9a2.53,2.53,0,0,1,2.527-2.527h20.657a2.53,2.53,0,0,1,2.527,2.527v.111a2.53,2.53,0,0,1-2.527,2.527m-20.657-5.007a2.371,2.371,0,0,0-2.369,2.369v.111a2.372,2.372,0,0,0,2.369,2.369h20.657a2.372,2.372,0,0,0,2.369-2.369V263.9a2.371,2.371,0,0,0-2.369-2.369Z" transform="translate(-92.386 -191.271)" fill="#e0e0e0"/>
            <path id="Path_35729" data-name="Path 35729" d="M210.929,267.21a1.284,1.284,0,1,1-1.284-1.284,1.284,1.284,0,0,1,1.284,1.284" transform="translate(-152.475 -194.6)" fill="url(#linear-gradient)"/>
            <path id="Path_35730" data-name="Path 35730" d="M210.845,269.866h0a.04.04,0,0,1-.035-.029l-.164-.608-.57-.2a.039.039,0,0,1,0-.074l1.341-.479a.04.04,0,0,1,.05.053l-.582,1.315a.04.04,0,0,1-.036.023m-.641-.876.485.171a.04.04,0,0,1,.025.027l.14.52.5-1.129Z" transform="translate(-153.708 -196.462)" fill="#fff"/>
            <path id="Path_35731" data-name="Path 35731" d="M212.284,269.238a.04.04,0,0,1-.027-.069l.752-.687a.039.039,0,1,1,.053.058l-.751.687a.04.04,0,0,1-.027.01" transform="translate(-155.317 -196.462)" fill="#fff"/>
            <path id="Path_35732" data-name="Path 35732" d="M147.653,269.236H147.4v-.065h.571v.065h-.248v.641h-.075Z" transform="translate(-107.868 -196.974)" fill="#263238"/>
            <path id="Path_35733" data-name="Path 35733" d="M149.9,269.826l-.265.594c-.044.1-.1.137-.176.137a.182.182,0,0,1-.129-.048l.033-.053a.133.133,0,0,0,.1.04c.047,0,.08-.022.11-.089l.023-.051-.237-.529h.075l.2.451.2-.451Z" transform="translate(-109.275 -197.453)" fill="#263238"/>
            <path id="Path_35734" data-name="Path 35734" d="M152.369,270.079a.257.257,0,0,1-.264.27.231.231,0,0,1-.2-.1v.3h-.072v-.726h.069v.1a.231.231,0,0,1,.2-.109.257.257,0,0,1,.264.269m-.072,0a.2.2,0,1,0-.2.207.2.2,0,0,0,.2-.207" transform="translate(-111.107 -197.442)" fill="#263238"/>
            <path id="Path_35735" data-name="Path 35735" d="M154.7,270.1h-.444a.2.2,0,0,0,.209.185.209.209,0,0,0,.163-.069l.04.046a.281.281,0,0,1-.483-.184.256.256,0,0,1,.259-.269.253.253,0,0,1,.257.269c0,.006,0,.014,0,.022m-.444-.053h.376a.189.189,0,0,0-.376,0" transform="translate(-112.827 -197.442)" fill="#263238"/>
            <path id="Path_35736" data-name="Path 35736" d="M157.918,270.016v.329h-.069v-.083a.2.2,0,0,1-.182.088c-.12,0-.194-.062-.194-.154s.053-.15.2-.15h.168v-.032c0-.091-.051-.14-.15-.14a.27.27,0,0,0-.176.063l-.032-.054a.338.338,0,0,1,.216-.072.189.189,0,0,1,.215.206m-.072.169V270.1h-.166c-.1,0-.136.04-.136.095s.049.1.134.1a.169.169,0,0,0,.168-.108" transform="translate(-115.236 -197.442)" fill="#263238"/>
            <path id="Path_35737" data-name="Path 35737" d="M161.717,270.038v.308h-.072v-.3c0-.112-.056-.17-.152-.17a.17.17,0,0,0-.178.191v.278h-.072v-.3c0-.112-.056-.17-.153-.17a.171.171,0,0,0-.178.191v.278h-.072v-.531h.069v.1a.214.214,0,0,1,.194-.1.19.19,0,0,1,.189.112.231.231,0,0,1,.21-.112.2.2,0,0,1,.214.227" transform="translate(-117.701 -197.442)" fill="#263238"/>
            <path id="Path_35738" data-name="Path 35738" d="M165.156,270.1h-.444a.2.2,0,0,0,.209.185.208.208,0,0,0,.162-.069l.041.046a.281.281,0,0,1-.483-.184.256.256,0,0,1,.259-.269.253.253,0,0,1,.257.269c0,.006,0,.014,0,.022m-.444-.053h.376a.188.188,0,0,0-.376,0" transform="translate(-120.481 -197.442)" fill="#263238"/>
            <path id="Path_35739" data-name="Path 35739" d="M166.838,270.285l.032-.057a.319.319,0,0,0,.189.06c.1,0,.142-.034.142-.087,0-.138-.344-.029-.344-.239,0-.087.075-.151.21-.151a.361.361,0,0,1,.187.049l-.031.058a.273.273,0,0,0-.156-.046c-.1,0-.138.038-.138.088,0,.143.344.035.344.239,0,.092-.08.152-.219.152a.354.354,0,0,1-.216-.066" transform="translate(-122.089 -197.442)" fill="#263238"/>
            <path id="Path_35740" data-name="Path 35740" d="M168.677,270.285l.032-.057a.319.319,0,0,0,.189.06c.1,0,.142-.034.142-.087,0-.138-.344-.029-.344-.239,0-.087.075-.151.21-.151a.361.361,0,0,1,.187.049l-.031.058a.273.273,0,0,0-.156-.046c-.1,0-.138.038-.138.088,0,.143.344.035.344.239,0,.092-.08.152-.219.152a.354.354,0,0,1-.216-.066" transform="translate(-123.435 -197.442)" fill="#263238"/>
            <path id="Path_35741" data-name="Path 35741" d="M171.07,270.016v.329H171v-.083a.2.2,0,0,1-.182.088c-.12,0-.194-.062-.194-.154s.052-.15.2-.15H171v-.032c0-.091-.051-.14-.15-.14a.27.27,0,0,0-.176.063l-.032-.054a.338.338,0,0,1,.216-.072.189.189,0,0,1,.215.206m-.072.169V270.1h-.166c-.1,0-.136.04-.136.095s.049.1.134.1a.169.169,0,0,0,.168-.108" transform="translate(-124.86 -197.442)" fill="#263238"/>
            <path id="Path_35742" data-name="Path 35742" d="M173.362,269.815v.466a.233.233,0,0,1-.265.265.37.37,0,0,1-.247-.082l.036-.055a.315.315,0,0,0,.209.073c.134,0,.2-.061.2-.193v-.068a.239.239,0,0,1-.207.1.257.257,0,1,1,0-.514.239.239,0,0,1,.21.106v-.1Zm-.07.252a.2.2,0,1,0-.2.195.19.19,0,0,0,.2-.195" transform="translate(-126.464 -197.442)" fill="#263238"/>
            <path id="Path_35743" data-name="Path 35743" d="M175.912,270.1h-.444a.2.2,0,0,0,.209.185.209.209,0,0,0,.162-.069l.04.046a.281.281,0,0,1-.483-.184.256.256,0,0,1,.259-.269.253.253,0,0,1,.257.269c0,.006,0,.014,0,.022m-.444-.053h.376a.188.188,0,0,0-.376,0" transform="translate(-128.352 -197.442)" fill="#263238"/>
            <path id="Path_35744" data-name="Path 35744" d="M177.7,271.466a.053.053,0,0,1,.054-.054.054.054,0,0,1,.054.054.055.055,0,0,1-.054.056.054.054,0,0,1-.054-.056" transform="translate(-130.034 -198.614)" fill="#263238"/>
            <path id="Path_35745" data-name="Path 35745" d="M178.492,271.466a.053.053,0,0,1,.053-.054.054.054,0,0,1,.054.054.055.055,0,0,1-.054.056.054.054,0,0,1-.053-.056" transform="translate(-130.617 -198.614)" fill="#263238"/>
            <path id="Path_35746" data-name="Path 35746" d="M179.29,271.466a.053.053,0,0,1,.053-.054.054.054,0,0,1,.054.054.055.055,0,0,1-.054.056.054.054,0,0,1-.053-.056" transform="translate(-131.201 -198.614)" fill="#263238"/>
            <path id="Path_35747" data-name="Path 35747" d="M134.085,269.416a.279.279,0,1,1-.429-.358l.578-.694a.181.181,0,1,1,.278.231l-.49.588h0a.1.1,0,0,1-.153-.13l.378-.453-.052-.043-.361.433h0l-.018.021,0,0a.167.167,0,0,0,.254.212h0l.01-.012.009-.009h0l.478-.574h0a.248.248,0,0,0-.381-.317h0l-.6.725h0a.347.347,0,0,0,.531.442h0l.487-.584-.052-.043Z" transform="translate(-97.71 -196.287)" fill="#e0e0e0"/>
            <path id="Path_35748" data-name="Path 35748" d="M165.989,71.68c0,.024-2.462.044-5.5.044s-5.5-.02-5.5-.044,2.461-.043,5.5-.043,5.5.02,5.5.043" transform="translate(-113.42 -52.423)" fill="#263238"/>
            <path id="Path_35749" data-name="Path 35749" d="M165.989,76.75c0,.024-2.462.043-5.5.043s-5.5-.02-5.5-.043,2.461-.043,5.5-.043,5.5.02,5.5.043" transform="translate(-113.42 -56.133)" fill="#263238"/>
            <path id="Path_35750" data-name="Path 35750" d="M165.989,81.821c0,.024-2.462.043-5.5.043s-5.5-.02-5.5-.043,2.461-.043,5.5-.043,5.5.02,5.5.043" transform="translate(-113.42 -59.844)" fill="#263238"/>
            <path id="Path_35751" data-name="Path 35751" d="M165.989,86.892c0,.024-2.462.043-5.5.043s-5.5-.02-5.5-.043,2.461-.043,5.5-.043,5.5.02,5.5.043" transform="translate(-113.42 -63.554)" fill="#263238"/>
            <path id="Path_35752" data-name="Path 35752" d="M160.509,91.963a1.046,1.046,0,0,1-.217.017l-.591.014c-.5.008-1.189.013-1.951.013s-1.452,0-1.951-.013l-.591-.014a1.046,1.046,0,0,1-.217-.017,1.044,1.044,0,0,1,.217-.017l.591-.014c.5-.008,1.189-.013,1.951-.013s1.452,0,1.951.013l.591.014a1.044,1.044,0,0,1,.217.017" transform="translate(-113.419 -67.265)" fill="#263238"/>
            <path id="Path_35753" data-name="Path 35753" d="M152.239,124.475H141.261V121.2a2.919,2.919,0,0,1,2.919-2.919h8.06a2.919,2.919,0,0,1,2.919,2.919v.357a2.919,2.919,0,0,1-2.919,2.919" transform="translate(-103.372 -86.555)" fill="#ebebeb"/>
            <path id="Path_35754" data-name="Path 35754" d="M158.809,126.936c0,.024-2.166.043-4.836.043s-4.837-.02-4.837-.043,2.165-.043,4.837-.043,4.836.02,4.836.043" transform="translate(-109.135 -92.858)" fill="#263238"/>
            <path id="Path_35755" data-name="Path 35755" d="M155.043,132.559a1.193,1.193,0,0,1-.232.017l-.633.014c-.535.008-1.273.013-2.088.013s-1.554,0-2.088-.013l-.633-.014a1.193,1.193,0,0,1-.232-.017,1.2,1.2,0,0,1,.232-.017l.633-.014c.534-.008,1.273-.013,2.088-.013s1.554,0,2.088.013l.633.014a1.2,1.2,0,0,1,.232.017" transform="translate(-109.135 -96.973)" fill="#263238"/>
            <path id="Path_35756" data-name="Path 35756" d="M142.832,190.712v.651h-.067v-.592h-.153v-.06Z" transform="translate(-104.36 -139.559)" fill="#e0e0e0"/>
            <path id="Path_35757" data-name="Path 35757" d="M144.084,190.712v.651h-.067v-.592h-.153v-.06Z" transform="translate(-105.276 -139.559)" fill="#e0e0e0"/>
            <path id="Path_35758" data-name="Path 35758" d="M145.267,191.351a.049.049,0,0,1,.049-.05.05.05,0,0,1,.05.05.051.051,0,0,1-.05.051.05.05,0,0,1-.049-.051m0,.4a.049.049,0,0,1,.049-.05.05.05,0,0,1,.05.05.051.051,0,0,1-.05.051.05.05,0,0,1-.049-.051" transform="translate(-106.304 -139.99)" fill="#e0e0e0"/>
            <path id="Path_35759" data-name="Path 35759" d="M146.321,191.176c0,.109-.079.193-.236.193a.339.339,0,0,1-.234-.084l.032-.053a.285.285,0,0,0,.2.075c.108,0,.167-.05.167-.131s-.055-.129-.176-.129h-.047V191l.181-.226h-.333v-.06h.419v.047l-.184.231c.139.008.209.081.209.185" transform="translate(-106.73 -139.559)" fill="#e0e0e0"/>
            <path id="Path_35760" data-name="Path 35760" d="M147.953,191.022c0-.208.109-.331.26-.331s.261.124.261.331-.11.331-.261.331-.26-.124-.26-.331m.451,0c0-.174-.078-.27-.192-.27s-.192.1-.192.27.078.27.192.27.192-.1.192-.27" transform="translate(-108.269 -139.544)" fill="#e0e0e0"/>
            <path id="Path_35761" data-name="Path 35761" d="M142.134,167.6H159.08v-3.276a2.919,2.919,0,0,0-2.919-2.919H142.134a2.919,2.919,0,0,0-2.919,2.919v.357a2.919,2.919,0,0,0,2.919,2.919" transform="translate(-101.875 -118.115)" fill="#ebebeb"/>
            <path id="Path_35762" data-name="Path 35762" d="M164.068,169.822c0,.024-3.053.043-6.819.043s-6.819-.02-6.819-.043,3.053-.043,6.819-.043,6.819.02,6.819.043" transform="translate(-110.082 -124.241)" fill="#263238"/>
            <path id="Path_35763" data-name="Path 35763" d="M164.068,175.3c0,.024-3.053.043-6.819.043s-6.819-.02-6.819-.043,3.053-.043,6.819-.043,6.819.02,6.819.043" transform="translate(-110.082 -128.248)" fill="#263238"/>
            <path id="Path_35764" data-name="Path 35764" d="M150.349,210.729H139.371v-3.276a2.919,2.919,0,0,1,2.919-2.919h8.06a2.919,2.919,0,0,1,2.919,2.919v.357a2.919,2.919,0,0,1-2.919,2.919" transform="translate(-101.989 -149.674)" fill="#ebebeb"/>
            <path id="Path_35765" data-name="Path 35765" d="M156.436,212.808c0,.024-2.291.043-5.116.043s-5.116-.02-5.116-.043,2.29-.043,5.116-.043,5.116.02,5.116.043" transform="translate(-106.989 -155.697)" fill="#263238"/>
            <path id="Path_35766" data-name="Path 35766" d="M152.784,218.3a1.477,1.477,0,0,1-.259.017l-.705.014c-.6.008-1.418.013-2.326.013s-1.731,0-2.327-.013l-.7-.014a1.477,1.477,0,0,1-.259-.017,1.48,1.48,0,0,1,.259-.017l.7-.014c.6-.008,1.418-.013,2.327-.013s1.731,0,2.326.013l.705.014a1.48,1.48,0,0,1,.259.017" transform="translate(-106.989 -159.713)" fill="#263238"/>
          </g>
        </g>
        <g id="Group_28264" data-name="Group 28264">
          <g id="Group_28263" data-name="Group 28263" clip-path="url(#clip-path)">
            <path id="Path_35767" data-name="Path 35767" d="M408.715,218.048l1.159,1.159a.691.691,0,0,0,.474.2.682.682,0,0,0,.474-.2.675.675,0,0,0,.2-.474.7.7,0,0,0-.2-.474l-1.159-1.159a.692.692,0,0,0-.474-.2.684.684,0,0,0-.474.2.675.675,0,0,0-.2.474.7.7,0,0,0,.2.474" transform="translate(-298.946 -158.725)" fill="#fafafa"/>
            <path id="Path_35768" data-name="Path 35768" d="M417.849,155.873a12.109,12.109,0,0,1-2.6,0,12.106,12.106,0,0,1,2.6,0" transform="translate(-303.875 -114.014)" fill="#455a64"/>
            <path id="Path_35769" data-name="Path 35769" d="M322.027,247.034c-50.841,0-91.9.032-91.9.07s41.057.07,91.9.07Z" transform="translate(-168.404 -180.775)" fill="#263238"/>
          </g>
        </g>
        <rect id="Rectangle_20927" data-name="Rectangle 20927" width="22.942" height="26.285" transform="translate(128.197 50.466)" fill="#ebebeb"/>
        <g id="Group_28269" data-name="Group 28269">
          <g id="Group_28268" data-name="Group 28268" clip-path="url(#clip-path)">
            <path id="Path_35770" data-name="Path 35770" d="M500.709,214.245s0-.044,0-.126,0-.207,0-.367c0-.325,0-.8-.007-1.421,0-1.244-.009-3.06-.016-5.366-.008-4.609-.018-11.172-.031-19l.062.062-22.94.008h0l.07-.07c0,9.692-.008,18.729-.011,26.284l-.059-.059,16.634.03,4.655.015,1.228.007c.278,0,.425.006.425.006s-.138,0-.413.006l-1.217.007-4.642.015-16.671.03h-.059v-.059c0-7.555-.007-16.592-.011-26.284v-.07h.072l22.94.008h.062v.062c-.013,7.848-.024,14.425-.031,19.044-.007,2.3-.013,4.112-.016,5.352,0,.614-.006,1.087-.007,1.409,0,.156,0,.276,0,.36s0,.119,0,.119" transform="translate(-349.569 -137.495)" fill="#263238"/>
            <path id="Path_35771" data-name="Path 35771" d="M492.114,217.127c.282-.422.465-2.166.831-2.069.466.124-.189,1.976-.234,2.145s.2.235.232.08c.047-.222.57-2.4,1.025-2.231.253.092.09.554.09.554s-.74,2.116-.522,2.187.643-1.164.784-1.6c.135-.419.36-.539.515-.342s-.236,1.462-.364,1.884-.5,1.575.148,1.144a2.038,2.038,0,0,1,1.5-.428c.193.1.121.4-.117.44a2.9,2.9,0,0,0-.723.306,2.78,2.78,0,0,0-.5.387,2.425,2.425,0,0,0-.494.633,1.508,1.508,0,0,1-.993.737l-.195.8-2.218-.825.369-1.507a14.762,14.762,0,0,0,.371-2.685c.107-1.136.256-1.131.384-1.089.283.093-.169,1.9.106,1.485" transform="translate(-359.219 -157.364)" fill="#ffbe9d"/>
            <path id="Path_35772" data-name="Path 35772" d="M493.962,228.276a2.579,2.579,0,0,1,.291.164,1.252,1.252,0,0,1,.459.635,1.223,1.223,0,0,1,.047.238l0,.038.034-.016a1.949,1.949,0,0,1,.612-.164c.159-.016.255-.01.256-.018a.8.8,0,0,0-.258-.017,1.756,1.756,0,0,0-.632.149l.038.023a1.19,1.19,0,0,0-.047-.251,1.237,1.237,0,0,0-.215-.4,1.213,1.213,0,0,0-.275-.249,1.061,1.061,0,0,0-.223-.111.285.285,0,0,0-.089-.021" transform="translate(-361.472 -167.047)" fill="#eb996e"/>
            <path id="Path_35773" data-name="Path 35773" d="M493.5,234.555a2.016,2.016,0,0,0,1.085.451c0-.016-.256-.071-.555-.2s-.521-.269-.531-.255" transform="translate(-361.13 -171.642)" fill="#eb996e"/>
            <path id="Path_35774" data-name="Path 35774" d="M484.083,243.579a2.411,2.411,0,0,0,1.325-.559L488.986,240l-.032,3.487-.709.051.2,2.591H499.52l0-.061a3.925,3.925,0,0,0,1.249-2.409c.269-1.725.37-4.538.61-6.525.169-1.4-.139-3.21-1.383-3.871l-.963-.379-3.027-1.192-3.887.179-2.6.728a4.737,4.737,0,0,0-1.783,1.772l-2.163,3.01a35.953,35.953,0,0,1,.978-3.591l-2.648-1.09s-2.729,6.064-2.361,8.683a2.59,2.59,0,0,0,2.533,2.2" transform="translate(-352.364 -169.543)" fill="url(#linear-gradient-2)"/>
            <path id="Path_35775" data-name="Path 35775" d="M519.944,193.407a2.662,2.662,0,0,1,.731,2.632c0,.007,0,.013-.006.02a9.112,9.112,0,0,1-1.614,3.153c-.065.082-.168.173-.262.125a.23.23,0,0,1-.093-.188,7.619,7.619,0,0,1,.1-1.854,4.611,4.611,0,0,0-.054-1.847,1.8,1.8,0,0,0-1.222-1.289,1.969,1.969,0,0,0-1.325.237c-.407.211-.768.5-1.157.741a2.532,2.532,0,0,1-1.282.447,1.2,1.2,0,0,1-1.123-.649.8.8,0,0,1,.509-1.083.845.845,0,0,1-.654-.863s.026-.7,1.039-.651a.8.8,0,0,1,1.153-.669,2.958,2.958,0,0,0,2.475.292s1.941-.471,2.535,1.2Z" transform="translate(-375.03 -140.2)" fill="#263238"/>
            <path id="Path_35776" data-name="Path 35776" d="M521.6,198.65l-.9,6.9a2.07,2.07,0,1,1-4.1-.537c.068-.519.124-.952.127-1.006a2.11,2.11,0,0,1-1.636-2.149c.048-.848.289-2.587.525-4.157a3.274,3.274,0,0,1,3.464-2.777l.169.012c1.817.233,2.634,1.906,2.352,3.715" transform="translate(-376.932 -142.635)" fill="#ffbe9d"/>
            <path id="Path_35777" data-name="Path 35777" d="M521.1,227.371a4.088,4.088,0,0,0,2.331-.492,2.166,2.166,0,0,1-2.366.946Z" transform="translate(-381.305 -166.026)" fill="#eb996e"/>
            <path id="Path_35778" data-name="Path 35778" d="M517.879,209.54c.029.035.228-.093.5-.073s.458.168.489.137c.016-.014-.012-.075-.094-.143a.688.688,0,0,0-.389-.15.661.661,0,0,0-.4.1c-.087.058-.119.115-.105.131" transform="translate(-378.972 -153.168)" fill="#263238"/>
            <path id="Path_35779" data-name="Path 35779" d="M527.561,210.1c.029.035.229-.093.5-.073s.457.168.489.137c.015-.014-.012-.075-.094-.143a.688.688,0,0,0-.389-.15.66.66,0,0,0-.4.1c-.087.058-.119.115-.105.131" transform="translate(-386.057 -153.576)" fill="#263238"/>
            <path id="Path_35780" data-name="Path 35780" d="M522.11,210.569a1.777,1.777,0,0,0-.432-.109c-.068-.012-.132-.03-.141-.078a.349.349,0,0,1,.06-.2l.24-.51a9.018,9.018,0,0,0,.551-1.339,9.039,9.039,0,0,0-.658,1.291l-.231.514a.4.4,0,0,0-.054.268.174.174,0,0,0,.106.108.469.469,0,0,0,.116.024,1.762,1.762,0,0,0,.444.031" transform="translate(-381.577 -152.453)" fill="#263238"/>
            <path id="Path_35781" data-name="Path 35781" d="M524.378,217.57c-.044-.006-.064.287-.329.477s-.574.137-.579.177c-.005.018.065.062.2.074a.729.729,0,0,0,.482-.131.637.637,0,0,0,.257-.4c.02-.122-.008-.2-.028-.2" transform="translate(-383.065 -159.213)" fill="#263238"/>
            <path id="Path_35782" data-name="Path 35782" d="M528.118,205.058c.021.075.293.059.606.119s.563.164.61.1c.021-.03-.019-.1-.117-.18a1.073,1.073,0,0,0-.926-.167c-.119.039-.182.092-.173.128" transform="translate(-386.466 -149.934)" fill="#263238"/>
            <path id="Path_35783" data-name="Path 35783" d="M518.874,205.045c.043.064.233.014.456.026s.41.069.457.009c.021-.03,0-.093-.083-.157a.662.662,0,0,0-.736-.028c-.083.057-.113.119-.095.15" transform="translate(-379.698 -149.866)" fill="#263238"/>
            <path id="Path_35784" data-name="Path 35784" d="M538,213.558c.031-.011,1.229-.273,1.108.923a.9.9,0,0,1-1.3.793c0-.035.187-1.716.187-1.716" transform="translate(-393.559 -156.254)" fill="#ffbe9d"/>
            <path id="Path_35785" data-name="Path 35785" d="M539.339,215.969c.006,0,.019.017.053.036a.209.209,0,0,0,.155.019.518.518,0,0,0,.285-.438.694.694,0,0,0-.028-.3.242.242,0,0,0-.141-.176.107.107,0,0,0-.129.045c-.019.032-.014.056-.021.058s-.024-.023-.009-.071a.133.133,0,0,1,.055-.07.158.158,0,0,1,.118-.019.294.294,0,0,1,.2.207.712.712,0,0,1,.039.341.544.544,0,0,1-.356.486.225.225,0,0,1-.187-.051c-.034-.033-.038-.061-.033-.062" transform="translate(-394.677 -157.365)" fill="#eb996e"/>
            <path id="Path_35786" data-name="Path 35786" d="M515.773,196.478a2.539,2.539,0,0,0,2.285-.351c.451-.332.816-.83,1.362-.957a1.427,1.427,0,0,1,1.079.224,2.759,2.759,0,0,1,.773.816,4.766,4.766,0,0,0-.075,2.819.478.478,0,0,0,.12.286.382.382,0,0,0,.485-.072,1.484,1.484,0,0,0,.379-.759,4.941,4.941,0,0,0,.123-1.945,3.368,3.368,0,0,0-.806-1.758,3.187,3.187,0,0,0-2.173-1,3.915,3.915,0,0,0-2.321.653,2.3,2.3,0,0,0-.795.8" transform="translate(-377.433 -141.803)" fill="#263238"/>
            <path id="Path_35787" data-name="Path 35787" d="M531.093,213.8a.033.033,0,1,0-.02-.039.031.031,0,0,0,.02.039" transform="translate(-388.628 -156.408)" fill="#eb996e"/>
            <path id="Path_35788" data-name="Path 35788" d="M529.206,213.207a.038.038,0,0,0,.02-.072.038.038,0,0,0-.02.072" transform="translate(-387.248 -155.967)" fill="#eb996e"/>
            <path id="Path_35789" data-name="Path 35789" d="M527.913,213.023c.016,0,.034-.016.039-.042s0-.05-.02-.053-.034.016-.039.042,0,.05.02.054" transform="translate(-386.301 -155.816)" fill="#eb996e"/>
            <path id="Path_35790" data-name="Path 35790" d="M530.046,215.01c.016,0,.03-.006.031-.017s-.012-.02-.028-.021-.03.006-.031.017.012.02.028.021" transform="translate(-387.857 -157.312)" fill="#eb996e"/>
            <path id="Path_35791" data-name="Path 35791" d="M528.325,214.4a.032.032,0,0,0,.035-.029.03.03,0,1,0-.035.029" transform="translate(-386.6 -156.845)" fill="#eb996e"/>
            <path id="Path_35792" data-name="Path 35792" d="M519.249,212.678a.034.034,0,1,0-.02-.04.032.032,0,0,0,.02.04" transform="translate(-379.961 -155.586)" fill="#eb996e"/>
            <path id="Path_35793" data-name="Path 35793" d="M517.942,212.445a.039.039,0,1,0-.023-.042.034.034,0,0,0,.023.042" transform="translate(-379.003 -155.409)" fill="#eb996e"/>
            <path id="Path_35794" data-name="Path 35794" d="M520.4,212.829a.026.026,0,1,0-.022-.033.028.028,0,0,0,.022.033" transform="translate(-380.8 -155.707)" fill="#eb996e"/>
            <path id="Path_35795" data-name="Path 35795" d="M519.36,214.036a.035.035,0,1,0-.01-.044.032.032,0,0,0,.01.044" transform="translate(-380.046 -156.581)" fill="#eb996e"/>
            <path id="Path_35796" data-name="Path 35796" d="M518.2,213.775a.025.025,0,1,0-.01-.049.025.025,0,1,0,.01.049" transform="translate(-379.186 -156.4)" fill="#eb996e"/>
            <path id="Path_35797" data-name="Path 35797" d="M516.611,196.525a1.078,1.078,0,0,1-.429.428,1.8,1.8,0,0,1-2.574-.667,1.074,1.074,0,0,1-.168-.582,5.662,5.662,0,0,0,.253.532,1.788,1.788,0,0,0,2.439.632,5.739,5.739,0,0,0,.48-.343" transform="translate(-375.722 -143.212)" fill="#455a64"/>
            <path id="Path_35798" data-name="Path 35798" d="M525.344,196.838a1.451,1.451,0,0,0-.533-.608,1.694,1.694,0,0,0-.838-.244,4.213,4.213,0,0,0-1.089.129,8.253,8.253,0,0,1-1.107.2,2.217,2.217,0,0,1-.924-.1,1.412,1.412,0,0,1-.538-.321c-.105-.106-.143-.18-.137-.184a1.823,1.823,0,0,0,.705.411,2.255,2.255,0,0,0,.882.064,9.6,9.6,0,0,0,1.089-.212,4.044,4.044,0,0,1,1.126-.121,1.723,1.723,0,0,1,.885.289,1.209,1.209,0,0,1,.416.47.449.449,0,0,1,.063.221" transform="translate(-380.656 -143.22)" fill="#455a64"/>
            <path id="Path_35799" data-name="Path 35799" d="M537.683,203.452a1.3,1.3,0,0,1-1.414-.682,2.539,2.539,0,0,0,1.414.682" transform="translate(-392.428 -148.382)" fill="#455a64"/>
            <path id="Path_35800" data-name="Path 35800" d="M537.416,205.625c0,.018-.1.012-.257-.019a1.854,1.854,0,0,1-.585-.219,1.042,1.042,0,0,1-.425-.471c-.063-.155-.05-.261-.034-.262s.044.091.122.217a1.24,1.24,0,0,0,.41.4,3.235,3.235,0,0,0,.54.244c.145.055.235.095.23.114" transform="translate(-392.309 -149.762)" fill="#455a64"/>
            <path id="Path_35801" data-name="Path 35801" d="M509.3,254.132c-.015,0-.028-1.768-.028-3.949s.013-3.95.028-3.95.028,1.768.028,3.95-.012,3.949-.028,3.949" transform="translate(-372.674 -180.189)" fill="#263238"/>
            <path id="Path_35802" data-name="Path 35802" d="M543.013,240.489a4.617,4.617,0,0,0-.527-.01,2.41,2.41,0,0,0-2.015,1.334,4.565,4.565,0,0,0-.2.489.594.594,0,0,1,.027-.14,2.137,2.137,0,0,1,.134-.366,2.349,2.349,0,0,1,2.049-1.356,2.114,2.114,0,0,1,.389.02.586.586,0,0,1,.139.03" transform="translate(-395.362 -175.947)" fill="#263238"/>
            <path id="Path_35803" data-name="Path 35803" d="M495.006,251.47a1.152,1.152,0,0,1-.011.166,4.455,4.455,0,0,0-.012.452c0,.383.083.907.111,1.495a2.918,2.918,0,0,1-.276,1.47,1.54,1.54,0,0,1-.269.37.92.92,0,0,1-.127.109,2.113,2.113,0,0,0,.361-.5,3.018,3.018,0,0,0,.255-1.45c-.027-.582-.1-1.11-.094-1.5a3.3,3.3,0,0,1,.03-.455c.006-.053.016-.094.021-.122a.124.124,0,0,1,.012-.042" transform="translate(-361.808 -184.021)" fill="#263238"/>
            <path id="Path_35804" data-name="Path 35804" d="M495.656,275.137l.2,2.255-1.065,0-.942-.015a6.634,6.634,0,0,1-1.081.029c-.03,0-.048-.007-.05-.011a.869.869,0,0,1-.164-.04h0v0c-.1-.035-.2-.1-.18-.2.047-.323.239-.349.239-.349l.1-.007.008-.028c-.146,0-.269,0-.334-.011-.03,0-.048-.007-.05-.011s-.378-.045-.349-.244c.047-.323.239-.349.239-.349l.311-.021c-.151,0-.279,0-.345-.01-.03,0-.048-.007-.05-.011s-.377-.045-.349-.245c.047-.323.239-.349.239-.349l.257-.017c-.122,0-.223,0-.28-.01-.03,0-.048-.007-.05-.011s-.378-.045-.349-.244c.047-.323.239-.349.239-.349s.594-.042,1-.059c0,0,.463-.417.645-.4.272.029,1.856.613,1.856.613Z" transform="translate(-359.746 -200.814)" fill="#ffbe9d"/>
            <path id="Path_35805" data-name="Path 35805" d="M496.4,282.978a2.135,2.135,0,0,1-.528.051,2.032,2.032,0,0,1-.522-.017,2.127,2.127,0,0,1,.528-.051,2.012,2.012,0,0,1,.522.017" transform="translate(-362.486 -207.062)" fill="#eb996e"/>
            <path id="Path_35806" data-name="Path 35806" d="M495.175,280.607a8.283,8.283,0,0,1-1.5.053,8.28,8.28,0,0,1,1.5-.053" transform="translate(-361.26 -205.33)" fill="#eb996e"/>
            <g id="Group_28267" data-name="Group 28267" transform="translate(132.358 74.61)" opacity="0.78">
              <g id="Group_28266" data-name="Group 28266">
                <g id="Group_28265" data-name="Group 28265" clip-path="url(#clip-path-4)">
                  <path id="Path_35807" data-name="Path 35807" d="M494.975,278.185a8.283,8.283,0,0,1-1.5.053,8.273,8.273,0,0,1,1.5-.053" transform="translate(-493.472 -278.168)" fill="#eb996e"/>
                </g>
              </g>
            </g>
            <path id="Path_35808" data-name="Path 35808" d="M495.6,275.888a1.088,1.088,0,0,0,.239.019l.577.019.577.021a1.1,1.1,0,0,0,.24,0,.978.978,0,0,0-.237-.037c-.147-.015-.351-.03-.577-.037s-.431-.008-.579,0a.983.983,0,0,0-.239.02" transform="translate(-362.672 -201.872)" fill="#eb996e"/>
            <path id="Path_35809" data-name="Path 35809" d="M506.606,257.963a.179.179,0,0,0,.037,0l.108-.005.416-.024,1.529-.094c1.291-.079,3.075-.191,5.045-.291l1.056-.048h.026v-.026c.016-.428.056-.847.087-1.247s.067-.786.1-1.151l.171-1.924c.048-.541.086-.976.113-1.28l.028-.345c0-.037,0-.067.006-.09a.123.123,0,0,0,0-.031.146.146,0,0,0-.005.03l-.011.089-.038.344c-.031.3-.075.738-.129,1.279s-.113,1.195-.183,1.923l-.1,1.151c-.032.4-.072.817-.09,1.252l.026-.027-1.056.047c-1.971.1-3.755.218-5.045.307l-1.528.112-.415.035-.108.011a.185.185,0,0,0-.036.006" transform="translate(-370.724 -183.973)" fill="#263238"/>
          </g>
        </g>
      </g>
    </g>
  </g>
</svg>
