<svg xmlns="http://www.w3.org/2000/svg" xmlns:xlink="http://www.w3.org/1999/xlink" width="241.854" height="241.854" viewBox="0 0 241.854 241.854">
  <defs>
    <filter id="شريط_سفلي" x="0" y="0" width="241.854" height="241.854" filterUnits="userSpaceOnUse">
      <feOffset dy="3" input="SourceAlpha"/>
      <feGaussianBlur stdDeviation="3" result="blur"/>
      <feFlood flood-opacity="0.09"/>
      <feComposite operator="in" in2="blur"/>
      <feComposite in="SourceGraphic"/>
    </filter>
    <clipPath id="clip-path">
      <rect id="Rectangle_20908" data-name="Rectangle 20908" width="71.475" height="50.044" transform="translate(0 0)" fill="#00ac9d"/>
    </clipPath>
  </defs>
  <g id="Component_384_1" data-name="Component 384 – 1" transform="translate(9 6)">
    <g transform="matrix(1, 0, 0, 1, -9, -6)" filter="url(#شريط_سفلي)">
      <g id="شريط_سفلي-2" data-name="شريط سفلي" transform="translate(9 6)" fill="#fff" stroke="rgba(219,219,219,0.69)" stroke-width="0.8">
        <rect width="223.854" height="223.854" rx="29" stroke="none"/>
        <rect x="0.4" y="0.4" width="223.054" height="223.054" rx="28.6" fill="none"/>
      </g>
    </g>
    <g id="Group_28229" data-name="Group 28229" transform="translate(76.262 61.883)">
      <g id="Group_28228" data-name="Group 28228" clip-path="url(#clip-path)">
        <path id="Path_35677" data-name="Path 35677" d="M37.874,47.951c-1.965.972-6.561,2.093-12.405,2.093C8.664,50.044,0,39.542,0,25.707,0,9.159,11.858,0,26.51,0a37.984,37.984,0,0,1,7.442.695,4.528,4.528,0,0,1,3.441,5.583l-1.173,4.55A23.039,23.039,0,0,0,27,9.006c-8.658,0-15.444,5.278-15.444,16.063,0,9.732,5.736,15.844,15.506,15.844.574,0,1.155-.019,1.736-.056A8.715,8.715,0,0,1,37.874,47.951Z" fill="#00ac9d"/>
        <path id="Path_35678" data-name="Path 35678" d="M45.615,48.7,30.048.17a15.933,15.933,0,0,1,15.32,11.556l2.569,8.991c1.7,5.771,3.171,11.264,4.383,17.317h.151c1.228-5.827,2.8-11.592,4.447-17.144L63.079.17a8.39,8.39,0,0,1,7.952,11.063L58.431,48.7Z" fill="#00ac9d"/>
      </g>
    </g>
  </g>
</svg>
