<svg xmlns="http://www.w3.org/2000/svg" xmlns:xlink="http://www.w3.org/1999/xlink" width="241.854" height="241.854" viewBox="0 0 241.854 241.854">
  <defs>
    <filter id="شريط_سفلي" x="0" y="0" width="241.854" height="241.854" filterUnits="userSpaceOnUse">
      <feOffset dy="3" input="SourceAlpha"/>
      <feGaussianBlur stdDeviation="3" result="blur"/>
      <feFlood flood-opacity="0.09"/>
      <feComposite operator="in" in2="blur"/>
      <feComposite in="SourceGraphic"/>
    </filter>
    <clipPath id="clip-path">
      <rect id="Rectangle_20919" data-name="Rectangle 20919" width="141.728" height="72.263" fill="none"/>
    </clipPath>
  </defs>
  <g id="Component_381_1" data-name="Component 381 – 1" transform="translate(9 6)">
    <g transform="matrix(1, 0, 0, 1, -9, -6)" filter="url(#شريط_سفلي)">
      <g id="شريط_سفلي-2" data-name="شريط سفلي" transform="translate(9 6)" fill="#fff" stroke="rgba(219,219,219,0.69)" stroke-width="0.8">
        <rect width="223.854" height="223.854" rx="29" stroke="none"/>
        <rect x="0.4" y="0.4" width="223.054" height="223.054" rx="28.6" fill="none"/>
      </g>
    </g>
    <g id="Group_28255" data-name="Group 28255" transform="translate(-163.864 -2163.401)">
      <g id="Group_28251" data-name="Group 28251" transform="translate(201 2219)">
        <g id="Group_28252" data-name="Group 28252">
          <g id="Group_28245" data-name="Group 28245" transform="translate(76.287 22.668)">
            <g id="Group_28253" data-name="Group 28253">
              <path id="Path_35681" data-name="Path 35681" d="M386.082,150H346.666a8.756,8.756,0,0,1-8.757-8.757V109.164a8.756,8.756,0,0,1,8.757-8.756h39.417a8.757,8.757,0,0,1,8.757,8.756v32.082A8.757,8.757,0,0,1,386.082,150" transform="translate(-337.909 -100.408)" fill="#00ac9d"/>
              <path id="Path_35683" data-name="Path 35683" d="M589.352,177h8.526l-8.72,8.719Z" transform="translate(-532.436 -159.705)" fill="#00ac9d"/>
            </g>
          </g>
          <g id="Group_28247" data-name="Group 28247" transform="translate(0 3.27)">
            <g id="Group_28254" data-name="Group 28254">
              <path id="Path_35685" data-name="Path 35685" d="M57.935,14.483H17.594a8.89,8.89,0,0,0-8.89,8.89V37.749H0l8.7,8.7v9.772a8.89,8.89,0,0,0,8.89,8.89H57.935a8.89,8.89,0,0,0,8.89-8.89V23.373a8.89,8.89,0,0,0-8.89-8.89" transform="translate(0 -14.483)" fill="#151327"/>
            </g>
          </g>
          <g id="Group_28249" data-name="Group 28249">
            <g id="Group_28248" data-name="Group 28248" clip-path="url(#clip-path)">
              <path id="Path_35686" data-name="Path 35686" d="M369.682,38.191a.79.79,0,1,0,.79-.79.79.79,0,0,0-.79.79" transform="translate(-286.222 -28.957)" fill="#455a64"/>
              <path id="Path_35687" data-name="Path 35687" d="M355.674,38.191a.79.79,0,1,0,.79-.79.79.79,0,0,0-.79.79" transform="translate(-275.377 -28.957)" fill="#455a64"/>
              <path id="Path_35688" data-name="Path 35688" d="M341.337,37.8a.79.79,0,1,0,1.08-.289.79.79,0,0,0-1.08.289" transform="translate(-264.195 -28.958)" fill="#455a64"/>
              <path id="Path_35689" data-name="Path 35689" d="M327.012,0a.893.893,0,0,0-.16,0l-.47.013c-.1,0-.219,0-.346.015l-.414.058-.483.07-.54.134a8.744,8.744,0,0,0-2.618,1.141,9.238,9.238,0,0,0-4.243,6.943,9.588,9.588,0,0,0-.026,1.266c.015.214.011.432.042.647l.1.652a9.288,9.288,0,0,0,.88,2.576,9.916,9.916,0,0,0,1.682,2.315,9.728,9.728,0,0,0,2.424,1.742,8.808,8.808,0,0,0,2.955.907,5.833,5.833,0,0,0,.788.067,7.1,7.1,0,0,0,.8.015,9.481,9.481,0,0,0,1.6-.2,9.326,9.326,0,0,0,3.177-1.337l-.1.01,3.236,1.3.192.077-.055-.2-.951-3.459-.016.085a9.283,9.283,0,0,0,1.727-3.953,8.412,8.412,0,0,0,.126-2.025,6.537,6.537,0,0,0-.092-.973l-.074-.473c-.029-.156-.076-.307-.113-.458a9.253,9.253,0,0,0-3.61-5.263A8.858,8.858,0,0,0,330.275.558l-.484-.173-.459-.117-.42-.1c-.135-.026-.265-.04-.387-.058-.245-.031-.459-.073-.648-.083L327.4.007,327.11,0a.433.433,0,0,0-.1,0,.428.428,0,0,0,.1.013L327.4.04l.472.032c.187.014.4.062.642.1a9.2,9.2,0,0,1,7.358,6.825c.035.149.081.3.109.45l.07.465a6.365,6.365,0,0,1,.086.955A8.252,8.252,0,0,1,336,10.851a9.119,9.119,0,0,1-1.7,3.867l-.029.039.013.047.944,3.461.137-.122-3.234-1.3-.051-.02-.046.03a9.131,9.131,0,0,1-3.106,1.306,9.244,9.244,0,0,1-1.56.2,6.889,6.889,0,0,1-.779-.014,5.681,5.681,0,0,1-.771-.065,8.62,8.62,0,0,1-2.89-.884,9.542,9.542,0,0,1-2.374-1.7,9.751,9.751,0,0,1-1.652-2.262,9.123,9.123,0,0,1-.87-2.52l-.1-.639c-.032-.211-.028-.425-.044-.635a9.434,9.434,0,0,1,.02-1.242,9.141,9.141,0,0,1,4.133-6.861A8.8,8.8,0,0,1,324.62.37l.533-.142.478-.079.41-.068c.126-.014.241-.017.344-.025l.467-.034A.912.912,0,0,0,327.012,0" transform="translate(-245.973 0)" fill="#455a64"/>
            </g>
          </g>
        </g>
      </g>
    </g>
  </g>
</svg>
