<svg id="Component_380_1" data-name="Component 380 – 1" xmlns="http://www.w3.org/2000/svg" width="93.397" height="73.703" viewBox="0 0 93.397 73.703">
  <path id="Path_35583" data-name="Path 35583" d="M81.058,27.821l-2.471,2.5v15.6l2.471,2.5,2.471-2.5v-15.6Z" transform="translate(-35.774 -12.665)" fill="#524b48"/>
  <line id="Line_125" data-name="Line 125" y1="2.052" x2="2.052" transform="translate(38.711 16.4)" fill="#124423"/>
  <line id="Line_126" data-name="Line 126" x1="2.052" y1="2.052" transform="translate(49.792 16.386)" fill="#124423"/>
  <path id="Path_35584" data-name="Path 35584" d="M74.539,0,69.166,5.373,63.794,0,57.356.069,60.867,3.58,62.51,5.224l2.057,2.055h-7.6l-4.5,4.6h10.2l-5.29,5.29.069,6.438L60.95,20.1l5.256-5.256,2.961-2.96,2.864,2.864,5.338,5.337,3.511,3.512.068-6.437-5.276-5.276h10.2l-4.5-4.6h-7.6l0,0,2.051-2.051L77.465,3.58,80.977.069Z" transform="translate(-23.882 0)" fill="#015430"/>
  <path id="Path_35585" data-name="Path 35585" d="M69.262,48.371l5.678-.015L72.108,51.22ZM42.479,61.348l-1.419,1.419H35.848L18.591,45.509,5.861,58.239h5.733l7-7L30.116,62.767H3.288L.036,66.821h42.7l2.606-2.606,2.606,2.606H93.413L72.1,45.509l-13.8,13.8,5.7.029L72.1,51.243,83.626,62.767H49.631l-1.419-1.419L66.837,42.723l-5.7-.037-15.8,15.8-15.795-15.8-5.78-.046Z" transform="translate(-0.016 -19.411)" fill="#015430"/>
  <g id="Group_28216" data-name="Group 28216" transform="translate(0 55.538)">
    <g id="Group_28218" data-name="Group 28218">
      <path id="Path_35586" data-name="Path 35586" d="M4.334,114.233H2.953l-.613,1.234a4.277,4.277,0,0,0-.2.467,1.257,1.257,0,0,0-.082.424H1.286v-2.126H0v5.356H1.286v-2.271h.769a1.257,1.257,0,0,0,.082.424,4.276,4.276,0,0,0,.2.467L3,119.589H4.377l-1.321-2.751Z" transform="translate(0 -101.552)" fill="#015430"/>
      <rect id="Rectangle_20895" data-name="Rectangle 20895" width="1.286" height="5.356" transform="translate(5.051 12.681)" fill="#015430"/>
      <path id="Path_35587" data-name="Path 35587" d="M17.125,117.43h-.052a.671.671,0,0,0-.047-.248,2.609,2.609,0,0,0-.168-.326l-1.641-2.623H13.948v5.356h1.286v-3.2h.052a.831.831,0,0,0,.056.249,2.536,2.536,0,0,0,.168.326l1.64,2.622h1.261v-5.356H17.125Z" transform="translate(-6.349 -101.552)" fill="#015430"/>
      <path id="Path_35588" data-name="Path 35588" d="M26.412,117.365h.639v1.217H25.479v-2.9a.542.542,0,0,1,.2-.506,1.461,1.461,0,0,1,.7-.12c.121,0,.266.008.436.022s.346.033.531.056a5.033,5.033,0,0,1,.5.086l.164-1.028a2.351,2.351,0,0,0-.44-.1q-.276-.043-.583-.069c-.2-.017-.39-.026-.557-.026a4.087,4.087,0,0,0-1.14.133,1.434,1.434,0,0,0-.713.446,1.842,1.842,0,0,0-.367.857,7.545,7.545,0,0,0-.1,1.376,8.831,8.831,0,0,0,.09,1.4,1.972,1.972,0,0,0,.319.857,1.178,1.178,0,0,0,.63.428,3.609,3.609,0,0,0,1.015.12,7.612,7.612,0,0,0,1.157-.077,3.759,3.759,0,0,0,.923-.266V116.4h-1.83Z" transform="translate(-10.974 -101.445)" fill="#015430"/>
      <path id="Path_35589" data-name="Path 35589" d="M41.437,114.233H40.056l-.613,1.234a4.276,4.276,0,0,0-.2.467,1.257,1.257,0,0,0-.082.424h-.769v-2.126H37.1v5.356h1.286v-2.271h.769a1.257,1.257,0,0,0,.082.424,4.275,4.275,0,0,0,.2.467l.656,1.38H41.48l-1.321-2.751Z" transform="translate(-16.89 -101.552)" fill="#015430"/>
      <path id="Path_35590" data-name="Path 35590" d="M49.448,116.444H47.661v-2.211H46.375v5.356h1.286V117.4h1.787v2.185h1.278v-5.356H49.448Z" transform="translate(-21.111 -101.552)" fill="#015430"/>
      <path id="Path_35591" data-name="Path 35591" d="M57.14,114.233l-1.494,5.356h1.286l.287-1.029h1.818l.287,1.029h1.287l-1.494-5.356Zm.345,3.377.6-2.168h.078l.6,2.168Z" transform="translate(-25.331 -101.552)" fill="#015430"/>
      <path id="Path_35592" data-name="Path 35592" d="M67.314,114.233H66.028v5.356h3.108v-1.054H67.314Z" transform="translate(-30.057 -101.552)" fill="#015430"/>
      <rect id="Rectangle_20896" data-name="Rectangle 20896" width="1.286" height="5.356" transform="translate(39.744 12.681)" fill="#015430"/>
      <path id="Path_35593" data-name="Path 35593" d="M81.586,114.76a1.343,1.343,0,0,0-.708-.411,4.83,4.83,0,0,0-1.161-.115H77.55v5.356h2.167a4.8,4.8,0,0,0,1.161-.116,1.34,1.34,0,0,0,.708-.411,1.76,1.76,0,0,0,.358-.818,8.628,8.628,0,0,0,0-2.665,1.763,1.763,0,0,0-.358-.819m-.92,3.227a.578.578,0,0,1-.147.458.828.828,0,0,1-.526.125H78.836v-3.317h1.157a.832.832,0,0,1,.526.124.579.579,0,0,1,.147.458Z" transform="translate(-35.302 -101.552)" fill="#015430"/>
      <path id="Path_35594" data-name="Path 35594" d="M94.269,118.176a.367.367,0,0,1-.345.416,3.043,3.043,0,0,1-.561.039h-.976v-4.4H91.1v3.548a3.846,3.846,0,0,0,.1.96,1.142,1.142,0,0,0,.345.591,1.438,1.438,0,0,0,.678.3,7.13,7.13,0,0,0,2.2,0,1.44,1.44,0,0,0,.678-.3,1.172,1.172,0,0,0,.35-.6,3.731,3.731,0,0,0,.1-.956v-3.548H94.269Z" transform="translate(-41.471 -101.552)" fill="#015430"/>
      <path id="Path_35595" data-name="Path 35595" d="M104.6,117.43h-.052a.671.671,0,0,0-.047-.248,2.608,2.608,0,0,0-.168-.326l-1.641-2.623h-1.269v5.356h1.286v-3.2h.052a.831.831,0,0,0,.056.249,2.537,2.537,0,0,0,.168.326l1.64,2.622h1.261v-5.356H104.6Z" transform="translate(-46.168 -101.552)" fill="#015430"/>
      <rect id="Rectangle_20897" data-name="Rectangle 20897" width="1.286" height="5.356" transform="translate(60.975 12.681)" fill="#015430"/>
      <path id="Path_35596" data-name="Path 35596" d="M117.966,118.381h-.078l-1.062-4.148H115.54l1.4,5.356h1.986l1.4-5.356h-1.287Z" transform="translate(-52.596 -101.552)" fill="#015430"/>
      <path id="Path_35597" data-name="Path 35597" d="M128.9,115.287l.164-1.054h-3.506v5.356h3.5v-1.054h-2.21v-1.148h1.891v-.951h-1.891v-1.148Z" transform="translate(-57.155 -101.552)" fill="#015430"/>
      <path id="Path_35598" data-name="Path 35598" d="M137.476,117.451a1.879,1.879,0,0,0,.393-1.324,2.874,2.874,0,0,0-.177-1.11,1.12,1.12,0,0,0-.57-.6,2.466,2.466,0,0,0-1.04-.185h-2.331v5.356h1.286v-1.723h.854l.812,1.723h1.4l-.921-1.92a1.112,1.112,0,0,0,.3-.218m-2.439-2.164h1.01a.626.626,0,0,1,.367.077.34.34,0,0,1,.1.283v.9a.341.341,0,0,1-.1.283.63.63,0,0,1-.367.077h-1.01Z" transform="translate(-60.886 -101.552)" fill="#015430"/>
      <path id="Path_35599" data-name="Path 35599" d="M146.107,116.461a3.336,3.336,0,0,0-1.1-.236l-.794-.06V115.12c.121-.017.232-.028.333-.034s.234-.009.4-.009q.388,0,.729.034t.756.112l.164-1.02a9.012,9.012,0,0,0-.928-.155,8.611,8.611,0,0,0-.954-.051,2.978,2.978,0,0,0-1.11.172,1.085,1.085,0,0,0-.6.565,2.553,2.553,0,0,0-.181,1.054,2.331,2.331,0,0,0,.09.7.972.972,0,0,0,.307.463,1.56,1.56,0,0,0,.579.283,4.794,4.794,0,0,0,.9.145l.8.069v1.037c-.167.023-.312.037-.436.043s-.258.009-.4.009a6.26,6.26,0,0,1-.881-.064,6.637,6.637,0,0,1-.846-.176l-.181,1.054a6.2,6.2,0,0,0,.967.2,8.536,8.536,0,0,0,1.027.06,3.7,3.7,0,0,0,1.239-.172,1.243,1.243,0,0,0,.686-.549,1.965,1.965,0,0,0,.216-.985,1.937,1.937,0,0,0-.186-.913,1.208,1.208,0,0,0-.6-.531" transform="translate(-64.984 -101.445)" fill="#015430"/>
      <rect id="Rectangle_20898" data-name="Rectangle 20898" width="1.286" height="5.356" transform="translate(82.786 12.681)" fill="#015430"/>
      <path id="Path_35600" data-name="Path 35600" d="M155.606,115.287h1.321v4.3h1.286v-4.3h1.321v-1.054h-3.928Z" transform="translate(-70.835 -101.552)" fill="#015430"/>
      <path id="Path_35601" data-name="Path 35601" d="M166.237,114.233l-.9,2.245-.9-2.245H163.1l1.6,3.574v1.783h1.287v-1.783l1.6-3.574Z" transform="translate(-74.247 -101.552)" fill="#015430"/>
      <path id="Path_35602" data-name="Path 35602" d="M6.836,99.333H5.189A4.27,4.27,0,0,0,4.161,96.7a5.645,5.645,0,0,0-2.787-1.5l-.232-.061L.668,96.569l.264.068A3.706,3.706,0,0,1,2.874,97.7a2.824,2.824,0,0,1,.605,1.635H.012v1.4H8.585V93.018H6.836Z" transform="translate(-0.005 -93.017)" fill="#524b48"/>
      <path id="Path_35603" data-name="Path 35603" d="M26.505,95.367a10.717,10.717,0,0,0-1.415.1l-.221.03v1.4l.293-.045a8.251,8.251,0,0,1,1.233-.082,2.33,2.33,0,0,1,1.641.466,1.944,1.944,0,0,1,.439,1.424,5.839,5.839,0,0,1-.039.678H20.248V93.018H18.505v7.712H29.984l.038-.209a10.663,10.663,0,0,0,.185-1.926,3.111,3.111,0,0,0-.873-2.409,4.147,4.147,0,0,0-2.829-.819" transform="translate(-8.424 -93.017)" fill="#524b48"/>
      <path id="Path_35604" data-name="Path 35604" d="M32.978,95.085a.934.934,0,0,0,.659-.251.842.842,0,0,0,0-1.257.96.96,0,0,0-.656-.239.939.939,0,0,0-.652.244.818.818,0,0,0-.289.625.827.827,0,0,0,.287.632.943.943,0,0,0,.654.246" transform="translate(-14.584 -93.163)" fill="#524b48"/>
      <path id="Path_35605" data-name="Path 35605" d="M53.947,96.1h-.874c-.135,0-.573-.013-.573-.174,0-.034,0-.124.326-.124a4.665,4.665,0,0,1,.533.043l.244.03.194-1.181-.273-.025c-.31-.027-.524-.041-.653-.041a2.034,2.034,0,0,0-1.335.4,1.159,1.159,0,0,0-.443.93,1.025,1.025,0,0,0,.01.147l-.2,0h-.255v1.173h3.305Z" transform="translate(-23.053 -93.751)" fill="#524b48"/>
      <path id="Path_35606" data-name="Path 35606" d="M69.957,99.333H68.3V97.862c0-1.677-.943-2.564-2.727-2.564a3.208,3.208,0,0,0-2.309.824,2.565,2.565,0,0,0-.8,1.925,1.468,1.468,0,0,1-.292,1.051,1.122,1.122,0,0,1-.8.235H57.7V93.018H55.946v6.315h-2V93.018H52.2v6.315H49.92a3.435,3.435,0,0,1-2.136-.5,1.821,1.821,0,0,1-.531-1.483,3.42,3.42,0,0,1,.387-1.607l.235-.448-1.965.3-.056.129a4.376,4.376,0,0,0-.345,1.758,2.921,2.921,0,0,0,1,2.409,5.245,5.245,0,0,0,3.273.838H61.37l.611-.007V100.7a1.818,1.818,0,0,0,1.366-.677,3.714,3.714,0,0,0,2.5.7h5.857V93.018H69.957ZM64.541,97.05a1.232,1.232,0,0,1,.94-.356c.512,0,1.1.153,1.1,1.341v1.3h-.743c-1.462,0-1.631-.765-1.631-1.341a1.283,1.283,0,0,1,.334-.941" transform="translate(-20.717 -93.017)" fill="#524b48"/>
      <rect id="Rectangle_20899" data-name="Rectangle 20899" width="1.743" height="7.712" transform="translate(52.424 0)" fill="#524b48"/>
      <path id="Path_35607" data-name="Path 35607" d="M108.446,95.317a.92.92,0,0,0,.652-.249.83.83,0,0,0,.226-.366.818.818,0,0,0,.234.374.923.923,0,0,0,.643.241.906.906,0,0,0,.64-.248.835.835,0,0,0,0-1.235.955.955,0,0,0-1.285,0,.844.844,0,0,0-.231.367.824.824,0,0,0-.227-.367.92.92,0,0,0-.651-.248.9.9,0,0,0-.635.248.826.826,0,0,0-.272.615.838.838,0,0,0,.275.627.911.911,0,0,0,.632.241" transform="translate(-48.954 -93.276)" fill="#524b48"/>
      <path id="Path_35608" data-name="Path 35608" d="M125.423,97.185a3.208,3.208,0,0,0-2.309.824,2.565,2.565,0,0,0-.8,1.925,2.372,2.372,0,0,0,.32,1.287h-1.287a2.672,2.672,0,0,1-.967-.18,2.626,2.626,0,0,0,1.03-2,1.644,1.644,0,0,0-.625-1.33,2.923,2.923,0,0,0-1.888-.546,6.2,6.2,0,0,0-3.387,1.225l-.1.065-.141,1.121.212.059a6.735,6.735,0,0,1,2.1,1.307,9.015,9.015,0,0,1-2.351.277H110.95v-3.6l-.171-.06a7.187,7.187,0,0,0-2.387-.374,3.227,3.227,0,0,0-2.361.842,2.644,2.644,0,0,0-.777,1.957c0,1.2.561,2.634,3.231,2.634h6.655a9.638,9.638,0,0,0,3.737-.67,4.344,4.344,0,0,0,2.314.67h6.958V99.749c0-1.677-.942-2.564-2.727-2.564M124.4,98.938a1.232,1.232,0,0,1,.94-.356c.512,0,1.1.153,1.1,1.341v1.3h-.743c-1.462,0-1.631-.765-1.631-1.341a1.283,1.283,0,0,1,.334-.941m-5.627-.435a1.06,1.06,0,0,1,.714.211.584.584,0,0,1,.2.472,1.314,1.314,0,0,1-.6,1.037,20.262,20.262,0,0,0-1.758-1.267,3.128,3.128,0,0,1,1.441-.453m-11.438.431a1.239,1.239,0,0,1,.941-.352,3.076,3.076,0,0,1,.968.135v2.5h-.611c-1.462,0-1.631-.771-1.631-1.351a1.285,1.285,0,0,1,.333-.935" transform="translate(-47.914 -94.905)" fill="#524b48"/>
      <path id="Path_35609" data-name="Path 35609" d="M160.626,96.186h0a4.145,4.145,0,0,0-2.829-.819,10.7,10.7,0,0,0-1.415.1l-.221.029v1.4l.294-.045a8.321,8.321,0,0,1,1.233-.082,2.332,2.332,0,0,1,1.641.466,1.942,1.942,0,0,1,.439,1.424,5.848,5.848,0,0,1-.039.678H151.54V93.017H149.8v7.713h11.48l.038-.209a10.664,10.664,0,0,0,.185-1.926,3.11,3.11,0,0,0-.873-2.408" transform="translate(-68.19 -93.017)" fill="#524b48"/>
      <path id="Path_35610" data-name="Path 35610" d="M164.269,107.9a.927.927,0,0,0-.652.248.825.825,0,0,0-.289.63.838.838,0,0,0,.287.633,1,1,0,0,0,1.316,0,.845.845,0,0,0,.278-.63.827.827,0,0,0-.278-.625.939.939,0,0,0-.662-.253" transform="translate(-74.35 -99.794)" fill="#524b48"/>
    </g>
  </g>
</svg>
