<svg xmlns="http://www.w3.org/2000/svg" width="19.798" height="19.799" viewBox="0 0 19.798 19.799">
  <g id="Component_131_2" data-name="Component 131 – 2" transform="translate(0.75 0.75)">
    <path id="Path_23981" data-name="Path 23981" d="M1011.414,48.526c.927.66,1.387.99,1.895,1.03a1.832,1.832,0,0,0,.584-.048c.494-.123.9-.524,1.7-1.327s1.208-1.2,1.332-1.7a1.868,1.868,0,0,0,.048-.586c-.041-.507-.371-.969-1.03-1.893l-.57-.8a2.1,2.1,0,0,1-.316-1.594,7.559,7.559,0,0,0,0-2.4,2.1,2.1,0,0,1,.316-1.594l.57-.8c.659-.924.989-1.386,1.03-1.893a1.868,1.868,0,0,0-.048-.586c-.124-.493-.522-.895-1.332-1.7s-1.2-1.2-1.7-1.327a1.83,1.83,0,0,0-.584-.048c-.508.04-.968.37-1.895,1.03l-.8.568a2.123,2.123,0,0,1-1.593.32,7.411,7.411,0,0,0-2.4,0,2.129,2.129,0,0,1-1.593-.32l-.8-.568c-.92-.66-1.387-.99-1.895-1.03a1.83,1.83,0,0,0-.584.049c-.494.123-.893.524-1.7,1.327s-1.206,1.2-1.328,1.7a1.809,1.809,0,0,0-.049.586c.039.507.37.969,1.027,1.893l.57.8a2.132,2.132,0,0,1,.323,1.594,7.06,7.06,0,0,0,0,2.4,2.132,2.132,0,0,1-.323,1.594l-.57.8c-.657.924-.988,1.386-1.027,1.893a1.809,1.809,0,0,0,.049.586c.122.493.523.895,1.328,1.7s1.2,1.2,1.7,1.327a1.83,1.83,0,0,0,.584.048c.508-.04.975-.37,1.895-1.03l.8-.568a2.129,2.129,0,0,1,1.593-.32,7.414,7.414,0,0,0,1.2.1m0-10.07a2.746,2.746,0,1,1-2.746,2.746,2.7,2.7,0,0,1,.158-.915" transform="translate(-998.676 -31.264)" fill="none" stroke="#007589" stroke-linecap="round" stroke-linejoin="round" stroke-width="1.5"/>
  </g>
</svg>
