<svg xmlns="http://www.w3.org/2000/svg" xmlns:xlink="http://www.w3.org/1999/xlink" width="707.82" height="1151" viewBox="0 0 718.82 1151">
  <defs>
    <linearGradient id="linear-gradient" x1="0.5" x2="0.5" y2="1" gradientUnits="objectBoundingBox">
      <stop offset="0" stop-color="#01454f"/>
      <stop offset="0.184" stop-color="#13574f"/>
      <stop offset="0.435" stop-color="#35764f"/>
      <stop offset="0.611" stop-color="#51914f"/>
      <stop offset="0.837" stop-color="#6fad4f"/>
      <stop offset="1" stop-color="#94cc52"/>
    </linearGradient>
    <linearGradient id="linear-gradient-2" x1="0.5" x2="0.5" y2="1" gradientUnits="objectBoundingBox">
      <stop offset="0" stop-color="#5f958f"/>
      <stop offset="1" stop-color="#0f2837"/>
    </linearGradient>
    <clipPath id="clip-path">
      <rect id="Rectangle_21027" data-name="Rectangle 21027" width="496" height="1039" stroke="#707070" stroke-width="5" fill="url(#linear-gradient)"/>
    </clipPath>
  </defs>
  <g id="Component_153_1" data-name="Component 153 – 1" transform="translate(79)">
    <path id="Path_36044" data-name="Path 36044" d="M0,0H499V1151H0Z" fill="#151327"/>
    <g id="Group_24541" data-name="Group 24541" transform="translate(-5241 -2922.349)" style="mix-blend-mode: normal;isolation: isolate">
      <path id="Path_24077" data-name="Path 24077" d="M478.709,199.656c-31.463-29.975-45.933-84.007-89.138-88.216-44.266-4.313-74.017,40.623-108.335,68.977l-.249.2L389.366,289Z" transform="translate(5137.794 3247.698)" fill="#52a39d"/>
      <path id="Path_24078" data-name="Path 24078" d="M503.124,219.6l-89.343,89.342H600.354c-7.548-28.87-32.463-44.646-58.076-60.861C528.574,239.4,514.672,230.6,503.124,219.6Z" transform="translate(5113.377 3227.758)" fill="#0d504e"/>
      <path id="Path_24079" data-name="Path 24079" d="M365.411,304.651,257.034,196.273c-10.8,8.889-22.979,17.007-35.153,25.117-33.649,22.417-67.221,44.784-71.17,83.26Z" transform="translate(5161.748 3232.046)" fill="url(#linear-gradient-2)"/>
      <path id="Path_24080" data-name="Path 24080" d="M150.607,329.068c-5.541,53.986,40.189,98.673,81.73,133.482l132.97-133.482Z" transform="translate(5161.852 3207.628)" fill="#5d9c4f"/>
      <path id="Path_24081" data-name="Path 24081" d="M566.425,481.855c38.959-37.646,47.644-100.318,33.929-152.787H413.781Z" transform="translate(5113.377 3207.628)" fill="#0f2837"/>
      <path id="Path_24082" data-name="Path 24082" d="M383.821,329.068,250.852,462.55c42.954,35.995,85.449,43.26,141.593,47.182h.016Z" transform="translate(5143.335 3207.628)" fill="#5f958f"/>
      <path id="Path_24083" data-name="Path 24083" d="M566.425,481.855,413.781,329.068l8.639,180.665C473.755,513.32,529.808,517.234,566.425,481.855Z" transform="translate(5113.377 3207.628)" fill="#00dfdf"/>
    </g>
    <g id="Mask_Group_11" data-name="Mask Group 11" transform="translate(3 103)" clip-path="url(#clip-path)">
      <path id="Union_3" data-name="Union 3" d="M48.972.682,84.126,35.774,100.575,52.2,121.11,72.694l.043.045H45.08L0,118.709H102.083L49.254,171.438l.684,64.328,35.154-35.09,53.437-53.339,28.675-28.628L196.847,148.3l52.615,52.525,35.154,35.088.688-64.337-52.967-52.868H334.425l-45.09-45.97H213.26L233.844,52.2l16.449-16.427L285.442.682,221,0,167.205,53.7,113.42,0Zm307.007,66,35.152,35.086L407.581,118.2l20.539,20.492.042.045h-76.07l-45.085,45.97H409.089l-52.824,52.731.681,64.326L392.1,266.679l53.441-53.346,28.677-28.625,29.64,29.589,52.616,52.525,35.152,35.089.684-64.335-52.963-52.868H641.432l-45.09-45.97H520.268L540.852,118.2,557.3,101.77,592.45,66.684,528,66l-53.785,53.692-53.788-53.7Zm-42.4,299.56,52.963,52.87H264.448l45.1,45.973h76.074l-20.584,20.537-16.449,16.429-35.154,35.091,64.449.675,53.79-53.686,53.787,53.7,64.451-.684-35.158-35.091L498.3,485.625,477.77,465.131l-.045-.043H553.8l45.083-45.973H496.8l52.824-52.722-.681-64.337-35.158,35.095-53.437,53.342-28.675,28.621-29.648-29.586L349.417,337l-35.154-35.093ZM48.972,510.444l35.154,35.088,16.449,16.429,20.535,20.494.043.043H45.08L0,628.467H102.083L49.254,681.2l.684,64.328,35.154-35.087L138.53,657.1l28.675-28.631,29.642,29.6,52.615,52.524,35.154,35.088.688-64.339-52.967-52.868H334.425l-45.09-45.97H213.26l20.584-20.537,16.449-16.429,35.149-35.088L221,509.761l-53.79,53.7-53.785-53.7Zm307.007,66,35.152,35.086,16.449,16.429,20.539,20.492.042.047h-76.07l-45.085,45.968H409.089L356.265,747.2l.681,64.328L392.1,776.438l53.441-53.348,28.677-28.625,29.64,29.589,52.616,52.525,35.152,35.091.684-64.335-52.963-52.87H641.432L596.342,648.5H520.268l20.584-20.539L557.3,611.529l35.149-35.086L528,575.759l-53.785,53.69-53.788-53.7Zm-42.4,299.563,52.963,52.865H264.448l45.1,45.975h76.074l-20.584,20.537-16.449,16.427L313.434,1046.9l64.449.679,53.79-53.688,53.787,53.694,64.451-.684-35.158-35.091L498.3,995.384,477.77,974.89l-.045-.043H553.8l45.083-45.975H496.8l52.824-52.722-.681-64.335-35.158,35.093-53.437,53.344-28.675,28.619-29.648-29.584-52.608-52.526L314.263,811.67ZM48.972,1020.2l35.154,35.088,16.449,16.429,20.535,20.5.043.042H45.08L0,1138.226H102.083l-52.829,52.729.684,64.33L85.092,1220.2l53.437-53.343,28.675-28.629,29.642,29.593,52.615,52.524,35.154,35.088.688-64.337-52.967-52.869H334.425l-45.09-45.969H213.26l20.584-20.537,16.449-16.429,35.149-35.088L221,1019.521l-53.79,53.694-53.785-53.7Zm307.007,66,35.152,35.086,16.449,16.429,20.539,20.494.042.045h-76.07l-45.085,45.973H409.089l-52.824,52.726.681,64.328L392.1,1286.2l53.441-53.346,28.677-28.621,29.64,29.586,52.616,52.525,35.152,35.091.684-64.337-52.963-52.865H641.432l-45.09-45.973H520.268l20.584-20.539,16.449-16.429L592.45,1086.2,528,1085.523l-53.785,53.687-53.788-53.7Zm-42.4,299.565,52.963,52.863H264.448l45.1,45.975h76.074l-20.584,20.537-16.449,16.429-35.154,35.091,64.449.679,53.79-53.692,53.787,53.7,64.451-.682-35.158-35.091L498.3,1505.142l-20.531-20.494-.045-.043H553.8l45.083-45.975H496.8l52.824-52.722-.681-64.331-35.158,35.091-53.437,53.343-28.675,28.62-29.648-29.584-52.608-52.525-35.154-35.091Zm-264.607,144.2,35.154,35.086,16.449,16.433,20.535,20.494.043.04H45.08L0,1647.986H102.083l-52.829,52.729.684,64.328,35.154-35.086,53.437-53.343,28.675-28.629,29.642,29.593,52.615,52.524,35.154,35.088.688-64.337-52.967-52.868H334.425l-45.09-45.971H213.26l20.584-20.533,16.449-16.433,35.149-35.086-64.447-.68-53.79,53.692-53.785-53.7Zm307.007,66,35.152,35.088,16.449,16.429,20.539,20.494.042.044h-76.07l-45.085,45.975H409.089l-52.824,52.725.681,64.328,35.154-35.088,53.441-53.346,28.677-28.619,29.64,29.584,52.616,52.528,35.152,35.091.684-64.34-52.963-52.863H641.432l-45.09-45.975H520.268l20.584-20.537,16.449-16.429,35.149-35.088L528,1595.28l-53.785,53.687-53.788-53.7Zm-42.4,299.565,52.963,52.865H264.448l45.1,45.973h76.074L365.037,2014.9l-16.449,16.429-35.154,35.091,64.449.679,53.79-53.692,53.787,53.7,64.451-.682-35.158-35.091L498.3,2014.9l-20.531-20.494-.045-.045H553.8l45.083-45.973H496.8l52.824-52.722-.681-64.331-35.158,35.091-53.437,53.341-28.675,28.621L402.025,1918.8l-52.608-52.525-35.154-35.087ZM48.972,2039.72l35.154,35.086,16.449,16.435,20.535,20.493.043.04H45.08L0,2157.747H102.083l-52.829,52.727.684,64.326,35.154-35.086,53.437-53.342,28.675-28.625,29.642,29.59,52.615,52.526,35.154,35.089.688-64.34-52.967-52.865H334.425l-45.09-45.973H213.26l20.584-20.533,16.449-16.435,35.149-35.086L221,2039.042l-53.79,53.69-53.785-53.7Zm307.007,66,35.152,35.088,16.449,16.429,20.539,20.492.042.043h-76.07l-45.085,45.975H409.089l-52.824,52.725.681,64.33,35.154-35.088,53.441-53.348,28.677-28.619,29.64,29.589,52.616,52.525,35.152,35.091.684-64.34-52.963-52.865H641.432l-45.09-45.975H520.268l20.584-20.535,16.449-16.429,35.149-35.088L528,2105.04l-53.785,53.685-53.788-53.693Zm-42.4,299.563,52.963,52.87H264.448l45.1,45.97h76.074l-20.584,20.541-16.449,16.426-35.154,35.094,64.449.675,53.79-53.69,53.787,53.7,64.451-.684-35.158-35.094L498.3,2524.662l-20.531-20.5-.045-.045H553.8l45.083-45.97H496.8l52.824-52.725-.681-64.333-35.158,35.091-53.437,53.343-28.675,28.625-29.648-29.589-52.608-52.525-35.154-35.087Z" transform="translate(641.378 2604.262) rotate(180)" fill="none" stroke="#00ac9d" stroke-width="2" style="mix-blend-mode: color-dodge;isolation: isolate"/>
    </g>
  </g>
</svg>
