<svg id="Component_391_1" data-name="Component 391 – 1" xmlns="http://www.w3.org/2000/svg" xmlns:xlink="http://www.w3.org/1999/xlink" width="122" height="705" viewBox="0 0 122 705">
  <defs>
    <clipPath id="clip-path">
      <rect id="Rectangle_20932" data-name="Rectangle 20932" width="122" height="705" transform="translate(1318 3378)" fill="#fff" stroke="#707070" stroke-width="1"/>
    </clipPath>
  </defs>
  <g id="Mask_Group_9" data-name="Mask Group 9" transform="translate(-1318 -3378)" clip-path="url(#clip-path)">
    <path id="Union_2" data-name="Union 2" d="M13.209.184l9.482,9.468,4.437,4.432,5.539,5.529.012.012H12.16L0,32.028H27.536L13.286,46.255l.185,17.356,9.482-9.467L37.367,39.752,45.1,32.028l8,7.984L67.29,54.184l9.482,9.467.186-17.358L62.67,32.028H90.207l-12.163-12.4H57.524l5.552-5.542,4.437-4.432L76.995.184,59.611,0,45.1,14.488,30.594,0ZM96.021,17.992l9.482,9.466,4.437,4.433,5.54,5.529.011.012H94.972l-12.161,12.4h27.536L96.1,64.062l.184,17.355,9.482-9.466,14.415-14.393,7.735-7.723,8,7.983L150.1,71.99l9.482,9.467.185-17.358L145.482,49.835h27.536l-12.163-12.4h-20.52l5.552-5.541,4.437-4.433,9.481-9.466-17.384-.185L127.915,32.293,113.406,17.805ZM84.584,98.814,98.87,113.079H71.332l12.165,12.4h20.52l-5.552,5.541-4.437,4.433-9.482,9.468,17.384.182,14.509-14.485,14.508,14.487,17.385-.185-9.483-9.468-4.437-4.433-5.538-5.529-.012-.012h20.52l12.161-12.4H134.006l14.249-14.225L148.071,81.5l-9.483,9.469-14.414,14.392-7.735,7.722-8-7.982L94.251,90.925l-9.482-9.468ZM13.209,137.72l9.482,9.467,4.437,4.433,5.539,5.529.012.012H12.16L0,169.563H27.536l-14.25,14.227.185,17.356,9.482-9.467,14.414-14.392,7.735-7.725,8,7.985L67.29,191.72l9.482,9.467.186-17.359L62.67,169.563H90.207l-12.163-12.4H57.524l5.552-5.541,4.437-4.433,9.481-9.467-17.384-.184L45.1,152.023,30.594,137.535Zm82.812,17.807,9.482,9.466,4.437,4.433,5.54,5.529.011.013H94.972l-12.161,12.4h27.536L96.1,201.6l.184,17.356,9.482-9.466,14.415-14.394,7.735-7.723,8,7.983L150.1,209.525l9.482,9.468.185-17.358L145.482,187.37h27.536l-12.163-12.4h-20.52l5.552-5.542,4.437-4.433,9.481-9.466-17.384-.185-14.508,14.486L113.406,155.34ZM84.584,236.351,98.87,250.614H71.332l12.165,12.4h20.52l-5.552,5.541-4.437,4.432-9.482,9.468,17.384.183,14.509-14.485,14.508,14.487,17.385-.185-9.483-9.468-4.437-4.432-5.538-5.529-.012-.012h20.52l12.161-12.4H134.006l14.249-14.225-.184-17.358-9.483,9.468-14.414,14.393-7.735,7.722-8-7.982L94.251,228.46l-9.482-9.468Zm-71.375,38.9,9.482,9.467,4.437,4.433,5.539,5.53.012.011H12.16L0,307.1H27.536l-14.25,14.227.185,17.356,9.482-9.467,14.414-14.392L45.1,307.1l8,7.984L67.29,329.255l9.482,9.467.186-17.358L62.67,307.1H90.207L78.044,294.7H57.524l5.552-5.541,4.437-4.433,9.481-9.467-17.384-.184L45.1,289.559,30.594,275.07Zm82.812,17.807,9.482,9.466,4.437,4.433,5.54,5.529.011.012H94.972l-12.161,12.4h27.536L96.1,339.132l.184,17.356,9.482-9.466,14.415-14.393,7.735-7.722,8,7.982L150.1,347.061l9.482,9.468.185-17.358-14.286-14.263h27.536l-12.163-12.4h-20.52l5.552-5.542,4.437-4.433,9.481-9.466-17.384-.183-14.508,14.485-14.509-14.487ZM84.584,373.887,98.87,388.149H71.332l12.165,12.4h20.52l-5.552,5.541-4.437,4.433L84.545,420l17.384.183,14.509-14.486,14.508,14.487L148.332,420l-9.483-9.468-4.437-4.433-5.538-5.529-.012-.012h20.52l12.161-12.4H134.006l14.249-14.225-.184-17.357-9.483,9.468-14.414,14.392-7.735,7.722-8-7.982L94.251,366l-9.482-9.468Zm-71.375,38.9,9.482,9.466,4.437,4.434,5.539,5.529.012.011H12.16L0,444.635H27.536l-14.25,14.227.185,17.356,9.482-9.466,14.414-14.392,7.735-7.724,8,7.984L67.29,466.791l9.482,9.467.186-17.358L62.67,444.635H90.207l-12.163-12.4H57.524l5.552-5.54,4.437-4.434,9.481-9.466-17.384-.184L45.1,427.094,30.594,412.607ZM96.021,430.6l9.482,9.467,4.437,4.433,5.54,5.529.011.012H94.972l-12.161,12.4h27.536L96.1,476.668l.184,17.356,9.482-9.467,14.415-14.393,7.735-7.722,8,7.982L150.1,484.6l9.482,9.468.185-17.359-14.286-14.263h27.536l-12.163-12.4h-20.52l5.552-5.541,4.437-4.433,9.481-9.467-17.384-.183L127.915,444.9l-14.509-14.487ZM84.584,511.422,98.87,525.685H71.332l12.165,12.4h20.52l-5.552,5.542-4.437,4.433-9.482,9.468,17.384.183,14.509-14.486,14.508,14.487,17.385-.184-9.483-9.468-4.437-4.433-5.538-5.529-.012-.012h20.52l12.161-12.4H134.006l14.249-14.225-.184-17.357-9.483,9.468-14.414,14.392-7.735,7.722-8-7.982-14.19-14.171-9.482-9.467Zm-71.375,38.9,9.482,9.466,4.437,4.434,5.539,5.529.012.011H12.16L0,582.171H27.536L13.286,596.4l.185,17.355,9.482-9.466,14.414-14.392,7.735-7.723,8,7.983L67.29,604.326l9.482,9.467.186-17.359L62.67,582.171H90.207l-12.163-12.4H57.524l5.552-5.54,4.437-4.434,9.481-9.466-17.384-.183L45.1,564.629,30.594,550.142Zm82.812,17.807L105.5,577.6l4.437,4.433,5.54,5.529.011.012H94.972l-12.161,12.4h27.536L96.1,614.2l.184,17.356,9.482-9.467L120.179,607.7l7.735-7.722,8,7.983L150.1,622.132l9.482,9.468.185-17.359-14.286-14.263h27.536l-12.163-12.4h-20.52l5.552-5.541,4.437-4.433,9.481-9.467-17.384-.183-14.508,14.484-14.509-14.487ZM84.584,648.957,98.87,663.222H71.332l12.165,12.4h20.52l-5.552,5.542L94.027,685.6l-9.482,9.469,17.384.182,14.509-14.486,14.508,14.488,17.385-.185-9.483-9.469-4.437-4.432-5.538-5.53-.012-.012h20.52l12.161-12.4H134.006L148.254,649l-.184-17.357-9.483,9.468L124.173,655.5l-7.735,7.723-8-7.983-14.19-14.171L84.769,631.6Z" transform="translate(1491 4082.875) rotate(180)" fill="none" stroke="#00ac9d" stroke-width="1"/>
  </g>
</svg>
