<svg id="Component_391_2" data-name="Component 391 – 2" xmlns="http://www.w3.org/2000/svg" xmlns:xlink="http://www.w3.org/1999/xlink" width="159" height="333" viewBox="0 0 159 333">
  <defs>
    <linearGradient id="linear-gradient" x1="0.5" x2="0.5" y2="1" gradientUnits="objectBoundingBox">
      <stop offset="0" stop-color="#01454f"/>
      <stop offset="0.184" stop-color="#13574f"/>
      <stop offset="0.435" stop-color="#35764f"/>
      <stop offset="0.611" stop-color="#51914f"/>
      <stop offset="0.837" stop-color="#6fad4f"/>
      <stop offset="1" stop-color="#94cc52"/>
    </linearGradient>
    <clipPath id="clip-path">
      <rect id="Rectangle_20932" data-name="Rectangle 20932" width="159" height="333" stroke="#707070" stroke-width="3" fill="url(#linear-gradient)"/>
    </clipPath>
  </defs>
  <g id="Mask_Group_9" data-name="Mask Group 9" clip-path="url(#clip-path)">
    <path id="Union_2" data-name="Union 2" d="M15.7.219,26.968,11.465l5.273,5.265L38.824,23.3l.014.014H14.451L0,38.046H32.724l-16.935,16.9.219,20.617L27.278,64.317l17.13-17.1L53.6,38.046l9.5,9.485L79.969,64.365,91.238,75.611l.221-20.62L74.479,38.046H107.2L92.75,23.313H68.364l6.6-6.583,5.273-5.265L91.5.219,70.843,0,53.6,17.21,36.359,0Zm98.416,21.154,11.269,11.245,5.273,5.266,6.584,6.568.013.014H112.868L98.415,59.2h32.724L114.206,76.1l.218,20.617,11.269-11.245,17.131-17.1,9.193-9.174,9.5,9.483,16.867,16.834,11.269,11.246.219-20.619L172.9,59.2H205.62L191.166,44.465H166.779l6.6-6.582,5.273-5.266,11.267-11.245-20.659-.219L152.017,38.361,134.775,21.151Zm-13.592,96.009L117.5,134.326H84.773L99.23,149.061h24.387l-6.6,6.582-5.273,5.265-11.269,11.247,20.66.216,17.243-17.207,17.242,17.209,20.661-.219-11.27-11.247-5.274-5.265-6.582-6.568-.015-.014h24.386l14.452-14.734H159.257l16.933-16.9-.218-20.62L164.7,108.057l-17.13,17.1-9.192,9.173-9.5-9.482L112.011,108.01,100.741,96.763ZM15.7,163.6l11.269,11.246,5.273,5.265,6.583,6.568.014.014H14.451L0,201.424H32.724l-16.935,16.9.219,20.617L27.278,227.7l17.13-17.1,9.192-9.176,9.5,9.485,16.867,16.834,11.269,11.246.221-20.621L74.479,201.424H107.2L92.75,186.691H68.364l6.6-6.582,5.273-5.265L91.5,163.6l-20.659-.219L53.6,180.588,36.359,163.378Zm98.416,21.153L125.383,196l5.273,5.265,6.584,6.568.013.015H112.868L98.415,222.576h32.724l-16.933,16.9.218,20.617,11.269-11.245,17.131-17.1,9.193-9.174,9.5,9.483,16.867,16.834,11.269,11.247.219-20.619L172.9,222.576H205.62l-14.454-14.733H166.779l6.6-6.583L178.651,196l11.267-11.245-20.659-.219-17.242,17.208-17.243-17.211Zm-13.592,96.01L117.5,297.7H84.773L99.23,312.439h24.387l-6.6,6.582-5.273,5.265-11.269,11.247,20.66.218,17.243-17.207,17.242,17.209,20.661-.219-11.27-11.247-5.274-5.265-6.582-6.568-.015-.014h24.386L191.98,297.7H159.257l16.933-16.9-.218-20.619L164.7,271.434l-17.13,17.1-9.192,9.173-9.5-9.482-16.864-16.835-11.269-11.247ZM15.7,326.976l11.269,11.246,5.273,5.266,6.583,6.569.014.013H14.451L0,364.8H32.724L15.789,381.7l.219,20.618,11.269-11.246,17.13-17.1L53.6,364.8l9.5,9.485,16.867,16.834,11.269,11.246.221-20.62L74.479,364.8H107.2L92.75,350.069H68.364l6.6-6.582,5.273-5.266L91.5,326.976l-20.659-.219L53.6,343.966,36.359,326.755Zm98.416,21.152,11.269,11.245,5.273,5.265,6.584,6.568.013.014H112.868L98.415,385.956h32.724l-16.933,16.9.218,20.617,11.269-11.245,17.131-17.1,9.193-9.173,9.5,9.482,16.867,16.834,11.269,11.247.219-20.62L172.9,385.956H205.62l-14.454-14.734H166.779l6.6-6.583,5.273-5.265,11.267-11.245-20.659-.218-17.242,17.207-17.243-17.209Zm-13.592,96.011L117.5,461.081H84.773L99.23,475.817h24.387l-6.6,6.582-5.273,5.266-11.269,11.247,20.66.217,17.243-17.208,17.242,17.209,20.661-.219-11.27-11.247-5.274-5.266-6.582-6.568-.015-.014h24.386l14.452-14.735H159.257l16.933-16.9-.218-20.618L164.7,434.813l-17.13,17.1-9.192,9.173-9.5-9.482-16.864-16.834-11.269-11.247ZM15.7,490.354,26.968,501.6l5.273,5.267,6.583,6.568.014.013H14.451L0,528.18H32.724l-16.935,16.9.219,20.617,11.269-11.245,17.13-17.1L53.6,528.18l9.5,9.485L79.969,554.5l11.269,11.246.221-20.62L74.479,528.18H107.2L92.75,513.446H68.364l6.6-6.581,5.273-5.267L91.5,490.354l-20.659-.218L53.6,507.344,36.359,490.134Zm98.416,21.152,11.269,11.246,5.273,5.266,6.584,6.568.013.014H112.868L98.415,549.334h32.724l-16.933,16.9.218,20.617L125.693,575.6l17.131-17.1,9.193-9.173,9.5,9.482,16.867,16.835L189.654,586.9l.219-20.621L172.9,549.334H205.62L191.166,534.6H166.779l6.6-6.582,5.273-5.266,11.267-11.246-20.659-.218-17.242,17.207-17.243-17.209Zm-13.592,96.011L117.5,624.46H84.773L99.23,639.194h24.387l-6.6,6.583-5.273,5.265-11.269,11.247,20.66.218L138.379,645.3l17.242,17.209,20.661-.219-11.27-11.247-5.274-5.265-6.582-6.568-.015-.015h24.386L191.98,624.46H159.257l16.933-16.9-.218-20.618L164.7,598.191l-17.13,17.1-9.192,9.173-9.5-9.482-16.864-16.834L100.741,586.9ZM15.7,653.731l11.269,11.245,5.273,5.267,6.583,6.568.014.013H14.451L0,691.559H32.724l-16.935,16.9.219,20.617L27.278,717.83l17.13-17.1,9.192-9.174,9.5,9.483,16.867,16.835,11.269,11.246.221-20.621L74.479,691.559H107.2L92.75,676.825H68.364l6.6-6.581,5.273-5.267L91.5,653.731l-20.659-.218L53.6,670.721,36.359,653.512Zm98.416,21.152,11.269,11.246,5.273,5.266,6.584,6.568.013.014H112.868L98.415,712.711h32.724l-16.933,16.9.218,20.618,11.269-11.246,17.131-17.1,9.193-9.173,9.5,9.483,16.867,16.834,11.269,11.247.219-20.621L172.9,712.711H205.62l-14.454-14.735H166.779l6.6-6.581,5.273-5.266,11.267-11.246-20.659-.218-17.242,17.206-17.243-17.209Zm-13.592,96.01L117.5,787.839H84.773L99.23,802.572h24.387l-6.6,6.583-5.273,5.264-11.269,11.248,20.66.216,17.243-17.208,17.242,17.211,20.661-.219-11.27-11.248-5.274-5.264-6.582-6.569-.015-.014h24.386l14.452-14.733H159.257l16.933-16.9-.218-20.619L164.7,761.568l-17.13,17.1-9.192,9.174-9.5-9.483-16.864-16.834-11.269-11.246Z" transform="translate(205.603 835.667) rotate(180)" fill="none" stroke="#d3d3d3" stroke-width="1"/>
  </g>
</svg>
