<svg xmlns="http://www.w3.org/2000/svg" xmlns:xlink="http://www.w3.org/1999/xlink" width="241.854" height="241.854" viewBox="0 0 241.854 241.854">
  <defs>
    <filter id="شريط_سفلي" x="0" y="0" width="241.854" height="241.854" filterUnits="userSpaceOnUse">
      <feOffset dy="3" input="SourceAlpha"/>
      <feGaussianBlur stdDeviation="3" result="blur"/>
      <feFlood flood-opacity="0.09"/>
      <feComposite operator="in" in2="blur"/>
      <feComposite in="SourceGraphic"/>
    </filter>
    <linearGradient id="linear-gradient" y1="0.5" x2="1" y2="0.5" gradientUnits="objectBoundingBox">
      <stop offset="0" stop-color="#2a9c89"/>
      <stop offset="0.55" stop-color="#60ae65"/>
      <stop offset="1" stop-color="#7fc042"/>
    </linearGradient>
  </defs>
  <g id="Component_387_1" data-name="Component 387 – 1" transform="translate(9 6)">
    <g id="Component_383_1" data-name="Component 383 – 1">
      <g transform="matrix(1, 0, 0, 1, -9, -6)" filter="url(#شريط_سفلي)">
        <g id="شريط_سفلي-2" data-name="شريط سفلي" transform="translate(9 6)" fill="#fff" stroke="rgba(219,219,219,0.69)" stroke-width="0.8">
          <rect width="223.854" height="223.854" rx="29" stroke="none"/>
          <rect x="0.4" y="0.4" width="223.054" height="223.054" rx="28.6" fill="none"/>
        </g>
      </g>
      <g id="وجيه_شعار_رسمه" data-name="وجيه شعار رسمه" transform="translate(3.796 53.533)">
        <g id="Layer_1" data-name="Layer 1" transform="translate(60.113 0.015)">
          <path id="Path_35506" data-name="Path 35506" d="M211.339,326.455v-8.93a19.4,19.4,0,0,0-1.042-6.492,13.651,13.651,0,0,0-7.923-8.338A16.493,16.493,0,0,0,196,301.52a15.472,15.472,0,0,0-6.872,1.51,16.819,16.819,0,0,0-5.362,4.107,18.773,18.773,0,0,0-3.515,6.068,21.391,21.391,0,0,0-1.263,7.331,18.2,18.2,0,0,0,.963,5.821,13.78,13.78,0,0,0,3.1,5.15,15.781,15.781,0,0,0,5.618,3.683,17.841,17.841,0,0,0,3.462,1,20.869,20.869,0,0,0,2.456.327c.8.071,1.643.1,2.517.1h0c4.478,0,9.151,4.469,7.7,8.709a14.142,14.142,0,0,1-7.225,7.685c-2.517,1.007-5.317.972-8.029.919-18.266-.362-36.5-.45-54.764-.539-3.339-.018-6.686-.026-10.025-.044-6.7-.035,35.641-.062,28.945-.1q-8.7-.04-17.418-.1V353.1h-.468c-2.076-.009-4.16-.035-6.236-.044h0l3.145-3.144h0l-5.211-5.211h0L115.44,356.787h0l12.083,12.083h0l5.211-5.211h0l-3.727-3.727h1.546v.026c.989,0,1.97.009,2.959.018l14.495.053,16.685.053c5.741.018-37.549.035-31.807.053l16.12.053,13.364.053c7.216.035,14.406.132,21.623.477a88.738,88.738,0,0,0,12.163-.194c2.95-.265,5.989-.786,8.471-2.411a14.34,14.34,0,0,0,5.5-8.011c1.917-6.386,1.228-17.074,1.228-23.637Zm-6.527,3.383h-7.958a15.414,15.414,0,0,1-4.319-.592,10.105,10.105,0,0,1-3.648-1.881,8.989,8.989,0,0,1-2.517-3.392,12.4,12.4,0,0,1-.919-5.026,11.574,11.574,0,0,1,.839-4.531,10.781,10.781,0,0,1,2.261-3.471,9.642,9.642,0,0,1,3.233-2.226,9.526,9.526,0,0,1,3.727-.751,8.1,8.1,0,0,1,6.828,3.224c1.652,2.155,2.473,5.15,2.473,9.01Z" transform="translate(-115.44 -301.52)" fill="url(#linear-gradient)"/>
        </g>
      </g>
    </g>
  </g>
</svg>
