<svg id="وجيه_شعار_رسمه" data-name="وجيه شعار رسمه" xmlns="http://www.w3.org/2000/svg" xmlns:xlink="http://www.w3.org/1999/xlink" width="122.42" height="51.591" viewBox="0 0 122.42 51.591">
  <defs>
    <linearGradient id="linear-gradient" y1="0.5" x2="1" y2="0.5" gradientUnits="objectBoundingBox">
      <stop offset="0" stop-color="#2a9c89"/>
      <stop offset="0.55" stop-color="#60ae65"/>
      <stop offset="1" stop-color="#7fc042"/>
    </linearGradient>
  </defs>
  <g id="Layer_1" data-name="Layer 1">
    <g id="Group_28186" data-name="Group 28186" transform="translate(4.799 28.352)">
      <g id="Group_28185" data-name="Group 28185">
        <path id="Path_35497" data-name="Path 35497" d="M51.786,362.057h-.381a.725.725,0,0,1-.685-.478l-2.276-6.168h-.039l-2.011,6.142a.736.736,0,0,1-.692.5h-.414a.73.73,0,0,1-.692-.5l-2.327-7.176a.731.731,0,0,1,.692-.957H43a.727.727,0,0,1,.7.524l1.817,6.122h.039l2.062-6.142a.73.73,0,0,1,.692-.5h.465a.739.739,0,0,1,.692.491l2.1,6.148h.039l1.8-6.116a.727.727,0,0,1,.7-.524h0a.734.734,0,0,1,.7.957l-2.314,7.176a.73.73,0,0,1-.7.5Z" transform="translate(-42.233 -348.205)" fill="#00ac9d"/>
        <path id="Path_35498" data-name="Path 35498" d="M64.679,354.826a.558.558,0,0,1,.058-.828,4.088,4.088,0,0,1,1.112-.595,5.578,5.578,0,0,1,1.855-.323,3.665,3.665,0,0,1,2.78.905,3.9,3.9,0,0,1,.84,2.748v3.711c0,.246.013.5.039.763a.714.714,0,0,0,.013.116.559.559,0,0,1-.556.614h-.272a.56.56,0,0,1-.556-.53v-.129c0-.239-.006-.453-.006-.634h-.039a3.258,3.258,0,0,1-2.845,1.513,4.581,4.581,0,0,1-1.248-.168,3.144,3.144,0,0,1-1.015-.485,2.367,2.367,0,0,1-.692-.8,2.253,2.253,0,0,1-.259-1.106,2.4,2.4,0,0,1,.556-1.674,3.3,3.3,0,0,1,1.377-.9,7.006,7.006,0,0,1,1.771-.369c.634-.052,1.215-.071,1.746-.071H69.9v-.259a1.791,1.791,0,0,0-.562-1.435,2.337,2.337,0,0,0-1.577-.485,4.219,4.219,0,0,0-1.377.233,3.43,3.43,0,0,0-.815.407.554.554,0,0,1-.731-.078l-.142-.149Zm3.763,2.961a5.172,5.172,0,0,0-2.2.388,1.321,1.321,0,0,0-.815,1.28,1.259,1.259,0,0,0,.543,1.157,2.518,2.518,0,0,0,1.358.343,2.645,2.645,0,0,0,1.1-.213,2.205,2.205,0,0,0,.782-.569,2.439,2.439,0,0,0,.478-.828,3.443,3.443,0,0,0,.187-1.009h0a.556.556,0,0,0-.556-.556h-.879Z" transform="translate(-49.889 -348.085)" fill="#00ac9d"/>
        <path id="Path_35499" data-name="Path 35499" d="M79.971,364.937a3.193,3.193,0,0,1-.1.763,2.136,2.136,0,0,1-.381.815,2.318,2.318,0,0,1-.782.647,2.734,2.734,0,0,1-1.3.265,3.19,3.19,0,0,1-.5-.039h0a.51.51,0,0,1-.433-.575l.032-.265a.534.534,0,0,1,.588-.459c.065,0,.123.006.187.006a1.268,1.268,0,0,0,.653-.149.956.956,0,0,0,.375-.394,1.918,1.918,0,0,0,.175-.582,4.812,4.812,0,0,0,.045-.7V356.61a.533.533,0,0,1,.53-.53h.375a.533.533,0,0,1,.53.53v8.327Z" transform="translate(-54.333 -349.146)" fill="#00ac9d"/>
        <path id="Path_35500" data-name="Path 35500" d="M88.976,364.029c-.149.369-.3.7-.453,1.009a2.9,2.9,0,0,1-.556.776,2.193,2.193,0,0,1-.776.5,3.063,3.063,0,0,1-1.1.175,5.78,5.78,0,0,1-.653-.039,1.274,1.274,0,0,1-.226-.039.462.462,0,0,1-.349-.524l.052-.343a.488.488,0,0,1,.537-.414h0a4.727,4.727,0,0,0,.556.026,1.29,1.29,0,0,0,1.034-.388,3.306,3.306,0,0,0,.569-1.034h0a4.461,4.461,0,0,0-.065-3.22l-2.657-6.446a.466.466,0,0,1,.433-.647h.666a.462.462,0,0,1,.433.3l2.56,6.478h.039l2.45-6.472a.476.476,0,0,1,.44-.3h1.241v.006l-4.17,10.6Z" transform="translate(-57.299 -348.205)" fill="#00ac9d"/>
        <path id="Path_35501" data-name="Path 35501" d="M101.526,345.364h0v6.407h.039a2.655,2.655,0,0,1,.407-.5,2.715,2.715,0,0,1,.621-.459,3.722,3.722,0,0,1,.8-.33,3.433,3.433,0,0,1,.944-.129,3.746,3.746,0,0,1,1.468.259,2.749,2.749,0,0,1,1.021.718,2.915,2.915,0,0,1,.6,1.118,5.022,5.022,0,0,1,.194,1.429v4.61a.72.72,0,0,1-.718.718h0a.72.72,0,0,1-.718-.718v-4.467a2.781,2.781,0,0,0-.478-1.726,1.769,1.769,0,0,0-1.493-.621,2.782,2.782,0,0,0-1.209.239,2.138,2.138,0,0,0-.828.685,3.091,3.091,0,0,0-.478,1.054,5.446,5.446,0,0,0-.155,1.345v3.485a.72.72,0,0,1-.718.718h0a.72.72,0,0,1-.718-.718V346.7a1.339,1.339,0,0,1,1.442-1.338Z" transform="translate(-62.692 -345.354)" fill="#00ac9d"/>
      </g>
      <circle id="Ellipse_62" data-name="Ellipse 62" cx="0.731" cy="0.731" r="0.731" transform="translate(24.177 4.807)" fill="#00ac9d"/>
    </g>
    <path id="Path_35502" data-name="Path 35502" d="M97.739,371.96a3.024,3.024,0,1,0,2.133.886A2.909,2.909,0,0,0,97.739,371.96Z" transform="translate(-55.988 -326.407)" fill="#151327"/>
    <path id="Path_35503" data-name="Path 35503" d="M109.379,371.96a3.024,3.024,0,1,0,2.133.886A2.91,2.91,0,0,0,109.379,371.96Z" transform="translate(-60.102 -326.407)" fill="#151327"/>
    <path id="Path_35504" data-name="Path 35504" d="M161.759,346.59a3.024,3.024,0,1,0,2.133.886A2.909,2.909,0,0,0,161.759,346.59Z" transform="translate(-78.618 -317.439)" fill="#151327"/>
    <path id="Path_35505" data-name="Path 35505" d="M130.241,321.432a10.861,10.861,0,0,1-1.345-2.593,15.756,15.756,0,0,1-.724-2.825q-.233-1.445-.427-2.89a20.49,20.49,0,0,0-1.015-4.694,11.573,11.573,0,0,0-2.069-3.679,8.92,8.92,0,0,0-3.284-2.4,11.48,11.48,0,0,0-4.6-.853,20.98,20.98,0,0,0-5.282.692c-1.771.459-3.252.866-4.429,1.215.22.873.446,1.687.692,2.431s.472,1.6.692,2.56a18.654,18.654,0,0,1,3.672-1.151,16.833,16.833,0,0,1,3.148-.362q6.168,0,7.157,7.642a21.811,21.811,0,0,0,1.312,4.745,15.044,15.044,0,0,0,2.89,4.61H95a9.225,9.225,0,0,1-3.543-.595,5.852,5.852,0,0,1-2.327-1.649,6.161,6.161,0,0,1-1.248-2.47,12.446,12.446,0,0,1-.362-3.064V304.183H82.27v14.689a6.965,6.965,0,0,1-.821,3.653q-.824,1.348-3.181,1.351H60.282V314.2a14.766,14.766,0,0,0-.853-5.1,11.546,11.546,0,0,0-2.4-3.983,10.746,10.746,0,0,0-3.782-2.567,13.043,13.043,0,0,0-5-.925,12.547,12.547,0,0,0-5.366,1.183,13.238,13.238,0,0,0-4.248,3.213,15.469,15.469,0,0,0-2.8,4.758,16.269,16.269,0,0,0-1.021,5.741,14.344,14.344,0,0,0,.756,4.564A10.767,10.767,0,0,0,38,325.117a12.4,12.4,0,0,0,4.409,2.89,17.511,17.511,0,0,0,6.614,1.118H78.656a15.442,15.442,0,0,0,2.5-.194,7.7,7.7,0,0,0,2.211-.711,6.107,6.107,0,0,0,1.894-1.526,11.092,11.092,0,0,0,1.6-2.625,6.188,6.188,0,0,0,2.9,3.892,10.288,10.288,0,0,0,5.056,1.164h37.743v-5.579a7.954,7.954,0,0,1-2.3-2.133ZM55.02,323.895H48.787a12.009,12.009,0,0,1-3.349-.459,8.051,8.051,0,0,1-2.825-1.48,7.017,7.017,0,0,1-1.972-2.67,9.763,9.763,0,0,1-.724-3.957,9.149,9.149,0,0,1,.659-3.556,8.712,8.712,0,0,1,1.771-2.735,7.664,7.664,0,0,1,2.5-1.746,7.249,7.249,0,0,1,2.89-.595,6.331,6.331,0,0,1,5.418,2.534,11.737,11.737,0,0,1,1.868,7.079v7.577Z" transform="translate(-34.81 -301.5)" fill="#151327"/>
    <path id="Path_35506" data-name="Path 35506" d="M185.631,319.771v-6.536a14.2,14.2,0,0,0-.763-4.752,9.992,9.992,0,0,0-5.8-6.1,12.073,12.073,0,0,0-4.661-.86,11.324,11.324,0,0,0-5.03,1.106,12.31,12.31,0,0,0-3.924,3.006,13.74,13.74,0,0,0-2.573,4.441,15.657,15.657,0,0,0-.924,5.366,13.317,13.317,0,0,0,.7,4.26,10.086,10.086,0,0,0,2.269,3.769,11.551,11.551,0,0,0,4.112,2.7,13.061,13.061,0,0,0,2.534.731,15.275,15.275,0,0,0,1.8.239c.588.052,1.2.071,1.843.071h0c3.278,0,6.7,3.271,5.638,6.375a10.351,10.351,0,0,1-5.288,5.625,14.968,14.968,0,0,1-5.877.672c-13.37-.265-26.714-.33-40.083-.394-2.444-.013-4.894-.019-7.338-.032-4.9-.026,26.087-.045,21.186-.071q-6.371-.029-12.749-.071v-.032h-.343c-1.519-.006-3.045-.026-4.564-.032h0l2.3-2.3h0l-3.814-3.814h0l-8.844,8.844h0l8.844,8.844h0L128.1,347h0l-2.728-2.728H126.5v.019c.724,0,1.442.006,2.166.013l10.609.039,12.213.039c4.2.013-27.483.026-23.281.039l11.8.039,9.782.039c5.282.026,10.545.1,15.826.349a64.947,64.947,0,0,0,8.9-.142,13.371,13.371,0,0,0,6.2-1.765,10.5,10.5,0,0,0,4.028-5.864c1.4-4.674.9-12.5.9-17.3Zm-4.778,2.476h-5.825a11.283,11.283,0,0,1-3.161-.433,7.4,7.4,0,0,1-2.67-1.377,6.579,6.579,0,0,1-1.843-2.483,9.075,9.075,0,0,1-.672-3.679,8.472,8.472,0,0,1,.614-3.317,7.891,7.891,0,0,1,1.655-2.541,7.058,7.058,0,0,1,2.366-1.629,6.973,6.973,0,0,1,2.728-.55,5.929,5.929,0,0,1,5,2.36,10.606,10.606,0,0,1,1.81,6.594Z" transform="translate(-63.312 -301.507)" fill="url(#linear-gradient)"/>
  </g>
</svg>
