<svg xmlns="http://www.w3.org/2000/svg" xmlns:xlink="http://www.w3.org/1999/xlink" width="405.885" height="415.346" viewBox="0 0 405.885 415.346">
  <defs>
    <filter id="شريط_سفلي" x="0" y="0" width="405.885" height="415.346" filterUnits="userSpaceOnUse">
      <feOffset dy="3" input="SourceAlpha"/>
      <feGaussianBlur stdDeviation="3" result="blur"/>
      <feFlood flood-opacity="0.09"/>
      <feComposite operator="in" in2="blur"/>
      <feComposite in="SourceGraphic"/>
    </filter>
    <clipPath id="clip-path">
      <rect id="Rectangle_20111" data-name="Rectangle 20111" width="143.575" height="101.38" fill="none"/>
    </clipPath>
    <clipPath id="clip-path-2">
      <rect id="Rectangle_20112" data-name="Rectangle 20112" width="116.926" height="101.378" fill="none"/>
    </clipPath>
    <clipPath id="clip-path-3">
      <rect id="Rectangle_20264" data-name="Rectangle 20264" width="50.563" height="137.347" fill="none"/>
    </clipPath>
    <clipPath id="clip-path-5">
      <rect id="Rectangle_20266" data-name="Rectangle 20266" width="64.007" height="105.33" fill="none"/>
    </clipPath>
  </defs>
  <g id="Component_398_1" data-name="Component 398 – 1" transform="translate(9 6)">
    <g transform="matrix(1, 0, 0, 1, -9, -6)" filter="url(#شريط_سفلي)">
      <g id="شريط_سفلي-2" data-name="شريط سفلي" transform="translate(9 6)" fill="#fff" stroke="rgba(219,219,219,0.69)" stroke-width="0.8">
        <rect width="387.885" height="397.346" rx="41" stroke="none"/>
        <rect x="0.4" y="0.4" width="387.085" height="396.546" rx="40.6" fill="none"/>
      </g>
    </g>
    <rect id="Rectangle_20886" data-name="Rectangle 20886" width="26.662" height="152.23" rx="7" transform="translate(361.361 122.381)" fill="#02a3ab"/>
    <text id="يساهم_في_زيادة_التوظيف_:_من_خلال_تقليل_الفجوة_بين_السوق_والتعليم_وإضافة_متطلبات_العمل_وعمل_السير_الذاتية_والمقابلات_الوظيفية_وتهيئته" data-name="يساهم في زيادة التوظيف : من خلال تقليل الفجوة بين السوق والتعليم وإضافة متطلبات العمل وعمل السير الذاتية والمقابلات الوظيفية وتهيئته" transform="translate(53 228.39)" fill="#15264c" font-size="16" font-family="ExpoArabic-Medium, Expo Arabic" font-weight="500"><tspan x="12" y="17">من</tspan><tspan y="17" fill="#1d9e89" font-size="20">يساهم في زيادة التوظيف : </tspan><tspan y="17"> </tspan><tspan x="12" y="50">خلال تقليل الفجوة بين السوق والتعليم</tspan><tspan y="50"> </tspan><tspan x="22" y="83">وإضافة متطلبات العمل وعمل السير</tspan><tspan y="83"> </tspan><tspan x="21" y="116">الذاتية والمقابلات الوظيفية وتهيئته</tspan></text>
    <g id="Group_28207" data-name="Group 28207" transform="translate(96 26.428)">
      <path id="Path_25314" data-name="Path 25314" d="M31.106,125.5l-1.955-.169a7.9,7.9,0,0,0-.711-1.722l1.855-2.205-2.712-2.712m2.712,14.9-1.855-2.2a7.9,7.9,0,0,0,.711-1.722l2.873-.248V125.58m-6.646,8.868,2.2,1.855,1.846-1.846m-15.6-4.793a7.879,7.879,0,0,0,.71,1.722l-1.855,2.2L15.4,136.3l2.2-1.855a7.932,7.932,0,0,0,1.722.71l.248,2.874h3.836l.248-2.874m-9.844-14.879-1.127,1.126,1.855,2.2a7.893,7.893,0,0,0-.71,1.722l-2.874.248v3.836l1.729.169m12.692-9.037a7.923,7.923,0,0,0-1.722-.71l-.248-2.874H19.572l-.248,2.874a7.933,7.933,0,0,0-1.722.71l-2.2-1.855-.862.862m3.892,4.7a4.459,4.459,0,0,1,7.17,1.5m-5.647,5.919a4.459,4.459,0,0,1-2.918-4.184m8.915,0a4.457,4.457,0,0,1-4.457,4.457" transform="translate(-8.936 -61.926)" fill="none" stroke="#263238" stroke-linecap="round" stroke-linejoin="round" stroke-width="1"/>
      <path id="Path_25315" data-name="Path 25315" d="M366.215,20.247l-3.1-.268a12.512,12.512,0,0,0-1.128-2.732l2.944-3.5-4.3-4.3m4.3,23.64-2.944-3.5a12.512,12.512,0,0,0,1.128-2.732l4.56-.393V20.372M357.125,34.445l3.5,2.943,2.93-2.93m-12.147,5.674H354l.393-4.56M338.771,11.961l-1.788,1.787,2.944,3.5a12.538,12.538,0,0,0-1.128,2.732l-4.559.393m22.885-7.985a12.564,12.564,0,0,0-2.732-1.128L354,6.7h-6.088l-.392,4.56a12.556,12.556,0,0,0-2.733,1.128l-3.5-2.943-1.368,1.368m6.176,7.464a7.076,7.076,0,0,1,11.378,2.386m.556,2.753a7.074,7.074,0,0,1-7.074,7.073" transform="translate(-170.853 -6.7)" fill="none" stroke="#263238" stroke-linecap="round" stroke-linejoin="round" stroke-width="1"/>
      <path id="Path_25316" data-name="Path 25316" d="M309.716,42.085H301.9V39.206a.493.493,0,0,1,.494-.493h6.829a.493.493,0,0,1,.494.493Z" transform="translate(-154.655 -22.734)" fill="#bfbfbf"/>
      <path id="Path_25317" data-name="Path 25317" d="M309.716,42.085H301.9V39.206a.493.493,0,0,1,.494-.493h6.829a.493.493,0,0,1,.494.493Z" transform="translate(-154.655 -22.734)" fill="none" stroke="#263238" stroke-linecap="round" stroke-linejoin="round" stroke-width="1"/>
      <path id="Path_25318" data-name="Path 25318" d="M328.344,42.085h-7.817V39.206a.493.493,0,0,1,.493-.493h6.83a.494.494,0,0,1,.494.493Z" transform="translate(-163.984 -22.734)" fill="#bfbfbf"/>
      <path id="Path_25319" data-name="Path 25319" d="M328.344,42.085h-7.817V39.206a.493.493,0,0,1,.493-.493h6.83a.494.494,0,0,1,.494.493Z" transform="translate(-163.984 -22.734)" fill="none" stroke="#263238" stroke-linecap="round" stroke-linejoin="round" stroke-width="1"/>
      <path id="Path_25320" data-name="Path 25320" d="M102.412,42.085h-15.9V39.206a.493.493,0,0,1,.494-.493h14.913a.493.493,0,0,1,.494.493Z" transform="translate(-46.778 -22.734)" fill="#bfbfbf"/>
      <path id="Path_25321" data-name="Path 25321" d="M102.412,42.085h-15.9V39.206a.493.493,0,0,1,.494-.493h14.913a.493.493,0,0,1,.494.493Z" transform="translate(-46.778 -22.734)" fill="none" stroke="#263238" stroke-linecap="round" stroke-linejoin="round" stroke-width="1"/>
      <path id="Path_25322" data-name="Path 25322" d="M58.389,140.567V50.627A10.369,10.369,0,0,1,68.758,40.258H200.894a10.369,10.369,0,0,1,10.369,10.369v89.94a10.369,10.369,0,0,1-10.369,10.369H68.758a10.369,10.369,0,0,1-10.369-10.369" transform="translate(-32.693 -23.508)" fill="#bfbfbf"/>
      <path id="Rectangle_20109" data-name="Rectangle 20109" d="M20.774,0H132.1a20.773,20.773,0,0,1,20.773,20.773V89.905A20.773,20.773,0,0,1,132.1,110.678H20.773A20.773,20.773,0,0,1,0,89.905V20.774A20.774,20.774,0,0,1,20.774,0Z" transform="translate(25.696 16.751)" fill="none" stroke="#263238" stroke-linecap="round" stroke-linejoin="round" stroke-width="1"/>
      <path id="Path_25323" data-name="Path 25323" d="M202.4,150.941H69.59a8.872,8.872,0,0,1-8.872-8.872V51.459a8.872,8.872,0,0,1,8.872-8.872H202.4a8.872,8.872,0,0,1,8.872,8.872v90.61a8.872,8.872,0,0,1-8.872,8.872" transform="translate(-33.859 -24.674)" fill="#263238"/>
      <path id="Path_25324" data-name="Path 25324" d="M64.16,142.514a.511.511,0,1,1-.511-.511.511.511,0,0,1,.511.511" transform="translate(-35.071 -74.466)" fill="#fff"/>
      <path id="Path_25325" data-name="Path 25325" d="M64.16,142.514a.511.511,0,1,1-.511-.511A.511.511,0,0,1,64.16,142.514Z" transform="translate(-35.071 -74.466)" fill="none" stroke="#263238" stroke-linecap="round" stroke-linejoin="round" stroke-width="1"/>
      <path id="Path_25326" data-name="Path 25326" d="M64.158,151.361a.977.977,0,1,1-.977-.977.977.977,0,0,1,.977.977" transform="translate(-34.603 -78.664)" fill="#fff"/>
      <path id="Path_25327" data-name="Path 25327" d="M64.158,151.361a.977.977,0,1,1-.977-.977A.977.977,0,0,1,64.158,151.361Z" transform="translate(-34.603 -78.664)" fill="none" stroke="#263238" stroke-linecap="round" stroke-linejoin="round" stroke-width="1"/>
      <path id="Path_25328" data-name="Path 25328" d="M64.159,158.1a.712.712,0,1,1-.712-.712.712.712,0,0,1,.712.712" transform="translate(-34.869 -82.174)" fill="#fff"/>
      <path id="Path_25329" data-name="Path 25329" d="M64.159,158.1a.712.712,0,1,1-.712-.712A.712.712,0,0,1,64.159,158.1Z" transform="translate(-34.869 -82.174)" fill="none" stroke="#263238" stroke-linecap="round" stroke-linejoin="round" stroke-width="1"/>
      <path id="Path_25330" data-name="Path 25330" d="M67.7,146.573V53.952a4.379,4.379,0,0,1,4.379-4.379H206.9a4.379,4.379,0,0,1,4.379,4.379v92.621a4.379,4.379,0,0,1-4.379,4.379H72.084a4.379,4.379,0,0,1-4.38-4.38" transform="translate(-37.358 -28.173)" fill="#fff"/>
      <path id="Rectangle_20110" data-name="Rectangle 20110" d="M8.774,0H134.8a8.773,8.773,0,0,1,8.773,8.773V92.606a8.773,8.773,0,0,1-8.773,8.773H8.773A8.773,8.773,0,0,1,0,92.607V8.774A8.774,8.774,0,0,1,8.774,0Z" transform="translate(30.346 21.4)" fill="none" stroke="#263238" stroke-linecap="round" stroke-linejoin="round" stroke-width="1"/>
      <g id="Group_26960" data-name="Group 26960" transform="translate(30.346 21.4)" opacity="0.3">
        <g id="Group_26959" data-name="Group 26959">
          <g id="Group_26958" data-name="Group 26958" clip-path="url(#clip-path)">
            <path id="Path_25331" data-name="Path 25331" d="M67.7,146.573V53.952a4.379,4.379,0,0,1,4.379-4.379H206.9a4.379,4.379,0,0,1,4.379,4.379v92.621a4.379,4.379,0,0,1-4.379,4.379H72.084a4.379,4.379,0,0,1-4.38-4.38" transform="translate(-67.704 -49.573)" fill="#d9e3e5"/>
          </g>
        </g>
      </g>
      <path id="Path_25332" data-name="Path 25332" d="M211.518,246.735l-1.595-.622-1.594.622" transform="translate(-107.79 -126.61)" fill="none" stroke="#263238" stroke-linecap="round" stroke-linejoin="round" stroke-width="1"/>
      <path id="Path_25333" data-name="Path 25333" d="M211.518,249.164l-1.595-.622-1.594.622" transform="translate(-107.79 -127.826)" fill="none" stroke="#263238" stroke-linecap="round" stroke-linejoin="round" stroke-width="1"/>
      <path id="Path_25334" data-name="Path 25334" d="M209.8,67.407H77.8a1.5,1.5,0,0,1-1.5-1.5V60.171a1.5,1.5,0,0,1,1.5-1.5h132a1.5,1.5,0,0,1,1.5,1.5v5.738a1.5,1.5,0,0,1-1.5,1.5" transform="translate(-41.662 -32.731)" fill="#00758a"/>
      <g id="Group_26963" data-name="Group 26963" transform="translate(30.345 21.401)" opacity="0.4">
        <g id="Group_26962" data-name="Group 26962">
          <g id="Group_26961" data-name="Group 26961" clip-path="url(#clip-path-2)">
            <path id="Path_25335" data-name="Path 25335" d="M130.141,49.574,67.7,112.013V53.952a4.38,4.38,0,0,1,4.378-4.378Z" transform="translate(-67.702 -49.574)" fill="#fff"/>
            <path id="Path_25336" data-name="Path 25336" d="M150.781,49.574,67.7,132.652v-3.339l79.739-79.739Z" transform="translate(-67.702 -49.574)" fill="#fff"/>
            <path id="Path_25337" data-name="Path 25337" d="M199.183,49.574,97.806,150.951H96.762L198.135,49.574Z" transform="translate(-82.257 -49.574)" fill="#fff"/>
          </g>
        </g>
      </g>
      <rect id="Rectangle_20113" data-name="Rectangle 20113" width="10.833" height="5.997" transform="translate(47.088 66.304)" fill="#fff"/>
      <rect id="Rectangle_20114" data-name="Rectangle 20114" width="10.833" height="5.997" transform="translate(47.088 66.304)" fill="none" stroke="#263238" stroke-width="1"/>
      <rect id="Rectangle_20115" data-name="Rectangle 20115" width="17.063" height="5.997" transform="translate(140.094 95.536)" fill="#fff"/>
      <rect id="Rectangle_20116" data-name="Rectangle 20116" width="17.063" height="5.997" transform="translate(140.094 95.536)" fill="none" stroke="#263238" stroke-width="1"/>
      <rect id="Rectangle_20117" data-name="Rectangle 20117" width="10.532" height="5.997" transform="translate(146.625 73.792)" fill="#fff"/>
      <rect id="Rectangle_20118" data-name="Rectangle 20118" width="10.532" height="5.997" transform="translate(146.625 73.792)" fill="none" stroke="#263238" stroke-width="1"/>
      <rect id="Rectangle_20119" data-name="Rectangle 20119" width="10.833" height="5.997" transform="translate(47.088 88.142)" fill="#fff"/>
      <rect id="Rectangle_20120" data-name="Rectangle 20120" width="10.833" height="5.997" transform="translate(47.088 88.142)" fill="none" stroke="#263238" stroke-width="1"/>
      <rect id="Rectangle_20121" data-name="Rectangle 20121" width="8.77" height="5.997" transform="translate(47.088 80.92)" fill="#fff"/>
      <rect id="Rectangle_20122" data-name="Rectangle 20122" width="8.77" height="5.997" transform="translate(47.088 80.92)" fill="none" stroke="#263238" stroke-width="1"/>
      <rect id="Rectangle_20123" data-name="Rectangle 20123" width="5.997" height="5.997" transform="translate(47.088 73.612)" fill="#fff"/>
      <rect id="Rectangle_20124" data-name="Rectangle 20124" width="5.997" height="5.997" transform="translate(47.088 73.612)" fill="none" stroke="#263238" stroke-width="1"/>
      <rect id="Rectangle_20125" data-name="Rectangle 20125" width="5.997" height="5.997" transform="translate(54.742 73.612)" fill="#fff"/>
      <rect id="Rectangle_20126" data-name="Rectangle 20126" width="5.997" height="5.997" transform="translate(54.742 73.612)" fill="none" stroke="#263238" stroke-width="1"/>
      <rect id="Rectangle_20127" data-name="Rectangle 20127" width="5.997" height="5.997" transform="translate(62.395 73.612)" fill="#fff"/>
      <rect id="Rectangle_20128" data-name="Rectangle 20128" width="5.997" height="5.997" transform="translate(62.395 73.612)" fill="none" stroke="#263238" stroke-width="1"/>
      <rect id="Rectangle_20129" data-name="Rectangle 20129" width="5.997" height="5.997" transform="translate(70.049 73.612)" fill="#fff"/>
      <rect id="Rectangle_20130" data-name="Rectangle 20130" width="5.997" height="5.997" transform="translate(70.049 73.612)" fill="none" stroke="#263238" stroke-width="1"/>
      <rect id="Rectangle_20131" data-name="Rectangle 20131" width="5.997" height="5.997" transform="translate(77.703 73.612)" fill="#fff"/>
      <rect id="Rectangle_20132" data-name="Rectangle 20132" width="5.997" height="5.997" transform="translate(77.703 73.612)" fill="none" stroke="#263238" stroke-width="1"/>
      <rect id="Rectangle_20133" data-name="Rectangle 20133" width="5.997" height="5.997" transform="translate(85.357 73.612)" fill="#fff"/>
      <rect id="Rectangle_20134" data-name="Rectangle 20134" width="5.997" height="5.997" transform="translate(85.357 73.612)" fill="none" stroke="#263238" stroke-width="1"/>
      <rect id="Rectangle_20135" data-name="Rectangle 20135" width="5.997" height="5.997" transform="translate(93.011 73.612)" fill="#fff"/>
      <rect id="Rectangle_20136" data-name="Rectangle 20136" width="5.997" height="5.997" transform="translate(93.011 73.612)" fill="none" stroke="#263238" stroke-width="1"/>
      <rect id="Rectangle_20137" data-name="Rectangle 20137" width="5.997" height="5.997" transform="translate(100.665 73.612)" fill="#fff"/>
      <rect id="Rectangle_20138" data-name="Rectangle 20138" width="5.997" height="5.997" transform="translate(100.665 73.612)" fill="none" stroke="#263238" stroke-width="1"/>
      <rect id="Rectangle_20139" data-name="Rectangle 20139" width="5.997" height="5.997" transform="translate(108.318 73.612)" fill="#fff"/>
      <rect id="Rectangle_20140" data-name="Rectangle 20140" width="5.997" height="5.997" transform="translate(108.318 73.612)" fill="none" stroke="#263238" stroke-width="1"/>
      <rect id="Rectangle_20141" data-name="Rectangle 20141" width="5.997" height="5.997" transform="translate(115.972 73.612)" fill="#fff"/>
      <rect id="Rectangle_20142" data-name="Rectangle 20142" width="5.997" height="5.997" transform="translate(115.972 73.612)" fill="none" stroke="#263238" stroke-width="1"/>
      <rect id="Rectangle_20143" data-name="Rectangle 20143" width="5.997" height="5.997" transform="translate(123.626 73.612)" fill="#fff"/>
      <rect id="Rectangle_20144" data-name="Rectangle 20144" width="5.997" height="5.997" transform="translate(123.626 73.612)" fill="none" stroke="#263238" stroke-width="1"/>
      <rect id="Rectangle_20145" data-name="Rectangle 20145" width="5.997" height="5.997" transform="translate(131.28 73.612)" fill="#fff"/>
      <rect id="Rectangle_20146" data-name="Rectangle 20146" width="5.997" height="5.997" transform="translate(131.28 73.612)" fill="none" stroke="#263238" stroke-width="1"/>
      <rect id="Rectangle_20147" data-name="Rectangle 20147" width="5.997" height="5.997" transform="translate(138.934 73.612)" fill="#fff"/>
      <rect id="Rectangle_20148" data-name="Rectangle 20148" width="5.997" height="5.997" transform="translate(138.934 73.612)" fill="none" stroke="#263238" stroke-width="1"/>
      <rect id="Rectangle_20149" data-name="Rectangle 20149" width="5.997" height="5.997" transform="translate(47.088 102.93)" fill="#fff"/>
      <rect id="Rectangle_20150" data-name="Rectangle 20150" width="5.997" height="5.997" transform="translate(47.088 102.93)" fill="none" stroke="#263238" stroke-width="1"/>
      <rect id="Rectangle_20151" data-name="Rectangle 20151" width="5.997" height="5.997" transform="translate(54.742 102.93)" fill="#fff"/>
      <rect id="Rectangle_20152" data-name="Rectangle 20152" width="5.997" height="5.997" transform="translate(54.742 102.93)" fill="none" stroke="#263238" stroke-width="1"/>
      <rect id="Rectangle_20153" data-name="Rectangle 20153" width="5.997" height="5.997" transform="translate(62.395 102.93)" fill="#fff"/>
      <rect id="Rectangle_20154" data-name="Rectangle 20154" width="5.997" height="5.997" transform="translate(62.395 102.93)" fill="none" stroke="#263238" stroke-width="1"/>
      <rect id="Rectangle_20155" data-name="Rectangle 20155" width="7.317" height="5.997" transform="translate(70.049 102.93)" fill="#fff"/>
      <rect id="Rectangle_20156" data-name="Rectangle 20156" width="7.317" height="5.997" transform="translate(70.049 102.93)" fill="none" stroke="#263238" stroke-width="1"/>
      <rect id="Rectangle_20157" data-name="Rectangle 20157" width="5.997" height="5.997" transform="translate(127.944 102.93)" fill="#fff"/>
      <rect id="Rectangle_20158" data-name="Rectangle 20158" width="5.997" height="5.997" transform="translate(127.944 102.93)" fill="none" stroke="#263238" stroke-width="1"/>
      <rect id="Rectangle_20159" data-name="Rectangle 20159" width="5.997" height="5.997" transform="translate(135.598 102.93)" fill="#fff"/>
      <rect id="Rectangle_20160" data-name="Rectangle 20160" width="5.997" height="5.997" transform="translate(135.598 102.93)" fill="none" stroke="#263238" stroke-width="1"/>
      <rect id="Rectangle_20161" data-name="Rectangle 20161" width="5.997" height="5.997" transform="translate(143.265 102.93)" fill="#fff"/>
      <rect id="Rectangle_20162" data-name="Rectangle 20162" width="5.997" height="5.997" transform="translate(143.265 102.93)" fill="none" stroke="#263238" stroke-width="1"/>
      <rect id="Rectangle_20163" data-name="Rectangle 20163" width="9.311" height="5.997" transform="translate(117.133 102.93)" fill="#fff"/>
      <rect id="Rectangle_20164" data-name="Rectangle 20164" width="9.311" height="5.997" transform="translate(117.133 102.93)" fill="none" stroke="#263238" stroke-width="1"/>
      <rect id="Rectangle_20165" data-name="Rectangle 20165" width="5.997" height="5.997" transform="translate(151.16 102.93)" fill="#fff"/>
      <rect id="Rectangle_20166" data-name="Rectangle 20166" width="5.997" height="5.997" transform="translate(151.16 102.93)" fill="none" stroke="#263238" stroke-width="1"/>
      <rect id="Rectangle_20167" data-name="Rectangle 20167" width="5.997" height="5.997" transform="translate(57.559 80.92)" fill="#fff"/>
      <rect id="Rectangle_20168" data-name="Rectangle 20168" width="5.997" height="5.997" transform="translate(57.559 80.92)" fill="none" stroke="#263238" stroke-width="1"/>
      <rect id="Rectangle_20169" data-name="Rectangle 20169" width="5.997" height="5.997" transform="translate(65.213 80.92)" fill="#fff"/>
      <rect id="Rectangle_20170" data-name="Rectangle 20170" width="5.997" height="5.997" transform="translate(65.213 80.92)" fill="none" stroke="#263238" stroke-width="1"/>
      <rect id="Rectangle_20171" data-name="Rectangle 20171" width="5.997" height="5.997" transform="translate(72.867 80.92)" fill="#fff"/>
      <rect id="Rectangle_20172" data-name="Rectangle 20172" width="5.997" height="5.997" transform="translate(72.867 80.92)" fill="none" stroke="#263238" stroke-width="1"/>
      <rect id="Rectangle_20173" data-name="Rectangle 20173" width="5.997" height="5.997" transform="translate(80.52 80.92)" fill="#fff"/>
      <rect id="Rectangle_20174" data-name="Rectangle 20174" width="5.997" height="5.997" transform="translate(80.52 80.92)" fill="none" stroke="#263238" stroke-width="1"/>
      <rect id="Rectangle_20175" data-name="Rectangle 20175" width="5.997" height="5.997" transform="translate(88.174 80.92)" fill="#fff"/>
      <rect id="Rectangle_20176" data-name="Rectangle 20176" width="5.997" height="5.997" transform="translate(88.174 80.92)" fill="none" stroke="#263238" stroke-width="1"/>
      <rect id="Rectangle_20177" data-name="Rectangle 20177" width="5.997" height="5.997" transform="translate(95.828 80.92)" fill="#fff"/>
      <rect id="Rectangle_20178" data-name="Rectangle 20178" width="5.997" height="5.997" transform="translate(95.828 80.92)" fill="none" stroke="#263238" stroke-width="1"/>
      <rect id="Rectangle_20179" data-name="Rectangle 20179" width="5.997" height="5.997" transform="translate(103.482 80.92)" fill="#fff"/>
      <rect id="Rectangle_20180" data-name="Rectangle 20180" width="5.997" height="5.997" transform="translate(103.482 80.92)" fill="none" stroke="#263238" stroke-width="1"/>
      <rect id="Rectangle_20181" data-name="Rectangle 20181" width="5.997" height="5.997" transform="translate(111.136 80.92)" fill="#fff"/>
      <rect id="Rectangle_20182" data-name="Rectangle 20182" width="5.997" height="5.997" transform="translate(111.136 80.92)" fill="none" stroke="#263238" stroke-width="1"/>
      <rect id="Rectangle_20183" data-name="Rectangle 20183" width="5.997" height="5.997" transform="translate(118.79 80.92)" fill="#fff"/>
      <rect id="Rectangle_20184" data-name="Rectangle 20184" width="5.997" height="5.997" transform="translate(118.79 80.92)" fill="none" stroke="#263238" stroke-width="1"/>
      <rect id="Rectangle_20185" data-name="Rectangle 20185" width="5.997" height="5.997" transform="translate(126.443 80.92)" fill="#fff"/>
      <rect id="Rectangle_20186" data-name="Rectangle 20186" width="5.997" height="5.997" transform="translate(126.443 80.92)" fill="none" stroke="#263238" stroke-width="1"/>
      <rect id="Rectangle_20187" data-name="Rectangle 20187" width="5.997" height="5.997" transform="translate(134.097 80.92)" fill="#fff"/>
      <rect id="Rectangle_20188" data-name="Rectangle 20188" width="5.997" height="5.997" transform="translate(134.097 80.92)" fill="none" stroke="#263238" stroke-width="1"/>
      <rect id="Rectangle_20189" data-name="Rectangle 20189" width="5.997" height="5.997" transform="translate(141.751 80.92)" fill="#fff"/>
      <rect id="Rectangle_20190" data-name="Rectangle 20190" width="5.997" height="5.997" transform="translate(141.751 80.92)" fill="none" stroke="#263238" stroke-width="1"/>
      <path id="Path_25338" data-name="Path 25338" d="M313.977,168.817v13.3h-6v-7.309h-1.759v-6Z" transform="translate(-156.821 -87.896)" fill="#fff"/>
      <path id="Path_25339" data-name="Path 25339" d="M313.977,168.817v13.3h-6v-7.309h-1.759v-6Z" transform="translate(-156.821 -87.896)" fill="none" stroke="#263238" stroke-width="1"/>
      <rect id="Rectangle_20191" data-name="Rectangle 20191" width="5.997" height="5.997" transform="translate(59.315 88.228)" fill="#fff"/>
      <rect id="Rectangle_20192" data-name="Rectangle 20192" width="5.997" height="5.997" transform="translate(59.315 88.228)" fill="none" stroke="#263238" stroke-width="1"/>
      <rect id="Rectangle_20193" data-name="Rectangle 20193" width="5.997" height="5.997" transform="translate(66.969 88.228)" fill="#fff"/>
      <rect id="Rectangle_20194" data-name="Rectangle 20194" width="5.997" height="5.997" transform="translate(66.969 88.228)" fill="none" stroke="#263238" stroke-width="1"/>
      <rect id="Rectangle_20195" data-name="Rectangle 20195" width="5.997" height="5.997" transform="translate(74.622 88.228)" fill="#fff"/>
      <rect id="Rectangle_20196" data-name="Rectangle 20196" width="5.997" height="5.997" transform="translate(74.622 88.228)" fill="none" stroke="#263238" stroke-width="1"/>
      <rect id="Rectangle_20197" data-name="Rectangle 20197" width="5.997" height="5.997" transform="translate(82.276 88.228)" fill="#fff"/>
      <rect id="Rectangle_20198" data-name="Rectangle 20198" width="5.997" height="5.997" transform="translate(82.276 88.228)" fill="none" stroke="#263238" stroke-width="1"/>
      <rect id="Rectangle_20199" data-name="Rectangle 20199" width="5.997" height="5.997" transform="translate(89.93 88.228)" fill="#fff"/>
      <rect id="Rectangle_20200" data-name="Rectangle 20200" width="5.997" height="5.997" transform="translate(89.93 88.228)" fill="none" stroke="#263238" stroke-width="1"/>
      <rect id="Rectangle_20201" data-name="Rectangle 20201" width="5.997" height="5.997" transform="translate(97.583 88.228)" fill="#fff"/>
      <rect id="Rectangle_20202" data-name="Rectangle 20202" width="5.997" height="5.997" transform="translate(97.583 88.228)" fill="none" stroke="#263238" stroke-width="1"/>
      <rect id="Rectangle_20203" data-name="Rectangle 20203" width="5.997" height="5.997" transform="translate(105.237 88.228)" fill="#fff"/>
      <rect id="Rectangle_20204" data-name="Rectangle 20204" width="5.997" height="5.997" transform="translate(105.237 88.228)" fill="none" stroke="#263238" stroke-width="1"/>
      <rect id="Rectangle_20205" data-name="Rectangle 20205" width="5.997" height="5.997" transform="translate(112.891 88.228)" fill="#fff"/>
      <rect id="Rectangle_20206" data-name="Rectangle 20206" width="5.997" height="5.997" transform="translate(112.891 88.228)" fill="none" stroke="#263238" stroke-width="1"/>
      <rect id="Rectangle_20207" data-name="Rectangle 20207" width="5.997" height="5.997" transform="translate(120.545 88.228)" fill="#fff"/>
      <rect id="Rectangle_20208" data-name="Rectangle 20208" width="5.997" height="5.997" transform="translate(120.545 88.228)" fill="none" stroke="#263238" stroke-width="1"/>
      <rect id="Rectangle_20209" data-name="Rectangle 20209" width="5.997" height="5.997" transform="translate(128.199 88.228)" fill="#fff"/>
      <rect id="Rectangle_20210" data-name="Rectangle 20210" width="5.997" height="5.997" transform="translate(128.199 88.228)" fill="none" stroke="#263238" stroke-width="1"/>
      <rect id="Rectangle_20211" data-name="Rectangle 20211" width="5.997" height="5.997" transform="translate(135.852 88.228)" fill="#fff"/>
      <rect id="Rectangle_20212" data-name="Rectangle 20212" width="5.997" height="5.997" transform="translate(135.852 88.228)" fill="none" stroke="#263238" stroke-width="1"/>
      <rect id="Rectangle_20213" data-name="Rectangle 20213" width="5.997" height="5.997" transform="translate(143.506 88.228)" fill="#fff"/>
      <rect id="Rectangle_20214" data-name="Rectangle 20214" width="5.997" height="5.997" transform="translate(143.506 88.228)" fill="none" stroke="#263238" stroke-width="1"/>
      <rect id="Rectangle_20215" data-name="Rectangle 20215" width="5.997" height="5.997" transform="translate(56.062 95.536)" fill="#fff"/>
      <rect id="Rectangle_20216" data-name="Rectangle 20216" width="5.997" height="5.997" transform="translate(56.062 95.536)" fill="none" stroke="#263238" stroke-width="1"/>
      <rect id="Rectangle_20217" data-name="Rectangle 20217" width="5.997" height="5.997" transform="translate(63.716 95.536)" fill="#fff"/>
      <rect id="Rectangle_20218" data-name="Rectangle 20218" width="5.997" height="5.997" transform="translate(63.716 95.536)" fill="none" stroke="#263238" stroke-width="1"/>
      <rect id="Rectangle_20219" data-name="Rectangle 20219" width="5.997" height="5.997" transform="translate(71.37 95.536)" fill="#fff"/>
      <rect id="Rectangle_20220" data-name="Rectangle 20220" width="5.997" height="5.997" transform="translate(71.37 95.536)" fill="none" stroke="#263238" stroke-width="1"/>
      <rect id="Rectangle_20221" data-name="Rectangle 20221" width="5.997" height="5.997" transform="translate(79.023 95.536)" fill="#fff"/>
      <rect id="Rectangle_20222" data-name="Rectangle 20222" width="5.997" height="5.997" transform="translate(79.023 95.536)" fill="none" stroke="#263238" stroke-width="1"/>
      <rect id="Rectangle_20223" data-name="Rectangle 20223" width="5.997" height="5.997" transform="translate(86.677 95.536)" fill="#fff"/>
      <rect id="Rectangle_20224" data-name="Rectangle 20224" width="5.997" height="5.997" transform="translate(86.677 95.536)" fill="none" stroke="#263238" stroke-width="1"/>
      <rect id="Rectangle_20225" data-name="Rectangle 20225" width="5.997" height="5.997" transform="translate(101.984 95.536)" fill="#fff"/>
      <rect id="Rectangle_20226" data-name="Rectangle 20226" width="5.997" height="5.997" transform="translate(101.984 95.536)" fill="none" stroke="#263238" stroke-width="1"/>
      <rect id="Rectangle_20227" data-name="Rectangle 20227" width="5.997" height="5.997" transform="translate(109.638 95.536)" fill="#fff"/>
      <rect id="Rectangle_20228" data-name="Rectangle 20228" width="5.997" height="5.997" transform="translate(109.638 95.536)" fill="none" stroke="#263238" stroke-width="1"/>
      <rect id="Rectangle_20229" data-name="Rectangle 20229" width="5.997" height="5.997" transform="translate(117.292 95.536)" fill="#fff"/>
      <rect id="Rectangle_20230" data-name="Rectangle 20230" width="5.997" height="5.997" transform="translate(117.292 95.536)" fill="none" stroke="#263238" stroke-width="1"/>
      <rect id="Rectangle_20231" data-name="Rectangle 20231" width="5.997" height="5.997" transform="translate(124.946 95.536)" fill="#fff"/>
      <rect id="Rectangle_20232" data-name="Rectangle 20232" width="5.997" height="5.997" transform="translate(124.946 95.536)" fill="none" stroke="#263238" stroke-width="1"/>
      <rect id="Rectangle_20233" data-name="Rectangle 20233" width="5.997" height="5.997" transform="translate(132.6 95.536)" fill="#fff"/>
      <rect id="Rectangle_20234" data-name="Rectangle 20234" width="5.997" height="5.997" transform="translate(132.6 95.536)" fill="none" stroke="#263238" stroke-width="1"/>
      <rect id="Rectangle_20235" data-name="Rectangle 20235" width="5.997" height="5.997" transform="translate(59.315 66.666)" fill="#fff"/>
      <rect id="Rectangle_20236" data-name="Rectangle 20236" width="5.997" height="5.997" transform="translate(59.315 66.666)" fill="none" stroke="#263238" stroke-width="1"/>
      <rect id="Rectangle_20237" data-name="Rectangle 20237" width="5.997" height="5.997" transform="translate(66.969 66.666)" fill="#fff"/>
      <rect id="Rectangle_20238" data-name="Rectangle 20238" width="5.997" height="5.997" transform="translate(66.969 66.666)" fill="none" stroke="#263238" stroke-width="1"/>
      <rect id="Rectangle_20239" data-name="Rectangle 20239" width="5.997" height="5.997" transform="translate(74.622 66.666)" fill="#fff"/>
      <rect id="Rectangle_20240" data-name="Rectangle 20240" width="5.997" height="5.997" transform="translate(74.622 66.666)" fill="none" stroke="#263238" stroke-width="1"/>
      <rect id="Rectangle_20241" data-name="Rectangle 20241" width="5.997" height="5.997" transform="translate(82.276 66.666)" fill="#fff"/>
      <rect id="Rectangle_20242" data-name="Rectangle 20242" width="5.997" height="5.997" transform="translate(82.276 66.666)" fill="none" stroke="#263238" stroke-width="1"/>
      <rect id="Rectangle_20243" data-name="Rectangle 20243" width="5.997" height="5.997" transform="translate(89.93 66.666)" fill="#fff"/>
      <rect id="Rectangle_20244" data-name="Rectangle 20244" width="5.997" height="5.997" transform="translate(89.93 66.666)" fill="none" stroke="#263238" stroke-width="1"/>
      <rect id="Rectangle_20245" data-name="Rectangle 20245" width="5.997" height="5.997" transform="translate(97.583 66.666)" fill="#fff"/>
      <rect id="Rectangle_20246" data-name="Rectangle 20246" width="5.997" height="5.997" transform="translate(97.583 66.666)" fill="none" stroke="#263238" stroke-width="1"/>
      <rect id="Rectangle_20247" data-name="Rectangle 20247" width="5.997" height="5.997" transform="translate(105.237 66.666)" fill="#fff"/>
      <rect id="Rectangle_20248" data-name="Rectangle 20248" width="5.997" height="5.997" transform="translate(105.237 66.666)" fill="none" stroke="#263238" stroke-width="1"/>
      <rect id="Rectangle_20249" data-name="Rectangle 20249" width="5.997" height="5.997" transform="translate(112.891 66.666)" fill="#fff"/>
      <rect id="Rectangle_20250" data-name="Rectangle 20250" width="5.997" height="5.997" transform="translate(112.891 66.666)" fill="none" stroke="#263238" stroke-width="1"/>
      <rect id="Rectangle_20251" data-name="Rectangle 20251" width="5.997" height="5.997" transform="translate(120.545 66.666)" fill="#fff"/>
      <rect id="Rectangle_20252" data-name="Rectangle 20252" width="5.997" height="5.997" transform="translate(120.545 66.666)" fill="none" stroke="#263238" stroke-width="1"/>
      <rect id="Rectangle_20253" data-name="Rectangle 20253" width="5.997" height="5.997" transform="translate(128.199 66.666)" fill="#fff"/>
      <rect id="Rectangle_20254" data-name="Rectangle 20254" width="5.997" height="5.997" transform="translate(128.199 66.666)" fill="none" stroke="#263238" stroke-width="1"/>
      <rect id="Rectangle_20255" data-name="Rectangle 20255" width="5.997" height="5.997" transform="translate(135.852 66.666)" fill="#fff"/>
      <rect id="Rectangle_20256" data-name="Rectangle 20256" width="5.997" height="5.997" transform="translate(135.852 66.666)" fill="none" stroke="#263238" stroke-width="1"/>
      <rect id="Rectangle_20257" data-name="Rectangle 20257" width="5.997" height="5.997" transform="translate(143.506 66.666)" fill="#fff"/>
      <rect id="Rectangle_20258" data-name="Rectangle 20258" width="5.997" height="5.997" transform="translate(143.506 66.666)" fill="none" stroke="#263238" stroke-width="1"/>
      <rect id="Rectangle_20259" data-name="Rectangle 20259" width="5.997" height="5.997" transform="translate(151.16 66.666)" fill="#fff"/>
      <rect id="Rectangle_20260" data-name="Rectangle 20260" width="5.997" height="5.997" transform="translate(151.16 66.666)" fill="none" stroke="#263238" stroke-width="1"/>
      <rect id="Rectangle_20261" data-name="Rectangle 20261" width="7.265" height="5.997" transform="translate(47.088 95.536)" fill="#fff"/>
      <rect id="Rectangle_20262" data-name="Rectangle 20262" width="7.265" height="5.997" transform="translate(47.088 95.536)" fill="none" stroke="#263238" stroke-width="1"/>
      <g id="Group_26969" data-name="Group 26969" transform="translate(119.992 67.695)" opacity="0.3">
        <g id="Group_26968" data-name="Group 26968">
          <g id="Group_26967" data-name="Group 26967" clip-path="url(#clip-path-3)">
            <g id="Group_26966" data-name="Group 26966" opacity="0.7">
              <g id="Group_26965" data-name="Group 26965">
                <g id="Group_26964" data-name="Group 26964" clip-path="url(#clip-path-3)">
                  <path id="Path_25340" data-name="Path 25340" d="M258.751,142.327c-3.495-.221-4.42,5.774-4.42,11.769s1.989,9.872,2.642,11.99.613,9.128-.42,11.942-5.415,11.675-8.264,16.847,1.15,20.89,3.4,24.887,14.184,7.761,16.814,12.492,1.433,6.073,3.835,9.583,13.8,15.806,20.079,37.83l5.447-74.754-20.635-22.206Z" transform="translate(-247.301 -142.321)"/>
                </g>
              </g>
            </g>
          </g>
        </g>
      </g>
      <path id="Path_25341" data-name="Path 25341" d="M297.413,281.853l-.089.11c.005,0,.154-.067.418-.176-.129.024-.243.051-.329.065m30.18-37.274c-.381-.634-.744-1.246-1.095-1.842v-.005c-7.132-12.151-8.4-17.362-9.245-20.864a19.534,19.534,0,0,0-1.539-4.606c-.13-.252-.269-.52-.416-.8a27.706,27.706,0,0,1-2.688-6.621c-.43-1.842.173-6.329.759-10.668a64.077,64.077,0,0,0,.778-7.754l-.013-.595c-.1-4.392-.313-13.528-1.225-16.087a4.866,4.866,0,0,0-3.366-3.55q-.243-.1-.515-.228c-.606-.27-1.624-.835-2.8-1.49-2.648-1.467-5.946-3.3-7.637-3.574a15.016,15.016,0,0,0-4.771.081c-2.056-1.667-5.559-3.84-6.621-3.914a18.449,18.449,0,0,0-4.166.813,12.18,12.18,0,0,0-1.909-1.3,11.917,11.917,0,0,0-4.552-.571c-1.75-2.867-3.475-5.73-4.217-6.987-1.332-2.248-4.983-10.418-6.07-12.862-.19-.425-.3-.68-.308-.7a.126.126,0,0,0-.067-.068c-.034-.009-3.231-1.14-4.565,1.825-1.367,3.022.267,9.8,1.971,12.291.825,1.2,3.021,6.067,5.248,11.1a0,0,0,0,1-.006,0c-.164.146-.613.539-1.24,1.062-1.791,1.5-4.988,4.037-6.757,4.607-1.952.633-1.781,10.555-1.645,18.53.051,2.938.1,5.477.018,7-.076,1.419,1.119,3.137,2.944,5a.087.087,0,0,0,.022.022A88.444,88.444,0,0,0,269.081,208c4.588,3.678,9.326,7.484,9.817,10.158a13.874,13.874,0,0,0,3.467,7.167c2.45,2.524,11.228,40.9,13.976,52.967.508,2.239.81,3.567.826,3.6a2.35,2.35,0,0,0,.247-.046c1.751-2.171,30.16-37.1,30.135-37.108a.12.12,0,0,0,.045-.165m-59.487-67.849c.348-.34,2.7-2.689,3.153-5.028a56.912,56.912,0,0,0,2.833,6,5.679,5.679,0,0,1,.159,2.468,20.321,20.321,0,0,0,.022,2.889c-.42.351-3.108,2.661-3.69,4.566l-2.15-2.679Z" transform="translate(-133.089 -73.548)" fill="#fff"/>
      <path id="Path_25342" data-name="Path 25342" d="M282.3,205.795c.737-3.139-3.017-6.273-7.346-14.661-.164.146-.613.539-1.24,1.061.659,1.784,1.139,3.844.23,4.583-1.729,1.41-2.4,1.455-2.323,2.992s2.084,12.44,1.24,14.963,5.013,3.236,5.9,3.741-.04-3.947,2.178-5.82.538-3.359,1.364-6.859m-5.321,7.361-2.149-2.678-.327-8.221c.348-.34,2.7-2.689,3.153-5.028a56.942,56.942,0,0,0,2.833,6,5.676,5.676,0,0,1,.159,2.468,20.326,20.326,0,0,0,.022,2.889c-.42.351-3.108,2.661-3.69,4.566" transform="translate(-139.488 -99.074)" fill="#d9e3e5"/>
      <path id="Path_25343" data-name="Path 25343" d="M299.411,340.158c-2.747-12.068-11.526-50.443-13.976-52.967a13.876,13.876,0,0,1-3.467-7.167c-.491-2.674-5.229-6.48-9.817-10.158a88.552,88.552,0,0,1-7.181-6.179c4.514,3.749,15.572,11.5,17.583,11.546,2.085.056,2.262,8.439,5.641,10.633,3.231,2.1,16.311,38.991,11.216,54.292" transform="translate(-136.159 -135.412)" fill="#d9e3e5"/>
      <path id="Path_25344" data-name="Path 25344" d="M330.141,243.55c-6.124-1.662-11.613-14.136-11.923-17.181-.362-3.573-.3-6.311-4.545-11.089s-1.707-7.376-1.707-7.376c.339,1.6,3.212,4.115,3.212,4.115-1.158-3.6.163-16.673.71-19.111.476-2.15.686-15.388-2.016-19.773-3.141-1.964-2.845,1.365-5.309,1.193-1.331-.1-3.547-1.6-5.609-1.635-1.907-.029-1.92,2.568-7.294.072-2.7-1.257-4.009,2.592-7.1.985-4.656-2.409-7.815-11.284-10.884-13.928-1.438-1.245-4.7-6.744-5.335-10.129-.493-2.619-3.96-.183-5.6-3.021-1.348-2.32-.616-5.665,3.189-4.7,1.087,2.444,4.738,10.614,6.071,12.862.743,1.256,2.467,4.12,4.217,6.987a11.917,11.917,0,0,1,4.552.571,12.153,12.153,0,0,1,1.909,1.3,18.449,18.449,0,0,1,4.166-.813c1.062.073,4.565,2.247,6.621,3.914a15.016,15.016,0,0,1,4.771-.081c1.691.275,4.989,2.107,7.637,3.574,1.178.655,2.2,1.221,2.8,1.49q.272.124.516.228a4.867,4.867,0,0,1,3.366,3.55c.912,2.559,1.123,11.7,1.225,16.087l.014.595a64.074,64.074,0,0,1-.778,7.754c-.586,4.339-1.189,8.826-.758,10.668a27.69,27.69,0,0,0,2.688,6.62c.147.279.286.548.416.8a19.5,19.5,0,0,1,1.539,4.606c.849,3.5,2.113,8.713,9.245,20.864" transform="translate(-136.731 -74.365)" fill="#d9e3e5"/>
      <path id="Path_25345" data-name="Path 25345" d="M286.834,171.177a7.6,7.6,0,0,1-3.681-2.738c-1.467-2.088-7.2-11.571-8.784-14.247s-6.381-13.574-6.381-13.574-3.11-1.141-4.417,1.759.179,9.571,1.965,12.178,10.074,22.525,10.759,23.181-.52,5.868.851,7.176" transform="translate(-135.209 -73.662)" fill="none" stroke="#263238" stroke-linecap="round" stroke-linejoin="round" stroke-width="1"/>
      <path id="Path_25346" data-name="Path 25346" d="M283.574,214.324s-3.322,2.73-3.761,4.779l-2.324-2.9-.331-8.314s2.984-2.823,3.218-5.406" transform="translate(-142.263 -104.759)" fill="none" stroke="#263238" stroke-linecap="round" stroke-linejoin="round" stroke-width="1"/>
      <path id="Path_25347" data-name="Path 25347" d="M268.83,191.188s-5.526,4.923-8.111,5.757-1.263,19.909-1.548,25.415,18.929,15.657,19.964,21.332a13.7,13.7,0,0,0,3.439,7.1c2.947,3.042,14.822,56.61,14.822,56.61" transform="translate(-133.209 -99.101)" fill="none" stroke="#263238" stroke-linecap="round" stroke-linejoin="round" stroke-width="1"/>
      <path id="Path_25348" data-name="Path 25348" d="M294.231,182.137a12.362,12.362,0,0,1,4.567.553c1.631.732,8.171,6.683,9.752,7.83s4.006,1.631,4.434,2.83" transform="translate(-150.814 -94.558)" fill="none" stroke="#263238" stroke-linecap="round" stroke-linejoin="round" stroke-width="1"/>
      <path id="Path_25349" data-name="Path 25349" d="M307.259,185.093a19.407,19.407,0,0,1,4.181-.827c1.137.083,5.4,2.764,7.287,4.521A16.5,16.5,0,0,0,323.688,192" transform="translate(-157.339 -95.631)" fill="none" stroke="#263238" stroke-linecap="round" stroke-linejoin="round" stroke-width="1"/>
      <path id="Path_25350" data-name="Path 25350" d="M328.851,191.881a14.735,14.735,0,0,1,4.786-.093c2.435.4,8.473,4.187,10.406,5.058s2.866,1.048,3.817,3.711S349,213.24,349.094,217.2s-2.29,15.231-1.532,18.444a31.26,31.26,0,0,0,3.111,7.446c2.6,5.1.2,7.858,11.881,27.328" transform="translate(-168.153 -99.323)" fill="none" stroke="#263238" stroke-linecap="round" stroke-linejoin="round" stroke-width="1"/>
      <path id="Path_25351" data-name="Path 25351" d="M336.31,206.888c2.186,2.462,1.229,6.553.735,7.735s.437,6.259.588,8.953" transform="translate(-171.889 -106.964)" fill="none" stroke="#263238" stroke-linecap="round" stroke-linejoin="round" stroke-width="1"/>
      <path id="Path_25352" data-name="Path 25352" d="M304.675,207.269c4.418.63,5.466,3.814,5.509,5.826" transform="translate(-156.045 -107.155)" fill="none" stroke="#263238" stroke-linecap="round" stroke-linejoin="round" stroke-width="1"/>
      <path id="Path_25353" data-name="Path 25353" d="M343.483,202.971c1.33.065,4.468,2.547,4.717,6.016" transform="translate(-175.482 -105.002)" fill="none" stroke="#263238" stroke-linecap="round" stroke-linejoin="round" stroke-width="1"/>
      <path id="Path_25354" data-name="Path 25354" d="M276.087,211.077s-.431-1.963-1.067-2.231" transform="translate(-141.192 -107.945)" fill="none" stroke="#263238" stroke-linecap="round" stroke-linejoin="round" stroke-width="1"/>
      <path id="Path_25355" data-name="Path 25355" d="M277.821,229.971a24.869,24.869,0,0,0,.816,3.385,4.557,4.557,0,0,1-.35,2.894" transform="translate(-142.595 -118.525)" fill="none" stroke="#263238" stroke-linecap="round" stroke-linejoin="round" stroke-width="1"/>
      <path id="Path_25356" data-name="Path 25356" d="M282.47,235.778c-.134,1.894,1.692,4.166,2.159,3.866" transform="translate(-144.92 -121.434)" fill="none" stroke="#263238" stroke-linecap="round" stroke-linejoin="round" stroke-width="1"/>
      <g id="Group_26975" data-name="Group 26975" transform="translate(23.833 84.854)" opacity="0.3">
        <g id="Group_26974" data-name="Group 26974">
          <g id="Group_26973" data-name="Group 26973" clip-path="url(#clip-path-5)">
            <g id="Group_26972" data-name="Group 26972" opacity="0.7">
              <g id="Group_26971" data-name="Group 26971">
                <g id="Group_26970" data-name="Group 26970" clip-path="url(#clip-path-5)">
                  <path id="Path_25357" data-name="Path 25357" d="M104.517,176.7c2.638,1.321.092,15.2-4.192,18.877l-4.042,15.809,4.042,17.287,10.015-6.292s.991-6.158,4.655-8.265,3.669,1.225,3.669,1.225-3.91,9.722-3.669,13.332-6.534,10.3-9.728,15.114-11.148,3.11-19.151,8.308-31.459,29.934-31.459,29.934l15.058-61.372Z" transform="translate(-54.657 -176.696)"/>
                </g>
              </g>
            </g>
          </g>
        </g>
      </g>
      <path id="Path_25358" data-name="Path 25358" d="M85.124,201.784a23.3,23.3,0,0,0-2.015,2.915c-.325.538-.638,1.1-.943,1.68-.137.256-.27.513-.4.774a1.053,1.053,0,0,1-.05.1c-.149.294-.295.59-.441.89-.016.037-.037.079-.059.12-.125.259-.246.518-.367.777-.138.3-.277.6-.411.9,0,0,0,0-.005.007-.124.271-.243.539-.357.808-.343.779-.669,1.556-.977,2.305-.3.718-.578,1.415-.841,2.073-.027.069-.053.134-.079.2-.067.163-.131.327-.194.484-.312.793-.6,1.52-.866,2.155a1.423,1.423,0,0,1-.069.151.8.8,0,0,1-.063.123,7.12,7.12,0,0,1-2.173,2.179c-.171.125-.354.247-.541.369-.519.344-1.1.684-1.705,1.026-.15.084-.3.171-.463.253-.373.2-.755.4-1.148.6h0c-4.517,2.285-10.032,4.341-11.444,5.872-1.873,2.032-2.2,3.7-4.491,6.091,0,0,0,0-.009.007a21.406,21.406,0,0,1-2.106,1.92c-2.9,2.352-9.639,14.89-13.8,22.97-2.073,4.022-3.506,6.937-3.506,6.937L6.909,253s15.064-20.9,15.819-24.461a27.3,27.3,0,0,1,2.94-7.177,118.8,118.8,0,0,1,.169-13.644c.542-5.628,1.9-15.1,2.538-18.885s4.349-9.7,6.124-14.211,2.8-8.578,4.372-11.352,3.1-7.676,4.024-8.195,1.9.3,2.905,1.732-1.419,9.76-1.419,9.76c1.759-2.9,2.863-8.875,3.52-10.429s1.859-8.758,1.859-8.758a7.127,7.127,0,0,1,2.1-.925,3.358,3.358,0,0,1,2.008.058c1.811.711,2.768,4.674,2.281,9.264s-3.064,14.434-3.064,14.434a.034.034,0,0,1,.006-.011c.219-.329,6.054-9.209,7.48-11.374,1.448-2.2,3.94-10.873,4.385-11.432a3.592,3.592,0,0,1,3.931-.438,3.639,3.639,0,0,1,1.455,2.023c1.311,3.827-2.474,12.436-3,14.122-.425,1.377-3.73,7.059-4.921,9.091,0,0-.005.007-.01.01-.189.323-.323.551-.383.658.343-.489,2.72-3.84,4.5-4.375,1.919-.572,5.714-3.035,8.152-4.517s2.543-6.645,5.919-2.483c1.429,1.758.6,4.883-.656,7.724s-7.245,7.948-7.245,7.948c-.231.641-.8,2.137-1.491,3.952l-.084.222q-.185.493-.387,1.009c-.176.458-.359.932-.542,1.405-.1.252-.194.5-.293.756-.116.294-.228.584-.342.874-.057.149-.116.294-.171.435-.017.041-.03.084-.046.122-.1.248-.2.5-.29.74-.058.14-.112.278-.167.419-.2.511-.4,1.006-.585,1.471-.022.045-.04.095-.059.145-.05.117-.1.24-.145.353-.1.244-.193.48-.286.7s-.179.437-.264.638c-.377.9-.674,1.559-.824,1.817-.767,1.3,1.737,14.925,3.734,13.225s7.218-10.14,7.218-10.14c.733-4.877,3.481-8.748,7.2-10.355h0a9.706,9.706,0,0,1,.956-.359c4.206-1.322,4.659,1.914,4.659,1.914-5.159,12-1.85,11.032-5.366,15.277" transform="translate(-6.909 -76.634)" fill="#fff"/>
      <path id="Path_25359" data-name="Path 25359" d="M92.259,170.213l-7.137,10.905c.6-3.988,4.147-12.528,4.147-12.528.5-3.272,4.808-18.527,3.364-20.928a5.938,5.938,0,0,0-1.6-1.207,3.364,3.364,0,0,1,2.008.058c1.812.711,2.768,4.674,2.281,9.264s-3.064,14.435-3.064,14.435" transform="translate(-46.082 -76.634)" fill="#d9e3e5"/>
      <path id="Path_25360" data-name="Path 25360" d="M84.825,167.048l0,0,.009.014c.036.045.126.167.255.356a5.868,5.868,0,0,0-.181-.646Z" transform="translate(-45.933 -86.874)" fill="#d9e3e5"/>
      <path id="Path_25361" data-name="Path 25361" d="M69.244,190.088s5.138-8.751,7.292-16.347a16.5,16.5,0,0,0,.756-7.454l0,0a5.807,5.807,0,0,0-.181-.646l-.086.271A7.2,7.2,0,0,0,75.8,164.5c.4,1.3.618,3.685-1.3,6.931-3,5.085-3.575,12.153-5.254,18.659" transform="translate(-38.129 -85.733)" fill="#d9e3e5"/>
      <path id="Path_25362" data-name="Path 25362" d="M127.321,242.56c2.835-2.292,5.127-8.8,8.121-12.11,0,0-.1-5.908,5.985-10.6h0c-3.717,1.608-6.464,5.479-7.2,10.355,0,0-5.225,8.44-7.218,10.14s-4.5-11.929-3.734-13.225c.15-.258.446-.913.824-1.817.084-.2.171-.414.264-.638s.189-.46.286-.7c.048-.114.1-.236.145-.353a1.53,1.53,0,0,1,.059-.144c.186-.469.381-.96.585-1.471.054-.141.108-.279.167-.419.093-.245.191-.493.29-.74.016-.038.029-.08.046-.122.055-.141.114-.285.171-.435.115-.29.227-.58.342-.874.1-.252.194-.5.293-.756.183-.473.366-.947.542-1.405.131-.344.261-.684.387-1.009.029-.076.056-.149.084-.222-.273.525-5.26,10.163-7.149,12.208-1.938,2.1-.174,16.511,3.718,15.3,0,0,.887.738,2.992-.964" transform="translate(-63.46 -111.533)" fill="#d9e3e5"/>
      <path id="Path_25363" data-name="Path 25363" d="M38.558,243.651a118.8,118.8,0,0,0-.169,13.644,27.294,27.294,0,0,0-2.94,7.177,28.7,28.7,0,0,1-3.144,5.9c.433-.582,5.079-6.838,5.712-9.295.659-2.579,1.585-3.085,3.888-5.839s4.387-1.8,4.387-1.8-1.338,8.1,2.067,3.476,5.452-10.524,6.261-32.767c0,0-1.478,2.409-3,10.357s-4.036,9.787-4.036,9.787a75.165,75.165,0,0,1-2.338-17.251s-1.872,9.25-2.444,13.542-.711-5.353-1.008-11.37c-.281-5.646.2-7.63,1.875-11.13a27.778,27.778,0,0,0-2.569,6.69c-.638,3.786-2,13.257-2.538,18.885" transform="translate(-19.628 -112.568)" fill="#d9e3e5"/>
      <path id="Path_25364" data-name="Path 25364" d="M87.306,323.253a21.4,21.4,0,0,1-2.106,1.921c-2.9,2.351-9.639,14.89-13.8,22.969A50.422,50.422,0,0,1,76.251,335.2c4.5-7.933,8.94-10.018,11.055-11.945" transform="translate(-39.211 -165.245)" fill="#d9e3e5"/>
      <path id="Path_25365" data-name="Path 25365" d="M114.124,163.734c-.424,1.377-3.73,7.059-4.921,9.091,0,0-.006.007-.01.01-1.521,1.739-5.6,10.257-6.6,11.506s-2.924,1.334-2.069-.551c1.393-3.08,5.616-13.629,7.794-15.674s5.54-10.7,7.234-15.57c.857-2.458.592-4.019.118-4.958a3.64,3.64,0,0,1,1.455,2.024c1.312,3.827-2.474,12.436-3,14.122" transform="translate(-53.688 -77.264)" fill="#d9e3e5"/>
      <path id="Path_25366" data-name="Path 25366" d="M134.524,177.586c-2.429,1.48-6.209,3.929-8.135,4.512.263-.051,3.682-.685,4.914,1.415,1.279,2.188,1.239,7.262,1.239,7.262s5.985-5.109,7.245-7.949,2.084-5.966.656-7.723c-3.376-4.163-3.482,1-5.919,2.483" transform="translate(-66.751 -90.249)" fill="#d9e3e5"/>
      <path id="Path_25367" data-name="Path 25367" d="M35.6,266.468s12.957-26.389,17.3-29.908,4.27-5.484,6.606-8.018,15.93-6.514,17.609-10.571,4.5-11.941,8.013-16.189.206-3.277,5.368-15.277c0,0-.457-3.238-4.661-1.915s-7.362,5.423-8.159,10.714c0,0-5.224,8.438-7.219,10.139s-4.5-11.929-3.731-13.226,5.2-12.93,5.975-15.059c0,0,5.988-5.11,7.245-7.949s2.083-5.967.658-7.723c-3.377-4.162-3.483,1.006-5.921,2.485s-6.231,3.943-8.151,4.516S62,172.922,62,172.922s4.832-8.133,5.353-9.82,4.31-10.295,3-14.122-4.938-2.146-5.384-1.586-2.939,9.225-4.388,11.431-7.484,11.386-7.484,11.386,2.579-9.842,3.064-14.433-.473-8.554-2.283-9.266-4.107.866-4.107.866-1.2,7.2-1.859,8.758-1.763,7.533-3.522,10.429c0,0,2.422-8.331,1.418-9.761s-1.975-2.249-2.9-1.731-2.459,5.424-4.028,8.2-2.6,6.843-4.371,11.351-5.481,10.423-6.122,14.209-2,13.257-2.538,18.888a119.411,119.411,0,0,0-.172,13.643,27.29,27.29,0,0,0-2.94,7.175C21.975,232.093,6.914,253,6.914,253" transform="translate(-6.912 -76.632)" fill="none" stroke="#263238" stroke-linecap="round" stroke-linejoin="round" stroke-width="1"/>
      <path id="Path_25368" data-name="Path 25368" d="M90.168,194.175c-1.449,1.817-6.028,9.917-7.137,10.907a4.255,4.255,0,0,1-2.088,1.11" transform="translate(-43.989 -100.597)" fill="none" stroke="#263238" stroke-linecap="round" stroke-linejoin="round" stroke-width="1"/>
      <path id="Path_25369" data-name="Path 25369" d="M74.539,186.87s-.307,1.835-2.847,7.252-3.68,7.708-4.571,8.827" transform="translate(-37.067 -96.938)" fill="none" stroke="#263238" stroke-linecap="round" stroke-linejoin="round" stroke-width="1"/>
      <path id="Path_25370" data-name="Path 25370" d="M109.955,199.608c-2.137,3.138-4.333,8.475-5.463,9.951s-1.822,1.656-1.822,1.656" transform="translate(-54.87 -103.318)" fill="none" stroke="#263238" stroke-linecap="round" stroke-linejoin="round" stroke-width="1"/>
      <path id="Path_25371" data-name="Path 25371" d="M106.627,215.2a5.434,5.434,0,0,0-2.2,1.6" transform="translate(-55.752 -111.129)" fill="none" stroke="#263238" stroke-linecap="round" stroke-linejoin="round" stroke-width="1"/>
      <path id="Path_25372" data-name="Path 25372" d="M129.506,264.761s-1.918,4.415-4.7,3.254" transform="translate(-65.96 -135.95)" fill="none" stroke="#263238" stroke-linecap="round" stroke-linejoin="round" stroke-width="1"/>
      <path id="Path_25373" data-name="Path 25373" d="M124.963,238.264s-2.259,5.253-1.679,7.91" transform="translate(-65.148 -122.679)" fill="none" stroke="#263238" stroke-linecap="round" stroke-linejoin="round" stroke-width="1"/>
      <path id="Path_25374" data-name="Path 25374" d="M77.395,225.587s-2.262.647-1.931,4.477-1.3,18.466-1.3,18.466" transform="translate(-40.591 -116.329)" fill="none" stroke="#263238" stroke-linecap="round" stroke-linejoin="round" stroke-width="1"/>
      <path id="Path_25375" data-name="Path 25375" d="M59.957,228.255c-1.681,2.913-1.775,2.974-1.527,7.195s-.246,14.25-.246,14.25" transform="translate(-32.59 -117.666)" fill="none" stroke="#263238" stroke-linecap="round" stroke-linejoin="round" stroke-width="1"/>
      <path id="Path_25376" data-name="Path 25376" d="M44.489,292.044s1.973-2.2,1.509-4.59" transform="translate(-25.731 -147.316)" fill="none" stroke="#263238" stroke-linecap="round" stroke-linejoin="round" stroke-width="1"/>
      <path id="Path_25377" data-name="Path 25377" d="M91.793,327.1a36.256,36.256,0,0,0-7.226,8.246" transform="translate(-45.804 -167.173)" fill="none" stroke="#263238" stroke-linecap="round" stroke-linejoin="round" stroke-width="1"/>
      <path id="Path_25378" data-name="Path 25378" d="M116.111,102.726h-10.53a2.475,2.475,0,0,0-2.475,2.475v5.123a2.475,2.475,0,0,0,2.475,2.475h2.752l2.085,4.727,2.94-4.727h2.752a2.475,2.475,0,0,0,2.475-2.475V105.2a2.475,2.475,0,0,0-2.475-2.475" transform="translate(-55.089 -54.795)" fill="#fff"/>
      <path id="Path_25379" data-name="Path 25379" d="M116.111,102.726h-10.53a2.475,2.475,0,0,0-2.475,2.475v5.123a2.475,2.475,0,0,0,2.475,2.475h2.752l2.085,4.727,2.94-4.727h2.752a2.475,2.475,0,0,0,2.475-2.475V105.2A2.475,2.475,0,0,0,116.111,102.726Z" transform="translate(-55.089 -54.795)" fill="none" stroke="#263238" stroke-linecap="round" stroke-linejoin="round" stroke-width="1"/>
      <path id="Path_25380" data-name="Path 25380" d="M180.328,104.164H169.8a2.475,2.475,0,0,0-2.475,2.475v5.123a2.475,2.475,0,0,0,2.475,2.475h2.752l2.085,4.727,2.94-4.727h2.752a2.475,2.475,0,0,0,2.475-2.475v-5.123a2.475,2.475,0,0,0-2.475-2.475" transform="translate(-87.252 -55.515)" fill="#fff"/>
      <path id="Path_25381" data-name="Path 25381" d="M180.328,104.164H169.8a2.475,2.475,0,0,0-2.475,2.475v5.123a2.475,2.475,0,0,0,2.475,2.475h2.752l2.085,4.727,2.94-4.727h2.752a2.475,2.475,0,0,0,2.475-2.475v-5.123A2.475,2.475,0,0,0,180.328,104.164Z" transform="translate(-87.252 -55.515)" fill="none" stroke="#263238" stroke-linecap="round" stroke-linejoin="round" stroke-width="1"/>
      <path id="Path_25382" data-name="Path 25382" d="M242.587,103.555h-10.53a2.475,2.475,0,0,0-2.475,2.475v5.123a2.475,2.475,0,0,0,2.475,2.475h2.752l2.085,4.727,2.94-4.727h2.752a2.476,2.476,0,0,0,2.475-2.475V106.03a2.475,2.475,0,0,0-2.475-2.475" transform="translate(-118.435 -55.21)" fill="#fff"/>
      <path id="Path_25383" data-name="Path 25383" d="M242.587,103.555h-10.53a2.475,2.475,0,0,0-2.475,2.475v5.123a2.475,2.475,0,0,0,2.475,2.475h2.752l2.085,4.727,2.94-4.727h2.752a2.476,2.476,0,0,0,2.475-2.475V106.03A2.475,2.475,0,0,0,242.587,103.555Z" transform="translate(-118.435 -55.21)" fill="none" stroke="#263238" stroke-linecap="round" stroke-linejoin="round" stroke-width="1"/>
      <path id="Path_25384" data-name="Path 25384" d="M303.947,102.726h-10.53a2.475,2.475,0,0,0-2.475,2.475v5.123a2.475,2.475,0,0,0,2.475,2.475h2.752l2.085,4.727,2.94-4.727h2.752a2.475,2.475,0,0,0,2.475-2.475V105.2a2.475,2.475,0,0,0-2.475-2.475" transform="translate(-149.167 -54.795)" fill="#fff"/>
      <path id="Path_25385" data-name="Path 25385" d="M303.947,102.726h-10.53a2.475,2.475,0,0,0-2.475,2.475v5.123a2.475,2.475,0,0,0,2.475,2.475h2.752l2.085,4.727,2.94-4.727h2.752a2.475,2.475,0,0,0,2.475-2.475V105.2A2.475,2.475,0,0,0,303.947,102.726Z" transform="translate(-149.167 -54.795)" fill="none" stroke="#263238" stroke-linecap="round" stroke-linejoin="round" stroke-width="1"/>
      <path id="Path_25386" data-name="Path 25386" d="M148.268,90.848h-10.53a2.475,2.475,0,0,0-2.475,2.475v5.123a2.475,2.475,0,0,0,2.475,2.475h2.752l2.085,4.727,2.94-4.727h2.752a2.475,2.475,0,0,0,2.475-2.475V93.323a2.475,2.475,0,0,0-2.475-2.475" transform="translate(-71.195 -48.845)" fill="#fff"/>
      <path id="Path_25387" data-name="Path 25387" d="M148.268,90.848h-10.53a2.475,2.475,0,0,0-2.475,2.475v5.123a2.475,2.475,0,0,0,2.475,2.475h2.752l2.085,4.727,2.94-4.727h2.752a2.475,2.475,0,0,0,2.475-2.475V93.323A2.475,2.475,0,0,0,148.268,90.848Z" transform="translate(-71.195 -48.845)" fill="none" stroke="#263238" stroke-linecap="round" stroke-linejoin="round" stroke-width="1"/>
      <path id="Path_25388" data-name="Path 25388" d="M210.989,89.8h-10.53a2.475,2.475,0,0,0-2.475,2.475V97.4a2.475,2.475,0,0,0,2.475,2.475h2.752L205.3,104.6l2.94-4.727h2.752a2.475,2.475,0,0,0,2.475-2.475V92.274a2.475,2.475,0,0,0-2.475-2.475" transform="translate(-102.609 -48.32)" fill="#fff"/>
      <path id="Path_25389" data-name="Path 25389" d="M210.989,89.8h-10.53a2.475,2.475,0,0,0-2.475,2.475V97.4a2.475,2.475,0,0,0,2.475,2.475h2.752L205.3,104.6l2.94-4.727h2.752a2.475,2.475,0,0,0,2.475-2.475V92.274A2.475,2.475,0,0,0,210.989,89.8Z" transform="translate(-102.609 -48.32)" fill="none" stroke="#263238" stroke-linecap="round" stroke-linejoin="round" stroke-width="1"/>
      <path id="Path_25390" data-name="Path 25390" d="M273.045,87.718h-10.53a2.475,2.475,0,0,0-2.475,2.475v5.123a2.475,2.475,0,0,0,2.475,2.475h2.752l2.085,4.727,2.94-4.727h2.752a2.475,2.475,0,0,0,2.475-2.475V90.193a2.475,2.475,0,0,0-2.475-2.475" transform="translate(-133.69 -47.278)" fill="#fff"/>
      <path id="Path_25391" data-name="Path 25391" d="M273.045,87.718h-10.53a2.475,2.475,0,0,0-2.475,2.475v5.123a2.475,2.475,0,0,0,2.475,2.475h2.752l2.085,4.727,2.94-4.727h2.752a2.475,2.475,0,0,0,2.475-2.475V90.193A2.475,2.475,0,0,0,273.045,87.718Z" transform="translate(-133.69 -47.278)" fill="none" stroke="#263238" stroke-linecap="round" stroke-linejoin="round" stroke-width="1"/>
      <path id="Path_25392" data-name="Path 25392" d="M186.325,221.2h10.53a2.475,2.475,0,0,0,2.475-2.475V213.6a2.475,2.475,0,0,0-2.475-2.475H194.1l-.8-4.727-4.222,4.727h-2.752a2.475,2.475,0,0,0-2.475,2.475v5.123a2.475,2.475,0,0,0,2.475,2.475" transform="translate(-95.53 -106.717)" fill="#fff"/>
      <path id="Path_25393" data-name="Path 25393" d="M186.325,221.2h10.53a2.475,2.475,0,0,0,2.475-2.475V213.6a2.475,2.475,0,0,0-2.475-2.475H194.1l-.8-4.727-4.222,4.727h-2.752a2.475,2.475,0,0,0-2.475,2.475v5.123A2.475,2.475,0,0,0,186.325,221.2Z" transform="translate(-95.53 -106.717)" fill="none" stroke="#263238" stroke-linecap="round" stroke-linejoin="round" stroke-width="1"/>
      <path id="Path_25394" data-name="Path 25394" d="M71.13,123.58H81.66a2.475,2.475,0,0,0,2.475-2.475v-5.123a2.475,2.475,0,0,0-2.475-2.475H78.908l.6-4.727-5.625,4.727H71.13a2.475,2.475,0,0,0-2.475,2.475V121.1a2.475,2.475,0,0,0,2.475,2.475" transform="translate(-37.834 -57.826)" fill="#fff"/>
      <path id="Path_25395" data-name="Path 25395" d="M71.13,123.58H81.66a2.475,2.475,0,0,0,2.475-2.475v-5.123a2.475,2.475,0,0,0-2.475-2.475H78.908l.6-4.727-5.625,4.727H71.13a2.475,2.475,0,0,0-2.475,2.475V121.1A2.475,2.475,0,0,0,71.13,123.58Z" transform="translate(-37.834 -57.826)" fill="none" stroke="#263238" stroke-linecap="round" stroke-linejoin="round" stroke-width="1"/>
      <path id="Path_25396" data-name="Path 25396" d="M211.292,107.335q-.205.6-.317.889l.653.373a1.088,1.088,0,0,0,.211-.392s.045-.154.137-.448a.56.56,0,0,0-.3-.261c-.037-.021-.166-.075-.385-.162" transform="translate(-109.115 -57.103)" fill="#219f8a"/>
      <path id="Path_25397" data-name="Path 25397" d="M212.165,97.149a27.706,27.706,0,0,0,2.039-3.308,3.9,3.9,0,0,1,.815-1.044,1.181,1.181,0,0,0,.062-.547,1.1,1.1,0,0,0-.05-.386,2.18,2.18,0,0,0-.448.33l-1.635,2.53q-2.095,3.246-4.079,3.245a2.823,2.823,0,0,1-2.039-.827,3.291,3.291,0,0,1-.97-2c-.013-.1-.021-.166-.025-.2a1.678,1.678,0,0,1,.354-1,3.289,3.289,0,0,1,1.959-1.181,2.918,2.918,0,0,1,.454-.093q.279-.006,1.044-.043,1.3-.069,2.3-.187a1.1,1.1,0,0,0,.41-.1l-.018-.062h-2.8q-2.282,0-2.991.7a3.4,3.4,0,0,0-.777,1.079,3.438,3.438,0,0,0-.218,1.309,3.646,3.646,0,0,0,.958,2.524,3.159,3.159,0,0,0,2.437,1.1,4.186,4.186,0,0,0,3.215-1.846" transform="translate(-106.401 -49.354)" fill="#219f8a"/>
      <path id="Path_25398" data-name="Path 25398" d="M242.156,101.673q1.31-1.966,2.2-3.244.311-.959.489-1.766a.665.665,0,0,0,.017-.134l-.089-.054-.089.054a4.767,4.767,0,0,1-.43,1.387q-1.271,1.844-1.763,2.551a9.2,9.2,0,0,0-1.7,5.281,4.767,4.767,0,0,0,.439,2.058,1.715,1.715,0,0,0,1.557,1.173,2.336,2.336,0,0,0,2.121-1.316,8.04,8.04,0,0,0,.805-2.533l.054-.3a3.173,3.173,0,0,0-.581-2.121,1.3,1.3,0,0,0-.967-.52,1.223,1.223,0,0,0-1.164.967,11.407,11.407,0,0,0-.322,1.611,9.343,9.343,0,0,0-.134,1.146l.053.134a11.307,11.307,0,0,0,1.164.3,2.785,2.785,0,0,0,.3-1.173.929.929,0,0,0-.036-.287,1.481,1.481,0,0,0-.984-.242,1.155,1.155,0,0,1,1.065-.779,1.266,1.266,0,0,1,.761.233.8.8,0,0,1,.367.68,2.835,2.835,0,0,1-.761,1.745,2.139,2.139,0,0,1-1.575.975,1.664,1.664,0,0,1-.2-.008q-1.575-.224-1.575-2.346a7.216,7.216,0,0,1,.581-2.543q.33-.842.393-.94" transform="translate(-124.048 -51.663)" fill="#219f8a"/>
      <path id="Path_25399" data-name="Path 25399" d="M118.009,103.268a4.23,4.23,0,0,0,.953-2.633q0-1.706-.8-1.819l-1.067-.157q-1.242-.183-1.242-.98a2.751,2.751,0,0,1,.472-1.461,1.468,1.468,0,0,1,1.207-.84.552.552,0,0,1,.42.14c.076.111.154.219.236.323l.026.017q.165-.043.306-.525a2.574,2.574,0,0,0,.122-.682l-.035-.2a1.684,1.684,0,0,0-1.181-.481q-.639,0-1.321,1.268a5.506,5.506,0,0,0-.673,1.872q-.009.07-.009.691a3.813,3.813,0,0,0,.289,1.82,2.155,2.155,0,0,0,1.609.743q1.015.131,1.015.525a1.874,1.874,0,0,1-.98,1.444,2.992,2.992,0,0,1-1.706.647,2.344,2.344,0,0,1-2.125-1.706,7.241,7.241,0,0,1-.578-2.931q0-1.994,2.292-4.706,1.155-1.294,1.583-1.732a5.915,5.915,0,0,0,.849-1.443q.061-.148.543-1.592l.035-.1-.044-.1-.087.052a9.317,9.317,0,0,1-1.636,2.947l-2.274,2.572q-.464.682-.752,1.2a7.755,7.755,0,0,0-1.032,3.761,8.252,8.252,0,0,0,.691,3.4,2.782,2.782,0,0,0,2.51,1.995,2.963,2.963,0,0,0,2.379-1.33" transform="translate(-59.758 -47.754)" fill="#219f8a"/>
      <path id="Path_25400" data-name="Path 25400" d="M197.93,219.551a7.524,7.524,0,0,0-.883-3.026,24.148,24.148,0,0,0,2.846-1.51l.006-.075-.064-.029a26.618,26.618,0,0,1-2.893,1.4,15.137,15.137,0,0,0-1.905-2.87l-.029.209q0,.679.014.726l.643,2.527a9.023,9.023,0,0,0-2.237,1.475,3.344,3.344,0,0,0-.953,2.434,4.119,4.119,0,0,0,.348,1.447q.848,2.132,2.55,2.132,2.556,0,2.556-4.839m-2.451-4.5.011-.04a7.123,7.123,0,0,1,.987,1.493l-.592.291q-.407-1.691-.406-1.743m-1.83,7.778a2.773,2.773,0,0,1-.8-1.3,2.114,2.114,0,0,1-.111-.563,3.425,3.425,0,0,1,.953-2.295,7.244,7.244,0,0,1,2.028-1.539q.575,2.5.65,3.067l.064.035.058-.035a.207.207,0,0,0,.023-.11q-.157-1.074-.574-3.07l.649-.305a7.622,7.622,0,0,1,1.134,3.492,3.621,3.621,0,0,1-.558,1.853,2.391,2.391,0,0,1-1.429,1.226,2.894,2.894,0,0,1-.685.093,2.032,2.032,0,0,1-1.406-.546" transform="translate(-99.85 -110.246)" fill="#263238"/>
      <path id="Path_25401" data-name="Path 25401" d="M146.834,82.608a2.939,2.939,0,0,0-.267,1.31,19.21,19.21,0,0,0,.234,2.544l.032.792q.008.624,0,.784V88.3l.094.114q.2-.068.18-.624-.084-2.856-.137-3.336,1.058,2.2,1.135,2.384a7.025,7.025,0,0,1,.678,2.544,5.854,5.854,0,0,1-1.889,4.372,8.368,8.368,0,0,1-2.1,1.341,4.909,4.909,0,0,1-1.661.594l-.03.03-.008.061.038.076a10.461,10.461,0,0,0,2.445-.366,4.278,4.278,0,0,0,2.14-1.135,5.17,5.17,0,0,0,.982-2.216,13.926,13.926,0,0,0,.4-3.3,6.41,6.41,0,0,0-.342-2.094,22.679,22.679,0,0,0-1.2-2.849,7.222,7.222,0,0,0-.724-1.295" transform="translate(-75.117 -44.718)" fill="#219f8a"/>
      <path id="Path_25402" data-name="Path 25402" d="M147.41,79.869q-.541.194-.746.271c0,.071.03.106.091.106a2.7,2.7,0,0,0,1.234-.313q.746-.383.746-.949a.478.478,0,0,0-.167-.321h-.48a.187.187,0,0,1-.114-.156l.023-.089a.231.231,0,0,1,.168-.052l.152.03a.878.878,0,0,0,.129-.335,1.949,1.949,0,0,0,.061-.381l-.183-.045a1,1,0,0,0-.552.5,1.522,1.522,0,0,0-.233.751.66.66,0,0,0,.221.453l.213.015h.191l.038.053-.038.076a2.4,2.4,0,0,1-.754.385" transform="translate(-76.905 -42.227)" fill="#219f8a"/>
      <path id="Path_25403" data-name="Path 25403" d="M175.743,113.492a3.564,3.564,0,0,0,2.476-1.619,7.905,7.905,0,0,0,1.362-2.768,4.664,4.664,0,0,0,.122-1.969,1.583,1.583,0,0,0-1.105-1.462.445.445,0,0,0-.54.227,4.186,4.186,0,0,0-.48,1.021,1.691,1.691,0,0,0-.076.807.77.77,0,0,0,.617.5.983.983,0,0,0,1-.237,1.581,1.581,0,0,1,.091.893,4.757,4.757,0,0,1-1.967,2.59,7.044,7.044,0,0,1-4.7,1.246,1.64,1.64,0,0,0-.306,0l-.026.034q.038.167.563.308a9.466,9.466,0,0,0,2.97.424" transform="translate(-89.7 -56.261)" fill="#219f8a"/>
      <path id="Path_25404" data-name="Path 25404" d="M276.928,83.936l.27-.523q-.061-.3-.768-.689-.329.538-.618,1.074l.735.65a1.312,1.312,0,0,0,.381-.512" transform="translate(-141.589 -44.777)" fill="#219f8a"/>
      <path id="Path_25405" data-name="Path 25405" d="M273.026,93.07a7.338,7.338,0,0,1-1.172,1.372,12.072,12.072,0,0,1-1.5,1.012,6.091,6.091,0,0,1-.895.438,12.08,12.08,0,0,1-1.216.248,4.014,4.014,0,0,1-1.5,0l-.073.046.031.056a2.336,2.336,0,0,0,.581.144,14.888,14.888,0,0,0,1.965.187,5.307,5.307,0,0,0,1.776-.115,4.422,4.422,0,0,0,2.09-1.856,7.285,7.285,0,0,0,1.037-2.671q.191-1.082.21-1.373a2.425,2.425,0,0,0-.236-1.326,1.438,1.438,0,0,0-.95-.848,3.609,3.609,0,0,0-1.725.288,3.167,3.167,0,0,0-1.476.894,3.434,3.434,0,0,0-.417,1.311,2.131,2.131,0,0,0,.5,1.708,5.173,5.173,0,0,1,.928,1.523,4.939,4.939,0,0,1,.016.6l.073.088c.091,0,.142-.028.155-.1a1.154,1.154,0,0,0,.129-.414,3.377,3.377,0,0,0-.149-1.814,4.6,4.6,0,0,0-.659-1.124q-.382-.495-.357-.634l.052-.158a4.418,4.418,0,0,1,1.2-.545,2.887,2.887,0,0,1,1.264-.2,1.4,1.4,0,0,1,.824.582,1.211,1.211,0,0,1,.314.945,4.6,4.6,0,0,1-.822,1.727" transform="translate(-137.014 -47.601)" fill="#219f8a"/>
      <path id="Path_25406" data-name="Path 25406" d="M303.107,111.414l.006.027.072.013a.916.916,0,0,1,.414-.52q.374-.276.525-.377a3.018,3.018,0,0,1,.144-.405l-.039-.049-.058,0a1.554,1.554,0,0,1-.777.413.469.469,0,0,1-.36-.039l-.041-.06a.247.247,0,0,1,.206-.28.383.383,0,0,1,.3.108,2.529,2.529,0,0,0,.185-.3q-.207-.267-.328-.242a.824.824,0,0,0-.438.324.606.606,0,0,0-.18.482.3.3,0,0,0,.218.236l.364.061a.708.708,0,0,0-.216.61" transform="translate(-155.073 -58.287)" fill="#219f8a"/>
      <path id="Path_25407" data-name="Path 25407" d="M305.472,92.948l-.058.024a1.89,1.89,0,0,0-.265.678c-.064.348-.107.589-.128.725q-.067.365-.18,1.19a10.393,10.393,0,0,1-.221,1.182,6.748,6.748,0,0,1-1.873,3.359,3,3,0,0,0-2.354-.825l-.2.043a2.963,2.963,0,0,0-2.033,1.631,3.768,3.768,0,0,0-.4,2.621A3.916,3.916,0,0,0,299,105.784a2.614,2.614,0,0,0,2.375.63,3.143,3.143,0,0,0,1.875-1.234,9.214,9.214,0,0,0,1.065-2.036l.414-1.01a3.265,3.265,0,0,1,.572-.917.427.427,0,0,1,.228-.146.169.169,0,0,1,.2.1,6.929,6.929,0,0,1,.325,1.043,2.689,2.689,0,0,0,.429.934q.391.539.843.443a1.249,1.249,0,0,0,.63-.48l-.222-1.042a1.035,1.035,0,0,1-.655.577q-.281.06-.626-.454a3.442,3.442,0,0,1-.366-.746l-.246-.778q-.205-.613-.415-.569-.579.123-1.039,1.431a8.989,8.989,0,0,1-1.2,2.363,3.564,3.564,0,0,1-2.072,1.529,2.564,2.564,0,0,1-1.959-.269,2.42,2.42,0,0,1-1.077-1.65,3.713,3.713,0,0,1,.262-2.539,2.8,2.8,0,0,1,2.024-1.484,3.081,3.081,0,0,1,2.285.719,10.578,10.578,0,0,1-1.1.9l-.008.071.013.008h.029a3.472,3.472,0,0,0,1.406-.731l.446.418.044-.009-.016-.077-.381-.409a5.9,5.9,0,0,0,1.616-2.752,18.822,18.822,0,0,0,.541-3.2,3.6,3.6,0,0,0,1.207,1.829l.028-.086-.015-.072a4.555,4.555,0,0,1-1-1.861,1.9,1.9,0,0,1,.035-1.27Z" transform="translate(-152.539 -49.897)" fill="#219f8a"/>
      <path id="Path_25408" data-name="Path 25408" d="M80.945,123.575l.019-.118q-.148-1.092-.167-1.23a4.525,4.525,0,0,1,.334-1.733q.434-1.063,1.24-1.063a1.688,1.688,0,0,1,1.25.768,2.259,2.259,0,0,1,.581,1.378,1.736,1.736,0,0,1-.212.758,1.48,1.48,0,0,1-.487.6,4.2,4.2,0,0,0,0-.915,1.905,1.905,0,0,0-.305-.729q-.295-.443-.61-.443-.266.109-.463.2a2,2,0,0,0-.423.709q-.128,1.87-.128,1.733a1.835,1.835,0,0,0,.324,1.25q-.433.522-.718.807v1.85a8.955,8.955,0,0,0,1.309-1.358,3.127,3.127,0,0,0,.748-1.575,2.243,2.243,0,0,0,1.053-1.23,3.923,3.923,0,0,0,.414-1.624,6.471,6.471,0,0,0-.423-2.441,1.933,1.933,0,0,0-1.792-1.447A1.706,1.706,0,0,0,80.9,118.88a4.979,4.979,0,0,0-.4,2.1,8.026,8.026,0,0,0,.4,2.609Zm1.644-.019a.58.58,0,0,1-.4-.177.535.535,0,0,1-.187-.394q0-.482.364-.482a.736.736,0,0,1,.463.256.813.813,0,0,1,.286.453.636.636,0,0,1-.522.344" transform="translate(-43.763 -62.303)" fill="#219f8a"/>
    </g>
  </g>
</svg>
